<?xml version="1.0" encoding="UTF-8"?><svg id="konzert" xmlns="http://www.w3.org/2000/svg" viewBox="0 0 264.2 264.2"><defs><style>.cls-1{fill:#010101;}.cls-2{fill:#b3c078;}</style></defs><circle class="cls-2" cx="132.1" cy="132.17" r="132.1"/><g><path class="cls-1" d="M221.9,151.27c2.9,1.6,5.8,3.3,8.9,4.7,2.8,1.2,5.3,2.7,7.5,4.8,3,2.8,6,5.6,9,8.4,1.9,1.8,3.2,3.9,4.1,6.3,.4,1,.3,1.8-.7,2.3s-1.6-.3-2-1.1c-.2-.4-.5-.8-.5-1-1.2-.2-2.2-.4-3.2-.6-2.7-.8-5.3,0-7.9,.7-.9,.3-1.7,.7-2.6,1-.9,.3-1.9,.5-2.6-.3-.7-.7-.5-1.6-.1-2.4,1.5-3.1,3.1-6.2,4.7-9.3,.4-.8,.5-1.3-.3-1.9-.9-.7-1.7-1.4-2.7-2.2-.3,.4-.5,.8-.8,1-.5,.3-1,.5-1.5,.7-.7,.2-1.5,.1-2.1,.4-3,1.7-6,3.6-9,5.4-.5,.3-1.2,.7-1.8,.7-1.2,0-1.6-1.3-1.1-2.6,1-2.6,2-5.1,1.6-7.9-.2-1.8-.7-3.7-1.2-5.5-.2-.7-.7-1-1.5-.7-2.5,.7-5.1,1.3-7.7,2.1-2.8,.8-5.5,1.8-8.3,2.6-5.9,1.7-11.7,3.5-17.6,5.1-2.3,.6-4.6,.9-6.8,1.5-6.1,1.9-12.2,4-18.4,5.9-2.3,.7-4.6,1.3-7.2,2.1,2.8,2.8,5.4,5.5,8.1,8.2,0,.1-.1,.3-.1,.4-.6,0-1.3,.2-1.9,0-7.8-2.1-15.5-4.1-23-7.1-3.9-1.6-8-2.7-11.9-4.3-3-1.3-5.9-2.9-8.8-4.5-.6-.3-1-1-1.5-1.4-.5-.5-1-.8-1.6-1.4,.1-.3,.2-.8,.3-1.4,.1-.5,.2-1.3-.1-1.4-.5-.3-1.2-.4-1.8-.3-1.2,.4-2.3,1-3.4,1.5-.5,.2-1.1,.4-1.7,.4-4.5,.6-8.9,1.1-13.4,1.7-6.5,.9-13,1-19.5,.1-2.9-.4-5.7-.6-8.6-1-4.6-.7-9.3-1.4-13.9-2.4-2.2-.4-4.2-1.4-6.3-2.1-.4-.2-.8-.7-.9-1.1-.4-2.7-.7-5.4-1-8.1-.1-.9,.1-1.7,.8-2.4,.5-.4,.6-1.1,1-1.7,1.1-1.6,2.9-2.3,4.7-2.8,1.9-.6,3.9-1.2,5.8-1.7,1.2-.3,2.5-.4,3.7-.5,.9-.1,1.4-.3,1.7-1.2,.5-1.9,2.3-2.4,4-2.8,1.9-.5,3.9-.8,5.8-1.1,.3-.1,.5-.2,.8-.3-.6-1.1-1.2-1.9-1.6-2.9-.2-.6,0-1.4,.2-2,.1-.4,.5-.8,.5-1.2,.1-9.7,.1-19.5,.1-29.2,0-1.6,0-1.7-1.6-1.6-1.3,.1-2.5,.2-3.8,.4-1,.1-1.9-.6-2.1-1.8-.8-4.4-1.1-8.8-.9-13.2,0-.4,.2-.8,.2-1.3,0-.4,.1-.7,.1-1.1-.1-.1-.2-.2-.4-.3-.4,.4-1,.7-1.3,1.2-.8,1.6-1.4,3.2-2.1,4.8-.1,.3-.1,.6,0,.9,.2,1.5,.4,2.9,.5,4.4,.1,1.4,.2,2.8,.3,4.2,0,.2,.1,.5,0,.7-.3,.6-.4,1.5-.9,1.8-.7,.5-1.6,.1-2.2-.6-.4-.4-.7-.8-1.1-1.3-1.1,1.8-2,3.4-3,5.1-.1,.2-.2,.5-.1,.8,.5,2.1,1,4.3,1.5,6.4,.3,1,.3,2.1-.6,2.5-.7,.3-1.7,.2-2.5,0-1-.2-1.9-.8-2.9-1.1-.3-.1-1,.2-1.2,.5-1.1,1.7-2,3.5-3,5.3-.4,.6-.3,1.2,.1,1.8,.6,1,1,2.1,1.3,3.2,.3,1.4-.4,2.4-1.6,2.3-1.5-.1-2.5,.7-3.4,1.7-2.2,2.4-2.1,1.5-.8,4.5,.5,1.2,1.1,2.3,1.5,3.5,.6,1.5-.2,2.7-1.8,2.8-.9,.1-1.7-.1-2.6-.1-1,.1-2.1,.3-3.1,.5-.2,0-.5,.2-.7,.2-1.1-.2-1.8,.5-2.5,1.1-1.4,1-2.4,2.1-2.1,4,.1,.9-.3,1.9-1.4,2.2s-2.1,0-2.7-1c-.7-1.1-1.5-1.3-2.7-.9-4.7,1.4-9.4,2.7-14,4-.4,.1-.8,.3-1.3,.2-.3,0-.8-.3-.9-.5-.1-.3,.1-.8,.4-1,3-2.2,6.1-4.1,9.8-4.7,.9-.1,1.9,0,2.9,0,.3,0,.8,0,1-.2,.8-1.4,2.4-1.5,3.7-1.8,2.5-.6,4.4-1.9,6.2-3.6,3.1-3,5.1-6.8,7.2-10.5,2.7-4.9,5.2-10,8-14.8,1.9-3.3,4.3-6.4,6.3-9.6,1-1.6,1.8-3.4,2.6-5.1,.2-.4,.1-.9,.1-1.3,.1-.5,0-1.1,.3-1.3,1.2-.8,1.3-2.2,1.7-3.4,.8-2,1.5-3.9,2.3-5.9,.2-.6,.3-1.4,.5-2s.4-1.3,.8-1.6c1-.8,2.1-1.5,3.2-2.1,1.3-.7,2.7-1.2,3.9-2,5.1-3.4,10.7-5.9,16.3-8.4,5-2.3,10.1-4.6,15.2-6.7,5-2.1,10.2-4,15.1-6.3,5.3-2.4,10.4-5.2,15.5-7.8,.4-.2,.8-.8,.9-1.3,.2-1.4,.8-1.8,2.1-1.5,.4,.1,.8,.1,1.1,0,.1-.1,0-.6,.1-1,.1-.5,.1-1.1,.4-1.3,.3-.3,1.1-.4,1.4-.2,.7,.4,1.3,1,1.7,1.6,.7,1,1.3,2.1,2.1,3.1,.3,.4,.9,.5,1.3,.7,1.2,.5,2.5,.8,3.6,1.4,9.8,4.9,19.7,9.7,29.4,14.9,5.3,2.8,10.2,6.2,15.3,9.3,4.8,2.8,9.7,5.5,14.5,8.4,9.4,5.5,18.7,11.2,28,16.7,1,.6,2,1,3,1.5,1,.6,1.6,1.5,1.6,2.7,0,6.8-.2,13.5-.2,20.3,0,3.6,.2,7.2,.3,10.8,.2,4.1,.4,8.1,.5,12.2,0,.6-.3,1.3-.4,1.9-.1,.7-.2,1.5-.1,2.2,.4,1.7-1,2.6-1.7,3.8,0,.1-.2,.1-.3,.2-1.3,.1-2.6,.2-3.9,.3-1,.1-2,.3-3,.4,.4,.1,.4,.4,.4,.6ZM141.6,50.27c-.2,1.6,0,3,.6,4.2,1,2.1,2.1,4.2,3.1,6.3,2.8,5.8,5.1,11.8,8.4,17.3,4.5,7.7,9.9,14.9,14.7,22.4,1.4,2.2,3.1,3,5.6,2.8,5.9-.4,11.8-.7,17.8-1,2.8-.2,5.6-.3,8.4-.6,6-.5,12-1.1,17.9-1.7,2.8-.3,5.6-.9,8.4-1.4,0-.1,0-.3,.1-.4-1.2-.8-2.4-1.7-3.6-2.4-8.6-5-17.2-10.1-25.7-15.1-5.2-2.9-10.3-5.8-15.3-8.8-4.4-2.6-8.5-5.5-13-7.9-6.8-3.6-13.7-6.9-20.6-10.4-2.2-1-4.3-2.1-6.8-3.3Zm-51.6,74.5v-.5h19.1c.7,0,1-.3,1.1-1,.1-2.3,.3-4.5,.4-6.7,.2-3.4-1.3-6.5-2.1-9.6-1-4-2.2-8-3.3-11.9-.2-.8-.6-1.3-1.4-1.5-5.1-2-10.3-3.9-15.4-6-5.3-2.2-10.7-4.4-16.4-5.6-.8-.2-1.3-.1-1.4,.8-.3,2.8-.9,5.6-.9,8.5-.1,10.6-.1,21.2-.1,31.8,0,.3-.1,.7,0,.9,.2,.3,.5,.7,.7,.8,1.6,.1,3.2,.1,4.8,.1,5.1-.1,10-.1,14.9-.1Zm83.1-18.2c.3,.5,.5,.8,.7,1,7,8.7,14.6,16.9,22.4,25,.4,.4,1,.7,1.6,.8,1.3,.3,2.7,.4,4.1,.5,3,.4,6,.8,8.9,1.1,3.5,.4,7,.8,10.5,1.3,1.4,.2,2.8,.5,4.3,.7,.7,.1,1.5-.1,2.2-.5,.2-.1,.2-.9,.2-1.4-.1-2.1-.3-4.1-.3-6.2-.1-4.1,0-8.2,0-12.3,0-4.8,.1-9.7,.2-14.5,0-1-.5-.9-1.1-.7-1.9,.4-3.9,.9-5.8,1.2-5,.6-10,1-15,1.5-2.3,.2-4.6,.4-6.9,.6-4.4,.4-8.9,.9-13.3,1.2-3.8,.3-7.6,.3-11.5,.5-.5,0-.7,.1-1.2,.2Zm-31.2,35.4h.3c-.2,3.4-.4,6.7-.5,10.1-.1,1.6,.1,1.8,1.5,1.6,1.5-.2,3-.5,4.5-.7,4.6-.7,9.3-1.4,13.9-2.1,1.2-.2,2.4-.1,3.6-.3,3-.5,6-1.1,9-1.6,2.9-.5,5.9-.8,8.8-1.3,2-.4,3.9-.9,5.9-1.4,2.7-.7,5.4-1.5,8.1-2.2,.7-.2,.9-.6,.7-1.2-.1-.5-.2-1-.3-1.5-.2-1-.6-1.9-.7-2.9-.1-1.1-.6-1.8-1.5-2-2.3-.6-4.5-1.1-6.9-.3-1.5,.5-3.1,.6-4.7,.7-.9,.1-1.7-.4-1.8-1.5-.1-.9-.6-1.2-1.4-1.3-4.1-.6-8.3-1.2-12.4-1.9-8.1-1.5-16.3-3.1-24.4-4.6-1.6-.3-1.7-.3-1.7,1.4,0,4.3,0,8.7,0,13Zm-38-51.9c-.1-.5-.1-.8-.1-1.1-.3-2-.8-4-1-6-.3-3.4,.9-6.5,2.4-9.4,4.4-8.6,8.7-17.3,15.8-24.1,.3-.3,.5-.5,.7-.8-.5-.1-.8,.1-1.1,.2-5.3,2.5-10.5,4.9-15.8,7.4-5.8,2.6-11.7,5.2-17.5,7.8-4.9,2.2-9.8,4.2-14.6,6.5-3,1.4-5.8,3.1-8.6,4.7-.4,.2-.7,.6-1.3,1.1,1.1,.3,1.9,.6,2.7,.7,1.5,.3,3,1.1,4.6,.1,.3-.2,1,.1,1.2,.4,.6,1,1.6,1.2,2.5,1.4,2,.5,4.1,.9,6.1,1.6,5.1,1.9,10,4,15.1,6,2.9,1.2,5.8,2.3,8.9,3.5Zm.4-7.8c.6,.6,1.2,.9,1.4,1.4,1.6,3.6,4.3,6.4,6.8,9.2,.5,.5,1.2,.9,1.8,1.2,2.1,.9,4.3,1.6,6.4,2.5,3.5,1.6,6.9,3.4,10.4,5.1,.7,.3,1.1,.6,2,0,1.5-1.1,2.1,.9,3.2,1.4,.4,.2,.4,1.1,.5,1.7,0,.2-.4,.4-.5,.6-.3,.5-.6,1-.7,1.5-.1,.6-.1,1.3-.1,2-.1,3.9-.2,7.8-.2,11.7,0,.5,.3,1.3,.7,1.6,.5,.4,1.3,.5,2,.6,.7,.2,1.1-.1,1.1-.9,.1-4.5,.2-9.1,.3-13.6,0-.5-.3-1.2-.6-1.6-.6-.8-.6-1.4,0-2.2,.4-.5,.6-1.2,.6-1.8,0-5.2-.1-10.5-.2-15.7,0-1.8-.1-1.8-1.9-1.7-3.5,.3-6.9,.1-10.3-1-.9-.3-1.9-.2-2.8-.1-1.2,.1-2.2-.5-2.3-1.8-.1-1.3,0-2.5,.1-3.7,.4-4.1,.9-8.2,1.3-12.4,.1-1.5,.2-3,.2-4.5,0-.6-.2-1.4-.4-2-.4-.9-.5-1.7,.3-2.4,.3-.3,.6-.8,.6-1.2,.1-2.2,.1-4.4,.2-6.5,0-.2-.1-.5-.2-.9-1.2,1.3-2.3,2.4-3.3,3.6-1.7,2.1-3.4,4.2-5.1,6.3-.3,.3-.4,.8-.5,1.2-.1,1.5-.2,3.1-.3,4.7-.2,2.9-.6,5.7,.5,8.6,.5,1.4-.2,2.4-1.6,2.2-2-.2-3.9-.7-5.8-1-.4-.1-1,.1-1.1,.4-1.6,2.3-2.4,4.9-2.5,7.5Zm51.4,24.4v-.3c-4.1,.2-8.2,.4-12.3,.6-.8,0-1.3,.3-1.3,1.2,0,5-.1,9.9-.2,14.9,0,.8,.3,1.1,1.1,1.2,1.2,.2,2.4,.5,3.5,.7,3.5,.7,6.9,1.5,10.3,2.1,3.8,.7,7.7,1.3,11.5,2,4.4,.7,8.7,1.4,13.1,2.1,.4,.1,.8,0,1.1-.1,1.2-.9,1.7-3.7,1.1-5-.4-.9-.6-1.8-1-2.7-.2-.4-.4-.8-.6-1.1-1.7-1.9-3.4-3.8-5.1-5.7-.5-.6-1-.7-1.8-.4-3.1,1-6.3,2-9.5,2.9-1,.3-2.1,.3-2.8-.7-.6-.9-.4-1.8-.1-2.7,.3-.8,.7-1.6,.9-2.4,.5-1.6,1-3.3,1.3-5,.3-1.9-.3-2.2-2.1-2-2.1,.1-4.6,.2-7.1,.4Zm-46,20.7c-13,.2-25.7,.3-38.5,.5,0,.1-.1,.3-.1,.4,.3,.3,.6,.5,1,.7,1.2,.8,2.5,1.5,3.6,2.3,1.5,1.1,1.4,2.7-.3,3.5-.7,.3-1.4,.5-2.1,.6-3.4,.5-6.7,.9-10.1,1.4-1,.2-2,.6-3,.9v.5c1.3,.5,2.6,1,3.9,1.5,3.8,1.3,7.7,1.7,11.6,1.8,4.8,.1,9.6,.1,14.4-.1,4.8-.2,9.7-.5,14.5-.9,1.6-.1,3.2-.3,5-.5-.8-4.1-1.1-8.3,.1-12.6Zm10.8-27.7c0,.1-.1,.1-.1,.2,.6,.7,1.2,1.4,1.7,2.2,.5,.6,.5,1.5-.4,1.6-1.2,.2-2.6,.2-3.8-.1-1.9-.4-3.6-1.2-5.5-1.6-1.4-.4-2.8-.5-4.1-.8-.2,2.5,1.7,3.7,2.7,5.4,.6-.6,1.2-.5,1.6,.2,.4,.6,.8,1.3,1.1,1.9,.5,1.2,.8,2.6,1.5,3.6,2.1,2.7,3.2,5.9,4.2,9.1,.7,2.3,.8,2.2,3,2.3,2.8,.1,5.5-.4,8.2-1,1.1-.3,1.4-.8,1.5-2,.1-4.7,.3-9.4,.5-14.1,0-.8-.3-1.1-.9-1.4-2.2-1.1-4.4-2.3-6.7-3.4-1.4-.7-2.9-1.4-4.5-2.1Zm21.9-37.8h-.4c0,.5-.1,1-.1,1.4,.1,7.9,.2,15.8,.3,23.7v15.4c0,1,.3,1.4,1.4,1.3,1.6-.1,3.3-.1,4.9-.2,4.7-.2,9.5-.3,14.2-.5,.9,0,1.1-.3,.8-1.2-.2-.5-.2-1.2,0-1.7,.4-.7,.2-1.2-.2-1.7-1.4-2.1-2.8-4.1-4.2-6.2-.5-.7-.8-.6-1.2,0-.6,1-1.3,2-1.8,3-1.3,2.2-2.6,4.5-4,6.7-.4,.7-1.1,1.4-2,1.1-.8-.3-1.3-1.1-1.3-2.1v-1.2c.1-3.8,.2-7.6,.4-11.5,0-1.1,.2-2.3,.3-3.4,0-.5,.1-.9,0-1.4-.2-1.8-.4-3.6-.8-5.3-.4-2-.3-4.1-1.4-6-.9-1.5-1.5-3.1-2.3-4.7-.9-1.6-1.8-3.5-2.6-5.5Zm-20.8,64.8c1,2.3,1.9,4.3,2.7,6.3,2.5,6.4,4.9,12.8,9.4,18.3,1,1.3,2,2.5,3.5,3.2,.4,.2,.9,.3,1.4,.4,.1-.5,.4-.9,.4-1.4,0-8.8,0-17.5-.1-26.3,0-.3-.1-.9-.2-1-1.6-.4-3.3-1.3-4.8-1-2.7,.4-5.3,1.3-8,1.3-1.5,0-2.8,.2-4.3,.2Zm-15,23.6c0-.1,.1-.2,.1-.3-.2-.2-.4-.5-.7-.5-1.2-.2-2.5-.4-3.7-.4-2.5,.1-5,.6-7.6,.7-3.9,.1-7.7,.2-11.6,.1-3,0-6-.4-9-.4-5.6,0-10.8-1.5-16-3.6-1.6-.7-2.5-1.7-2.5-3.5,0-1-.5-1.3-1.4-1-2.1,.6-4.3,1.1-6.4,1.7-1.2,.3-2.4,.7-3.5,1.3-1.4,.7-1.6,2-.3,2.9,1.5,1.1,3.1,2.4,4.9,2.9,2.9,.8,6,1.1,9,1.4,5.3,.5,10.6,.9,16,1.2,2.5,.1,4.9-.1,7.4-.3,3.7-.3,7.5-.6,11.2-.9,4.3-.3,8.6-.6,13-1,.2-.2,.6-.2,1.1-.3Zm22.7-71.2c.5-.4,1.4-.6,1.7-1.2,1.7-2.7,1.9-7.7-2.2-9.4-1.7-.8-2.7,.1-3,1.7-.4,2.2-.6,4.5-.8,6.7,0,.4,.2,1,.5,1.1,1.2,.4,2.4,.7,3.8,1.1Zm-61.9,1.7c-1.6-.4-3.4-.8-5.1-1.2-.1,0-.3,.2-.5,.2,.1,.2,.2,.5,.4,.6,.5,.6,1.2,1.1,1.6,1.8,1.6,2.4,.6,4.6-1.6,5.1-.3,.1-.7,.6-.7,.9s.3,.8,.6,1c.9,.4,1.2,1.1,1.4,1.9,.2,1.6,.2,1.5,1.8,1.5,1.1,0,1.2-.5,1.2-1.4-.1-1.2-.2-2.5-.1-3.7,.3-2.2,.6-4.4,1-6.7Zm107.1,32.7c-2-2.5-3.7-4.6-5.4-6.8-.2-.2-.5-.2-.5-.2-.8,3.1-1.5,6.2-2.3,9.5,2.8-.9,5.4-1.6,8.2-2.5Zm55.2,45.6c-2.9-1.5-5.5-3-8.1-4.4v8.6c2.6-1.3,5.2-2.7,8.1-4.2ZM113.1,62.97c-.1,0-.2-.1-.3-.1-1.8,3.3-3.7,6.5-5.6,10,2.3,.5,4.3,.9,6.6,1.4-1.6-4-.9-7.7-.7-11.3Zm122.1,109.7c3.5-.4,6.8-.8,10.2-1.2-2-1.8-3.9-3.5-5.9-5.3-.1-.1-.7,0-.8,.2-1.3,2.1-2.4,4.2-3.5,6.3Zm-18.8-33.6v-.2c-5-.6-10.1-1.3-15.3-1.9,.2,.4,.3,.7,.5,.9,1.3,1.1,2.5,2.1,3.8,3.1,.3,.2,.9,.3,1.3,.2,3.3-.8,6.5-1.4,9.7-2.1Zm-64.6-43.3c.1,0,.2,.1,.4,.1,.2-.2,.4-.4,.5-.6,1.2-1.9,2.5-3.8,3.6-5.7,.2-.3,.1-.9-.1-1.2-.9-1.5-1.9-2.9-2.9-4.4-.2-.3-.5-.4-.9-.8-.2,4.4-.4,8.5-.6,12.6Zm-24.6-43.1c-.2,1.8-.2,3.4-.5,4.9-.2,1.1,.1,1.7,1.1,2.1,1.3,.5,2.6,.4,3.3-.3,1.2-1.3,.8-4.6-.7-5.5-.9-.5-2-.7-3.2-1.2Zm-12.6,44.9c1.5,2.3,3.8,4.2,5.2,4-1.7-1.5-3-3.3-5.2-4Zm-68.3,8.4c.2-.2,.3-.3,.5-.5-.3-.5-.5-1.1-.8-1.6-.3,.4-.6,.7-.9,1.1,.4,.3,.8,.7,1.2,1Z"/><path class="cls-1" d="M62.8,210.87c-1.1-.7-1.2-1.3-.3-2s1.9-1.2,2.8-1.9c.6-.4,1.4-.6,1.4-1.5,0-.2,.4-.5,.7-.6,5.1-1.6,8.6-5.5,12.9-8.4,2.3-1.6,4.6-3.3,6.9-4.9,2-1.4,4.1-2.6,6-4,.8-.6,1.5-1.5,2.2-2.3,.6-.7,1-1.7,2.1-1.9,.3-.1,.6-.5,.8-.8,2.6-4,5.3-7.9,7.7-12,1.1-1.8,1.5-4.1,2.2-5.7,.5,1.4,1.1,3.2,1.9,4.8,.7,1.5,1.4,2.9,2.3,4.2,2.1,3,2.9,6.5,3.9,10,1.7,5.6,3.4,11.2,5,16.8,.4,1.2,.8,2.4,1.3,3.6,2.1,5.1,3.5,10.3,4.7,15.6,.2,.8-.1,1.8-.1,2.6,0,.4-.1,.8-.2,1.3,0,1.7-1.4,2.7-2.9,2-1.9-.9-3.7-2-5.5-3-3.2-1.8-6.7-3-10.3-3.8-3.5-.8-7-2-10.5-2.6-5-.8-10-1.2-15-1.7-2.8-.3-5.6-.5-8.4-.8-.2,0-.5,0-.6-.1-.9-1.4-2.3-.8-3.4-.5-1.8,.5-3.5,0-5.3-.1h-.2c-1.5-1.5-2.5-.2-3.6,.6-5.9,4-12.1,7.8-18.6,10.9-.3,.2-.8-.1-1.3-.1,.2-.4,.2-1,.5-1.2,.5-.4,1.1-.7,1.7-1,6.3-3.1,12.2-6.8,17.9-10.7,.6-.2,.9-.5,1.3-.8Z"/></g></svg>