<?xml version="1.0" encoding="UTF-8"?><svg id="Layer_1" xmlns="http://www.w3.org/2000/svg" viewBox="0 0 264.2 264.2"><defs><style>.cls-1{fill:#fff;}.cls-2{fill:#1d1d1b;}</style></defs><circle class="cls-1" cx="132.1" cy="132.1" r="132.1"/><path class="cls-2" d="M47.02,136.66c22.36-1.07,44.75-1.55,67.13-1.43,22.38,.12,44.77,.84,67.11,2.16,12.53,.74,25.06,1.67,37.56,2.78,1.81,.16,4.06-.95,5.3-2.2s2.28-3.44,2.2-5.3c-.2-4.36-3.3-7.13-7.5-7.5-22.3-1.99-44.65-3.38-67.02-4.18-22.37-.79-44.76-.99-67.15-.58-12.55,.23-25.1,.64-37.64,1.25-3.91,.19-7.69,3.32-7.5,7.5,.17,3.9,3.3,7.7,7.5,7.5h0Z"/><path class="cls-2" d="M115.35,49c-1.48,20.97-1.95,42.02-1.4,63.04s2.1,41.85,4.66,62.64c1.5,12.23,3.31,24.43,5.46,36.56,.31,1.75,1.97,3.62,3.45,4.48,1.61,.94,3.98,1.34,5.78,.76s3.57-1.71,4.48-3.45c.99-1.88,1.13-3.69,.76-5.78-1.6-8.99-3-18.01-4.23-27.05l.27,1.99c-2.31-17.2-3.95-34.5-4.89-51.83-.94-17.33-1.19-34.7-.74-52.06,.25-9.78,.72-19.55,1.41-29.3,.28-3.92-3.65-7.67-7.5-7.5-4.3,.19-7.2,3.3-7.5,7.5h0Z"/></svg>