<?xml version="1.0" encoding="utf-8"?>
<!-- Generator: Adobe Illustrator 26.2.1, SVG Export Plug-In . SVG Version: 6.00 Build 0)  -->
<svg version="1.1" id="Layer_2" xmlns="http://www.w3.org/2000/svg" xmlns:xlink="http://www.w3.org/1999/xlink" x="0px" y="0px"
	 viewBox="0 0 133.13 167.24" style="enable-background:new 0 0 133.13 167.24;" xml:space="preserve">
<style type="text/css">
	.st0{opacity:0.3;fill:#1F00FC;}
	.st1{fill:#1F00FC;}
</style>
<path class="st0" d="M107.57,38.39l2.04-6.95c0,0,0.72-2.52-0.91-3.26L44.33,13.34c0,0-2.67-0.3-2.97,1.48
	c-0.3,1.78-27.9,121.4-27.9,121.4l63.51,15.13c0,0,4.24,0.67,5.38-2.19l4.58-19.51c0,0,18.32,4.78,25.48-10.35l13.74-58.28
	C126.14,61.02,129.15,44.95,107.57,38.39z M115.25,60.34l-12.77,55.16c-5.29,6.78-13.04,3.92-13.04,3.92l16.3-69.95
	C118.36,52.45,115.25,60.34,115.25,60.34z"/>
<path class="st1" d="M75.95,140.69l25.55-103.08c0,0-0.35-2.13-5.86-3.02c-5.5-0.89-44.62,1.31-46.29,0l-7.11-1.81l-22.89,97.18
	l52.43,13.29C71.78,143.26,75.23,143.46,75.95,140.69z"/>
</svg>
