<?xml version="1.0" encoding="utf-8"?>
<!-- Generator: Adobe Illustrator 26.5.0, SVG Export Plug-In . SVG Version: 6.00 Build 0)  -->
<svg version="1.1" id="Layer_2_00000092432688008682585110000011403403687187796614_"
	 xmlns="http://www.w3.org/2000/svg" xmlns:xlink="http://www.w3.org/1999/xlink" x="0px" y="0px" viewBox="0 0 133.1 167.2"
	 style="enable-background:new 0 0 133.1 167.2;" xml:space="preserve">
<style type="text/css">
	.st0{fill:#F7EBE3;enable-background:new    ;}
	.st1{fill:#2662B9;}
</style>
<path class="st0" d="M107.6,38.4l2-7c0,0,0.7-2.5-0.9-3.3L44.3,13.3c0,0-2.7-0.3-3,1.5c-0.3,1.8-27.9,121.4-27.9,121.4L77,151.3
	c0,0,4.2,0.7,5.4-2.2l4.6-19.5c0,0,18.3,4.8,25.5-10.3L126.2,61C126.1,61,129.1,44.9,107.6,38.4z M115.2,60.3l-12.8,55.2
	c-5.3,6.8-13,3.9-13,3.9l16.3-69.9C118.4,52.4,115.2,60.3,115.2,60.3z"/>
<path class="st1" d="M75.9,140.7l25.6-103.1c0,0-0.3-2.1-5.9-3c-5.5-0.9-44.6,1.3-46.3,0l-7.1-1.8L19.3,130l52.4,13.3
	C71.8,143.3,75.2,143.5,75.9,140.7z"/>
</svg>
