<?xml version="1.0" encoding="utf-8"?>
<!-- Generator: Adobe Illustrator 26.2.1, SVG Export Plug-In . SVG Version: 6.00 Build 0)  -->
<svg version="1.1" id="Layer_1" xmlns="http://www.w3.org/2000/svg" xmlns:xlink="http://www.w3.org/1999/xlink" x="0px" y="0px"
	 viewBox="0 0 130 160" style="enable-background:new 0 0 130 160;" xml:space="preserve">
<style type="text/css">
	.st0{fill:#A13700;}
	.st1{opacity:0.63;fill:#A13700;}
</style>
<path class="st0" d="M59.44,49.95c-0.17,0-0.34,0.04-0.49-0.01c-0.26-0.09-0.54-0.12-0.66-0.48c-0.09-0.29-0.27-0.55-0.27-0.88
	c0-0.06-0.02-0.15-0.07-0.18c-0.04-0.02-0.14-0.01-0.18,0.03c-0.74,0.71-1.62,1.26-2.39,1.93c-0.74,0.64-1.52,1.23-2.26,1.86
	c-0.21,0.18-0.43,0.33-0.64,0.5c-0.21,0.18-0.37,0.4-0.4,0.68c-0.03,0.25-0.17,0.36-0.42,0.34c-0.14-0.01-0.31,0.02-0.4-0.05
	c-0.19-0.15-0.19-0.01-0.17,0.1c0.04,0.26,0.08,0.53,0.18,0.77c0.26,0.59,0.33,1.23,0.51,1.84c0.18,0.61,0.34,1.23,0.48,1.85
	c0.2,0.9,0.51,1.78,0.69,2.69c0.16,0.81,0.38,1.62,0.61,2.43c0.09,0.32,0.14,0.65,0.21,0.97c0.11,0.47,0.22,0.94,0.34,1.41
	c0.16,0.64,0.38,1.27,0.49,1.91c0.11,0.64,0.33,1.24,0.48,1.86c0.31,1.32,0.88,2.58,1.09,3.93c0.44,0.94,0.52,1.99,0.84,2.97
	c0.26,0.79,0.46,1.6,0.72,2.39c0.15,0.48,0.34,0.94,0.54,1.4c0.12,0.28,0.19,0.55,0.17,0.85c-0.03,0.37-0.13,0.53-0.48,0.64
	c-0.07,0.02-0.16-0.02-0.24-0.04c-0.53-0.15-0.67-0.64-0.83-1.06c-0.34-0.87-0.62-1.77-0.91-2.67c-0.19-0.61-0.35-1.22-0.52-1.83
	c-0.18-0.63-0.34-1.27-0.51-1.91c-0.17-0.64-0.36-1.27-0.51-1.92c-0.15-0.65-0.4-1.3-0.57-1.95c-0.16-0.61-0.36-1.21-0.53-1.83
	c-0.18-0.63-0.35-1.27-0.51-1.91c-0.08-0.32-0.14-0.65-0.2-0.98c-0.08-0.46-0.21-0.91-0.32-1.35c-0.13-0.53-0.23-1.08-0.38-1.61
	c-0.18-0.64-0.32-1.29-0.47-1.93c-0.12-0.51-0.23-1.03-0.37-1.54c-0.17-0.61-0.34-1.23-0.48-1.86c-0.18-0.83-0.44-1.66-0.69-2.47
	c-0.22-0.71-0.35-1.45-0.63-2.14c-0.17-0.43-0.22-0.9-0.34-1.35c-0.21-0.81-0.42-1.62-0.62-2.43c-0.18-0.73-0.36-1.46-0.53-2.19
	c-0.19-0.82-0.37-1.64-0.51-2.46c-0.14-0.81-0.45-1.6-0.46-2.43c-0.24-0.24-0.09-0.56-0.2-0.84c-0.11-0.26-0.17-0.55-0.23-0.83
	c-0.06-0.28-0.02-0.62-0.16-0.85c-0.17-0.27,0.01-0.61-0.26-0.81c-0.03-0.79-0.35-1.52-0.44-2.3c-0.05-0.41-0.19-0.82-0.3-1.22
	c-0.1-0.36-0.16-0.73-0.24-1.09c-0.19-0.78-0.29-1.58-0.46-2.36c-0.08-0.38-0.16-0.78-0.24-1.16c-0.08-0.37-0.27-0.74-0.16-1.14
	c-0.28-0.28-0.08-0.69-0.26-1.03c-0.16-0.3-0.06-0.72-0.18-1.06c-0.25-0.73-0.21-1.54-0.55-2.24c-0.11-1.34-0.59-2.59-0.88-3.88
	c-0.21-0.95-0.55-1.9-0.77-2.85c-0.13-0.58-0.29-1.17-0.36-1.77c-0.08-0.77-0.32-1.51-0.47-2.27c-0.15-0.74-0.38-1.45-0.52-2.19
	c-0.11-0.56-0.21-1.12-0.36-1.68c-0.08-0.29-0.13-0.61-0.17-0.92c-0.1-0.73-0.34-1.42-0.5-2.13c-0.18-0.77-0.44-1.52-0.35-2.33
	c0.01-0.07-0.01-0.14,0-0.21c0.06-0.4,0.28-0.57,0.69-0.59c0.2-0.01,0.39,0.22,0.59,0.01c0.01-0.01,0.07,0.04,0.11,0.05
	c0.37,0.12,0.6,0.42,0.71,0.75c0.15,0.44,0.44,0.68,0.83,0.9c0.68,0.37,1.33,0.78,1.98,1.19c0.51,0.33,1.07,0.51,1.6,0.76
	c0.67,0.31,1.38,0.53,2.05,0.86c0.45,0.22,0.92,0.42,1.4,0.55c0.62,0.16,1.17,0.49,1.78,0.67c0.81,0.25,1.56,0.67,2.37,0.95
	c0.7,0.25,1.34,0.63,2.02,0.94c1.13,0.52,2.25,1.06,3.39,1.55c1.02,0.44,2,0.97,3.07,1.3c0.16,0.05,0.3,0.19,0.46,0.26
	c1.12,0.48,2.2,1.05,3.37,1.44c0.27,0.09,0.49,0.29,0.76,0.4c1.13,0.46,2.23,1,3.35,1.47c0.92,0.39,1.87,0.72,2.77,1.16
	c0.43,0.21,0.91,0.3,1.36,0.48c0.45,0.19,0.93,0.26,1.38,0.42c0.9,0.3,1.83,0.48,2.75,0.73c0.74,0.2,1.49,0.39,2.23,0.59
	c0.68,0.18,1.37,0.35,2.05,0.52c0.26,0.06,0.51,0.16,0.79,0.16c0.25,0,0.52,0.1,0.75,0.22c0.25,0.13,0.57-0.1,0.77,0.19
	c0.66-0.01,1.25,0.29,1.88,0.41c0.89,0.17,1.74,0.49,2.6,0.74c0.48,0.14,0.98,0.24,1.46,0.4c0.5,0.17,1.04,0.2,1.53,0.4
	c0.25,0.1,0.52,0.05,0.79,0.15c0.42,0.15,0.91,0.07,1.35,0.18c0.8,0.19,1.63,0.01,2.42,0.16c0.72,0.14,1.44,0.18,2.14,0.09
	c1.42-0.18,2.85,0.02,4.26-0.15c1.1-0.13,2.18-0.04,3.27-0.12c0.45-0.03,0.86,0.08,1.29,0.16c0.56,0.1,0.87,0.56,0.72,1.11
	c-0.08,0.28-0.31,0.47-0.61,0.59c-0.53,0.21-1.02,0.53-1.56,0.67c-0.62,0.16-1.1,0.55-1.64,0.84c-0.84,0.44-1.63,0.97-2.43,1.48
	c-1.13,0.73-2.32,1.34-3.51,1.97c-0.87,0.46-1.75,0.92-2.59,1.43c-0.95,0.57-1.92,1.1-2.82,1.74c-0.46,0.33-0.96,0.64-1.47,0.89
	c-0.7,0.35-1.3,0.85-1.95,1.27c-1.23,0.8-2.38,1.72-3.63,2.5c-0.77,0.48-1.57,0.87-2.41,1.19c-0.73,0.28-1.46,0.58-2.2,0.84
	c-0.93,0.32-1.85,0.68-2.83,0.87c-0.89,0.18-1.79,0.33-2.66,0.58c-0.92,0.26-1.86,0.52-2.75,0.87c-1.2,0.47-2.42,0.87-3.58,1.43
	c-0.59,0.29-1.24,0.46-1.78,0.82c-0.77,0.52-1.64,0.85-2.42,1.35c-0.74,0.48-1.61,0.77-2.42,1.16c-0.16,0.08-0.29,0.22-0.45,0.27
	c-0.7,0.26-1.35,0.62-2.02,0.93c-0.2,0.09-0.45,0.06-0.68,0.08C59.44,49.96,59.44,49.96,59.44,49.95z M52.1,47.7
	c-0.14-0.02-0.32,0.01-0.4-0.06c-0.3-0.27-0.66-0.53-0.74-0.96c-0.11-0.56-0.3-1.11-0.46-1.65c-0.1-0.34,0.01-0.73-0.25-1.02
	c0.01-0.54-0.35-1.02-0.28-1.58c-0.23-0.22-0.07-0.53-0.17-0.78c-0.33-0.8-0.41-1.66-0.65-2.48c-0.35-1.18-0.65-2.37-0.98-3.55
	c-0.26-0.94-0.38-1.91-0.61-2.86c-0.1-0.41-0.03-0.84-0.15-1.21c-0.23-0.71-0.17-1.46-0.39-2.17c-0.11-0.36-0.05-0.78-0.17-1.13
	c-0.1-0.29-0.05-0.59-0.15-0.86c-0.24-0.63-0.23-1.31-0.39-1.96c-0.1-0.37-0.21-0.75-0.15-1.14c-0.32-0.2-0.05-0.56-0.23-0.83
	c-0.16-0.24-0.19-0.6-0.18-0.9c0.01-0.31-0.1-0.57-0.16-0.86c-0.05-0.26-0.1-0.53-0.14-0.79c-0.05-0.38-0.02-0.79-0.16-1.14
	c-0.28-0.66-0.2-1.36-0.39-2.03c-0.12-0.41-0.05-0.87-0.17-1.27c-0.1-0.32-0.01-0.69-0.15-0.92c-0.17-0.27,0.01-0.57-0.17-0.78
	c-0.21-0.25,0.01-0.57-0.21-0.84c-0.15-0.18-0.09-0.52-0.17-0.77c-0.2-0.65-0.33-1.32-0.51-1.98c-0.18-0.66-0.39-1.31-0.48-2
	c-0.03-0.22-0.19-0.42-0.01-0.67c0.11-0.15-0.06-0.33-0.2-0.4c-0.8-0.38-1.54-0.86-2.25-1.4c-0.04-0.03-0.15-0.02-0.18,0.01
	c-0.04,0.03-0.06,0.13-0.04,0.18c0.3,0.7,0.44,1.43,0.57,2.17c0.05,0.26,0.02,0.58,0.15,0.78c0.16,0.26,0,0.56,0.14,0.72
	c0.19,0.21,0.05,0.44,0.17,0.65c0.12,0.2,0.22,0.45,0.21,0.68c0,0.42,0.18,0.77,0.29,1.16c0.11,0.4,0.16,0.82,0.27,1.23
	c0.2,0.77,0.26,1.59,0.46,2.36c0.13,0.51,0.23,1.03,0.35,1.54c0.15,0.64,0.37,1.27,0.5,1.92c0.08,0.41,0.15,0.84,0.3,1.22
	c0.27,0.69,0.36,1.41,0.53,2.11c0.11,0.47,0.19,0.96,0.32,1.43c0.23,0.84,0.35,1.69,0.54,2.53c0.07,0.29,0.05,0.61,0.16,0.85
	c0.11,0.23,0.07,0.45,0.11,0.66c0.04,0.19,0.09,0.38,0.14,0.58c0.05,0.22,0.1,0.43,0.14,0.65c0.05,0.31,0.13,0.62,0.14,0.93
	c0.01,0.32,0.14,0.61,0.18,0.93c0.04,0.26,0.02,0.56,0.13,0.78c0.24,0.49,0.29,1.03,0.37,1.54c0.09,0.57,0.39,1.11,0.31,1.72
	c0.39,0.83,0.43,1.75,0.68,2.61c0.14,0.5,0.38,1.02,0.31,1.57c0.28,0.47,0.26,1.02,0.4,1.53c0.11,0.4,0.17,0.83,0.22,1.26
	c0.05,0.42,0.14,0.85,0.26,1.24c0.1,0.32,0.11,0.65,0.2,0.97c0.13,0.46,0.26,0.94,0.32,1.42c0.04,0.31,0.01,0.68,0.18,0.91
	c0.21,0.29,0.09,0.61,0.2,0.91c0.13,0.36,0.27,0.75,0.34,1.13c0.18,1,0.55,1.95,0.72,2.96c0.01,0.08,0.12,0.14,0.18,0.21
	c0.03-0.06,0.07-0.12,0.1-0.18c0.18-0.36,0.44-0.67,0.76-0.87c0.2-0.13,0.36-0.27,0.53-0.42c0.42-0.36,0.8-0.78,1.25-1.09
	c0.73-0.51,1.34-1.15,2.06-1.67c0.57-0.41,1.08-0.91,1.65-1.33c0.3-0.22,0.64-0.39,0.97-0.55c0.14-0.07,0.32-0.1,0.46-0.07
	c0.42,0.08,0.8,0.59,0.81,1.04c0.01,0.24,0,0.47,0,0.71c0,0.18,0.14,0.29,0.31,0.22c0.14-0.06,0.27-0.15,0.41-0.22
	c0.87-0.47,1.77-0.85,2.64-1.32c1-0.54,2.04-1,3.04-1.56c0.93-0.52,1.93-0.92,2.87-1.43c0.97-0.52,2.05-0.75,3.02-1.25
	c0.5-0.25,1.07-0.37,1.62-0.54c0.52-0.16,1.06-0.29,1.57-0.47c0.55-0.19,1.12-0.22,1.67-0.41c0.23-0.08,0.48-0.09,0.72-0.15
	c0.52-0.12,1.04-0.23,1.55-0.37c0.59-0.16,1.16-0.39,1.73-0.61c0.61-0.23,1.21-0.52,1.83-0.71c0.64-0.19,1.21-0.51,1.8-0.78
	c0.94-0.42,1.71-1.1,2.58-1.62c0.32-0.19,0.6-0.46,0.94-0.64c0.34-0.17,0.6-0.46,0.93-0.66c0.78-0.48,1.51-1.02,2.27-1.53
	c0.35-0.23,0.7-0.47,1.08-0.65c0.68-0.32,1.29-0.76,1.93-1.13c0.99-0.58,1.98-1.13,2.99-1.68c0.75-0.4,1.51-0.8,2.25-1.23
	c0.44-0.26,0.89-0.47,1.32-0.75c0.73-0.49,1.51-0.9,2.26-1.37c0.58-0.36,1.13-0.77,1.78-1c0.02-0.01,0.04-0.03,0.05-0.05
	c0.01-0.04,0.02-0.09,0.01-0.13c-0.01-0.03-0.05-0.05-0.08-0.07c-0.16,0.22-0.39,0.11-0.59,0.12c-0.42,0.02-0.85,0.02-1.27,0
	c-0.28-0.02-0.48,0.07-0.67,0.28c-0.52,0.58-1.17,1-1.82,1.4c-0.39,0.24-0.83,0.41-1.21,0.66c-1.25,0.83-2.54,1.6-3.87,2.28
	c-0.42,0.22-0.8,0.56-1.3,0.62c-0.62,0.51-1.37,0.8-2.06,1.19c-1.24,0.69-2.53,1.28-3.84,1.84c-0.42,0.18-0.84,0.37-1.27,0.53
	c-0.55,0.21-1.13,0.36-1.66,0.6c-0.96,0.42-1.98,0.68-2.95,1.08c-0.26,0.11-0.53,0.26-0.8,0.27c-0.79,0.03-1.5,0.47-2.3,0.44
	c-0.17,0.29-0.52,0.04-0.75,0.26c-0.15,0.14-0.46,0.11-0.7,0.16c-0.26,0.05-0.53,0.08-0.79,0.15c-0.47,0.12-0.94,0.24-1.4,0.39
	c-1.19,0.38-2.38,0.75-3.55,1.17c-0.96,0.34-1.92,0.71-2.86,1.13c-0.72,0.32-1.38,0.76-2.09,1.12c-0.86,0.44-1.67,0.99-2.49,1.49
	c-0.79,0.48-1.54,1.01-2.42,1.35c-0.58,0.22-1.49,0.05-1.81-0.47c-0.42-0.67-0.87-1.32-1.22-2.04c-0.13-0.27-0.29-0.54-0.47-0.8
	c-0.16-0.23-0.16-0.2-0.33-0.04c-0.86,0.81-1.58,1.75-2.33,2.65c-0.26,0.32-0.58,0.59-0.8,0.93c-0.57,0.89-1.25,1.69-2.02,2.42
	C52.66,47.59,52.41,47.71,52.1,47.7z"/>
<circle class="st1" cx="58.9" cy="80" r="26.93"/>
</svg>
