<?xml version="1.0" encoding="utf-8"?>
<!-- Generator: Adobe Illustrator 26.2.1, SVG Export Plug-In . SVG Version: 6.00 Build 0)  -->
<svg version="1.1" id="Layer_1" xmlns="http://www.w3.org/2000/svg" xmlns:xlink="http://www.w3.org/1999/xlink" x="0px" y="0px"
	 viewBox="0 0 362.73 295.09" style="enable-background:new 0 0 362.73 295.09;" xml:space="preserve">
<style type="text/css">
	.st0{fill:#FFFFFF;}
</style>
<circle class="st0" cx="176.79" cy="147.55" r="132.1"/>
<path d="M143.82,205.46c-1.41,0.36-2.37,0.9-3.25,0.78c-3.06-0.42-6.06-1.23-9.13-1.58c-7.39-0.83-14.73-1.64-22.25-1.31
	c-9.81,0.44-19.69,0.14-29.17-3.27c-4.36-1.57-5.75-3.14-6.08-7.67c-0.47-6.49-1.14-12.97-1.56-19.47
	c-0.24-3.82-0.04-7.66-0.22-11.48c-0.26-5.53-0.76-11.05-1.01-16.59c-0.29-6.45-0.57-12.92-0.56-19.37c0.01-2.65,0.21-5.3,0.2-7.97
	c-0.02-3.23,1.14-6.45,1.29-9.7c0.14-3.14-0.35-6.31-0.56-9.47c-0.1-1.51-0.33-3.03-0.26-4.54c0.03-0.69,0.47-1.52,0.99-2.01
	c1.98-1.88,4.1-3.62,6.08-5.5c0.3-0.29,0.29-1.06,0.21-1.58c-0.61-4.04,1.07-7.4,4.87-9c5.26-2.21,10.75-2.55,16.34-1.56
	c1.43,0.25,2.86,0.51,4.28,0.82c2.38,0.52,3.62,2.27,4.37,4.38c0.47,1.33,1.3,1.81,2.63,1.94c2.83,0.27,5.64,0.77,8.47,0.92
	c1.09,0.06,2.33-0.38,3.3-0.93c3.52-2.02,7.31-3.13,11.32-3.11c4.72,0.03,9.44,0.41,14.17,0.64c0.2,0.01,0.43,0.13,0.59,0.06
	c2.63-1.16,4.19,0.4,5.76,2.56c0.61-0.85,1.17-1.46,1.53-2.17c0.59-1.15,1.43-1.41,2.63-1.11c1.34,0.34,2.81,1.04,4.05,0.78
	c2.8-0.58,5.12,0.71,7.66,1.22c14.27,2.89,28.74,4.24,43.24,5.49c7.63,0.66,15.19,2.13,22.82,2.81c9.61,0.85,19.25,1.27,28.88,1.89
	c0.99,0.06,1.99,0.14,2.94,0.39c0.81,0.22,1.94,0.51,2.23,1.1c1.26,2.52,3.39,4.65,3.38,7.75c-0.03,9.38,0,18.76,0.03,28.14
	c0,0.51-0.03,1.27,0.27,1.49c1.82,1.36,1.42,3.21,1.42,5.06c0,8.98,0.07,17.95,0.11,26.93c0.02,4.3-0.02,8.59,0.03,12.89
	c0.11,9.18,0.3,18.36,0.35,27.55c0.02,3.11-0.18,6.27-2.2,8.88c-1.04,1.35-2.22,2.62-3.48,3.76c-1.17,1.06-2.67,1.76-3.8,2.85
	c-4.48,4.32-9.81,4.73-15.66,4.02c-9.37-1.13-18.79-1.8-28.18-2.81c-6.9-0.74-13.77-1.71-20.65-2.56c-2.71-0.34-5.28-0.06-7.96,0.76
	c-3.44,1.06-7.08,1.6-10.68,1.96c-5.99,0.6-11.99,0.68-17.99-0.22c-7.49-1.13-13.72-4.55-19-9.87
	C145.54,207.36,144.54,206.23,143.82,205.46z M271,103.73c-0.74,0.51-1.03,0.65-1.25,0.87c-2.78,2.85-6.26,4.31-10.14,4.31
	c-4.14,0-8.32-0.25-12.42-0.82c-13.67-1.92-27.29-4.26-40.98-6.01c-13.24-1.69-26.53-2.98-39.82-4.21c-6.49-0.6-13.03-0.71-19.55-1
	c-1.98-0.09-3.47,0.76-4.69,2.42c-2.36,3.24-5.39,5.54-9.68,5.12c-2.95-0.29-5.91-0.7-8.81-1.31c-5.68-1.21-11.37-1.32-17.13-0.77
	c-4.19,0.4-8.45,0.82-12.62,0.5c-6.78-0.52-13.6-1.36-19.18-5.97c-0.06-0.05-0.24,0.02-0.4,0.05c-0.05,0.18-0.16,0.37-0.13,0.54
	c1.05,5.9,1.29,11.79,0.22,17.74c-0.13,0.71,0.53,1.93,1.18,2.36c2.78,1.79,5.87,2.78,9.19,3.13c5.25,0.54,10.47,1.34,15.73,1.73
	c5.92,0.44,11.89,0.36,17.81,0.84c8.49,0.7,16.96,1.67,25.43,2.58c3.21,0.34,6.32,0.7,9.13-1.59c0.97-0.79,2.41-1.04,3.65-1.49
	c6.37-2.3,12.98-2.06,19.6-1.94c5.14,0.09,9.91,1.13,14.32,3.92c6.19,3.9,12.5,7.62,18.13,11.03c1.56-0.39,2.62-0.96,3.59-0.84
	c5.5,0.69,10.97,1.55,16.46,2.34c7.1,1.02,14.21,1.6,21.4,1.63c6.53,0.03,12.48-1.09,17.33-5.82c0.56-0.55,1.24-1.01,1.93-1.39
	c1.31-0.73,1.73-1.77,1.72-3.26c-0.07-5.42-0.02-10.84-0.01-16.26C271,109.49,271,106.86,271,103.73z M176.86,215.76
	c1.06,0,2.13,0.12,3.16-0.02c4.5-0.63,9.27-0.59,13.41-2.17c8.9-3.39,14.24-10.8,16.62-19.56c3.12-11.49,2.06-22.75-6.39-32.19
	c-3.16-3.54-6.31-7.14-9.89-10.24c-3.62-3.14-7.75-5.68-11.67-8.48c-4.01-2.86-9.07-1.97-13.4-3.68c-0.18-0.07-0.39-0.07-0.59-0.1
	c-6.82-0.84-13.49-0.57-19.72,2.74c-8.64,4.6-15.21,11.03-17.37,20.93c-1.22,5.62-0.66,11.36,0.47,16.94
	c0.62,3.04,1.71,6.2,3.41,8.77c3.23,4.89,6.96,9.47,10.67,14.03c1.91,2.34,4.09,4.51,6.41,6.45
	C159.22,215.23,167.9,216.13,176.86,215.76z M139.29,143.77c0.1,0.08,0.19,0.16,0.29,0.23c0.46-0.32,0.94-0.62,1.39-0.95
	c6.68-4.89,14.07-7.48,22.44-6.85c1.71,0.13,3.42,0.36,5.13,0.41c5.64,0.14,10.9,1.63,15.84,4.31c6.76,3.67,12.47,8.7,17.67,14.27
	c4.37,4.68,8.74,9.56,10.59,15.87c2.42,8.26,2.54,16.65,0.16,25c-0.11,0.39-0.15,0.81-0.23,1.21c2.14-2.35,3.98-4.83,5.73-7.38
	c3.08-4.49,4.46-9.38,3.44-14.84c-0.31-1.68-0.47-3.41-0.57-5.12c-0.44-7.35-1.9-14.38-5.86-20.75c-2.7-4.33-5.19-8.84-9.66-11.63
	c-6.22-3.89-12.48-7.72-18.87-11.32c-2.07-1.16-4.57-1.9-6.93-2.1c-4.53-0.39-9.14-0.61-13.66-0.26
	c-9.16,0.71-17.09,3.93-22.07,12.32c-1.21,2.04-2.64,3.96-3.94,5.95C139.85,142.65,139.59,143.23,139.29,143.77z M139.01,97.06
	c2.22-1.12,4-2.33,5.97-2.92c1.79-0.54,3.81-0.67,5.69-0.53c6.98,0.52,13.95,1.18,20.92,1.86c10.39,1.01,20.79,1.95,31.16,3.14
	c8.27,0.95,16.51,2.19,24.75,3.38c8.43,1.22,16.85,2.57,25.28,3.81c3.83,0.56,7.75,0.77,11.31-0.98c4.86-2.4,6.1-4.42,5.3-8.52
	c-0.34-1.76-1.08-2.75-2.91-2.86c-3.5-0.22-6.99-0.47-10.48-0.7c-7.38-0.49-14.79-0.79-22.15-1.5c-11.97-1.16-23.91-2.56-35.86-3.94
	c-1.5-0.17-2.38,0.17-3.31,1.4c-2.56,3.39-5.6,5.58-10.34,4.48c-2.99-0.69-6.17-0.63-9.27-0.78c-5.21-0.25-10.44-0.36-15.65-0.64
	c-0.8-0.04-1.96-0.53-2.26-1.15c-0.31-0.63-0.02-1.85,0.44-2.51c0.9-1.29,2.1-2.36,3.17-3.53c0.69-0.75,1.36-1.51,2.04-2.26
	c-0.06-0.19-0.12-0.38-0.17-0.57c-1.46-0.09-3.24-0.75-4.29-0.14c-1.34,0.78-2.09,2.57-3.1,3.93c-0.54,0.72-0.94,1.7-1.66,2.12
	c-3.19,1.84-6.49,3.47-9.72,5.26c-1.43,0.79-2.81,1.69-4.12,2.66C139.37,95.84,139.26,96.53,139.01,97.06z M192.34,87.07
	c-0.34-0.24-0.44-0.36-0.55-0.38c-8.06-1.33-16.13-2.67-24.19-3.97c-0.41-0.07-1.02,0.01-1.28,0.27c-1.66,1.74-3.24,3.55-5.09,5.6
	c0.91,0.09,1.46,0.17,2.02,0.21c7.43,0.53,14.88,0.83,22.27,1.68C188.83,90.87,190.5,89.32,192.34,87.07z M123.86,84.22
	c1.37,0.93,2.23,2.02,3.16,2.08c4.72,0.28,9.47,0.49,14.19,0.34c3.21-0.1,6.41-0.77,9.58-1.32c0.58-0.1,1.52-0.92,1.47-1.27
	c-0.1-0.67-0.71-1.4-1.3-1.81c-0.56-0.39-1.37-0.45-2.08-0.55c-1.57-0.23-3.15-0.36-4.72-0.59c-5.92-0.85-11.73-0.51-17.37,1.58
	C125.91,83,125.1,83.55,123.86,84.22z M89.15,90.65c-2.54-0.5-4.86-0.6-6.85-1.45c-1.7-0.73-2.61-0.4-3.76,0.76
	c-3.64,3.69-3.66,4.58,1.13,6.73c7.26,3.25,14.97,3.67,22.77,2.92c-1.96-0.19-3.94-0.12-5.91-0.21c-4.96-0.23-7.5-2.98-7.38-7.85
	C89.16,91.17,89.15,90.79,89.15,90.65z M102.07,82.51c-3.27,2.05-6.05,3.79-8.78,5.5c0.12,0.34,0.12,0.43,0.16,0.46
	c3.27,2.35,13.64,2.65,17.06,0.46c0.35-0.23,0.83-0.76,0.76-1.02c-0.1-0.4-0.58-0.87-0.99-1.01c-1.81-0.58-3.64-1.15-5.5-1.54
	C103.41,85.07,102.11,84.89,102.07,82.51z M137.51,99.52c-1.04,0-1.69,0.04-2.33-0.01c-4-0.32-8.05-0.33-11.97-1.06
	c-6-1.13-8.25-5.77-6.01-11.48c0.23-0.58,0.45-1.16,0.77-1.98c-1.71-0.19-3.15-0.36-4.82-0.54c2.22,3.02,2.92,10.38-1.12,14.37
	c0.61,0.07,1.11,0.13,1.6,0.18c3.4,0.35,6.82,0.63,10.21,1.05c3,0.37,5.98,1.01,8.99,1.31C134.44,101.52,136.11,101.31,137.51,99.52
	z M83.55,79.41c0.43,0.2,0.83,0.55,1.22,0.55c5.37,0.04,10.75,0.11,16.12-0.02c0.84-0.02,1.67-0.94,2.68-1.56
	C98.81,75.48,86.78,76.21,83.55,79.41z"/>
<path class="st0" d="M271,103.73c0,3.13,0,5.76,0,8.39c0,5.42-0.06,10.84,0.01,16.26c0.02,1.49-0.4,2.53-1.72,3.26
	c-0.69,0.38-1.37,0.84-1.93,1.39c-4.85,4.73-10.8,5.86-17.33,5.82c-7.19-0.03-14.3-0.61-21.4-1.63c-5.48-0.79-10.96-1.65-16.46-2.34
	c-0.97-0.12-2.03,0.45-3.59,0.84c-5.63-3.41-11.94-7.13-18.13-11.03c-4.41-2.78-9.18-3.83-14.32-3.92
	c-6.62-0.11-13.23-0.36-19.6,1.94c-1.24,0.45-2.67,0.7-3.65,1.49c-2.81,2.29-5.92,1.93-9.13,1.59c-8.47-0.91-16.94-1.89-25.43-2.58
	c-5.92-0.48-11.88-0.4-17.81-0.84c-5.26-0.39-10.48-1.18-15.73-1.73c-3.32-0.34-6.41-1.33-9.19-3.13c-0.65-0.42-1.31-1.64-1.18-2.36
	c1.07-5.94,0.83-11.84-0.22-17.74c-0.03-0.17,0.09-0.37,0.13-0.54c0.16-0.02,0.33-0.1,0.4-0.05c5.57,4.61,12.39,5.45,19.18,5.97
	c4.17,0.32,8.43-0.1,12.62-0.5c5.77-0.55,11.45-0.44,17.13,0.77c2.9,0.62,5.86,1.02,8.81,1.31c4.3,0.42,7.32-1.87,9.68-5.12
	c1.21-1.66,2.7-2.51,4.69-2.42c6.52,0.29,13.06,0.39,19.55,1c13.29,1.24,26.58,2.52,39.82,4.21c13.69,1.75,27.31,4.09,40.98,6.01
	c4.1,0.58,8.27,0.83,12.42,0.82c3.88,0,7.36-1.46,10.14-4.31C269.97,104.38,270.26,104.24,271,103.73z M209.66,110.24
	c0.02,0.52,0.07,0.9,0.05,1.27c-0.24,5.46-0.53,10.92-0.7,16.39c-0.07,2.38,0.94,3.57,3.18,3.71c4.68,0.29,9.4,0.91,14.04,0.52
	c6.03-0.51,11.8,0.99,17.7,1.34c2.02,0.12,2.78-0.2,3.14-2.21c0.37-2.07,0.99-4.14,1.08-6.22c0.16-4.07,0.04-8.15-0.01-12.22
	c-0.03-2.29-0.83-3.03-3.15-3.09c-2.31-0.07-4.63-0.02-6.92-0.24c-7.09-0.69-14.17-1.5-21.25-2.25c-1.44-0.15-3.06,0.46-4.2-1.02
	c-0.14-0.18-0.64-0.2-0.93-0.12c-1.48,0.37-2.97,0.71-4.39,1.25c-0.55,0.21-0.89,0.94-1.32,1.44c0.5,0.43,0.93,1.03,1.51,1.26
	C208.11,110.29,208.87,110.19,209.66,110.24z M164.62,103.2c0-0.01,0-0.02,0-0.03c-1.64-0.1-3.29-0.3-4.92-0.23
	c-0.5,0.02-1.28,0.73-1.39,1.25c-0.43,2.06,1.69,4.89,3.76,5.24c2.15,0.37,4.28,0.79,6.44,1.09c3.85,0.54,7.7,1.12,11.58,1.45
	c0.9,0.08,2.41-0.51,2.75-1.21c1.97-4.16,0.76-6.14-3.8-6.66c-0.2-0.02-0.39-0.04-0.59-0.05
	C173.84,103.76,169.23,103.48,164.62,103.2z M99.63,115.35c2.13-0.14,4.63-0.25,7.12-0.49c2.15-0.22,2.99-1.58,2.74-4.17
	c-0.21-2.21-0.89-2.79-3.24-2.63c-5.02,0.33-9.99,0.28-14.93-0.89c-4.19-0.99-4.31-0.78-4.2,3.56c0.07,2.95,0.93,3.9,3.85,4.11
	C93.72,115.04,96.49,115.17,99.63,115.35z M127.49,121.91c3.53-0.02,6.34-2.57,6.33-5.75c-0.01-4.67-3.27-7.86-8.09-7.91
	c-3.48-0.04-6.28,2.62-6.33,6.01C119.34,118.22,123.26,121.93,127.49,121.91z M149.15,100.9c-3.18,0.22-5.39,2-5.22,4.21
	c0.13,1.68,1.75,2.98,3.62,2.89c2.44-0.11,4.04-2.3,3.85-5.22C151.31,101.32,150.72,100.55,149.15,100.9z"/>
<path class="st0" d="M176.86,215.76c-8.96,0.37-17.64-0.53-24.86-6.58c-2.32-1.94-4.5-4.11-6.41-6.45
	c-3.72-4.55-7.44-9.14-10.67-14.03c-1.7-2.57-2.8-5.73-3.41-8.77c-1.13-5.57-1.69-11.32-0.47-16.94
	c2.16-9.89,8.73-16.33,17.37-20.93c6.22-3.31,12.9-3.58,19.72-2.74c0.2,0.02,0.41,0.02,0.59,0.1c4.33,1.71,9.39,0.82,13.4,3.68
	c3.92,2.79,8.05,5.34,11.67,8.48c3.57,3.09,6.72,6.7,9.89,10.24c8.45,9.44,9.51,20.71,6.39,32.19c-2.38,8.76-7.72,16.17-16.62,19.56
	c-4.15,1.58-8.91,1.54-13.41,2.17C178.99,215.89,177.92,215.76,176.86,215.76z M189.12,171.26c-0.55-0.74-1.12-1.72-1.89-2.48
	c-2.27-2.21-4.59-4.37-6.99-6.44c-0.45-0.39-1.38-0.16-2.06-0.33c-0.43-0.11-0.81-0.42-1.19-0.68c-8.97-6.25-20.39-6.11-29.22,0.03
	c-10.15,7.05-9.2,20.06-3.68,28.09c3,4.37,7.03,8.04,10.7,11.93c2.78,2.95,6.19,5.18,10.21,5.71c4.55,0.61,9.19,0.63,13.79,0.81
	c5.62,0.22,10.83-1.33,15.77-3.9c6.45-3.35,9.62-9.29,7.92-15.63c-1.84-6.86-6.17-12.16-11.54-16.66
	C190.55,171.39,189.86,171.43,189.12,171.26z"/>
<path class="st0" d="M139.29,143.77c0.29-0.55,0.55-1.12,0.89-1.63c1.31-1.99,2.73-3.9,3.94-5.95c4.98-8.4,12.91-11.61,22.07-12.32
	c4.52-0.35,9.13-0.13,13.66,0.26c2.36,0.2,4.87,0.94,6.93,2.1c6.39,3.59,12.65,7.43,18.87,11.32c4.47,2.79,6.96,7.3,9.66,11.63
	c3.97,6.37,5.42,13.4,5.86,20.75c0.1,1.71,0.26,3.43,0.57,5.12c1.02,5.47-0.36,10.36-3.44,14.84c-1.75,2.55-3.59,5.03-5.73,7.38
	c0.07-0.4,0.11-0.82,0.23-1.21c2.37-8.35,2.26-16.74-0.16-25c-1.85-6.31-6.22-11.18-10.59-15.87c-5.19-5.57-10.91-10.59-17.67-14.27
	c-4.93-2.68-10.2-4.17-15.84-4.31c-1.71-0.04-3.42-0.28-5.13-0.41c-8.37-0.63-15.76,1.96-22.44,6.85c-0.45,0.33-0.93,0.64-1.39,0.95
	C139.49,143.93,139.39,143.85,139.29,143.77z"/>
<path class="st0" d="M139.01,97.06c0.25-0.53,0.35-1.22,0.75-1.52c1.31-0.97,2.69-1.87,4.12-2.66c3.22-1.78,6.53-3.42,9.72-5.26
	c0.72-0.42,1.12-1.39,1.66-2.12c1.01-1.35,1.76-3.15,3.1-3.93c1.05-0.61,2.83,0.05,4.29,0.14c0.06,0.19,0.12,0.38,0.17,0.57
	c-0.68,0.75-1.36,1.51-2.04,2.26c-1.07,1.17-2.27,2.24-3.17,3.53c-0.46,0.66-0.75,1.88-0.44,2.51c0.3,0.62,1.45,1.1,2.26,1.15
	c5.21,0.28,10.43,0.39,15.65,0.64c3.1,0.15,6.28,0.09,9.27,0.78c4.74,1.1,7.78-1.09,10.34-4.48c0.93-1.22,1.81-1.57,3.31-1.4
	c11.94,1.38,23.89,2.78,35.86,3.94c7.36,0.71,14.77,1.01,22.15,1.5c3.49,0.23,6.99,0.48,10.48,0.7c1.82,0.11,2.56,1.1,2.91,2.86
	c0.8,4.1-0.44,6.12-5.3,8.52c-3.55,1.75-7.47,1.54-11.31,0.98c-8.43-1.24-16.85-2.59-25.28-3.81c-8.24-1.19-16.48-2.43-24.75-3.38
	c-10.37-1.19-20.77-2.13-31.16-3.14c-6.97-0.67-13.94-1.34-20.92-1.86c-1.88-0.14-3.9-0.01-5.69,0.53
	C143.01,94.73,141.23,95.94,139.01,97.06z"/>
<path class="st0" d="M192.34,87.07c-1.84,2.24-3.51,3.8-6.82,3.41c-7.39-0.86-14.84-1.15-22.27-1.68c-0.56-0.04-1.11-0.11-2.02-0.21
	c1.85-2.05,3.43-3.86,5.09-5.6c0.25-0.26,0.87-0.34,1.28-0.27c8.07,1.3,16.13,2.63,24.19,3.97C191.91,86.71,192,86.83,192.34,87.07z
	"/>
<path class="st0" d="M123.86,84.22c1.24-0.66,2.05-1.22,2.94-1.55c5.64-2.1,11.45-2.44,17.37-1.58c1.57,0.23,3.15,0.36,4.72,0.59
	c0.71,0.1,1.52,0.17,2.08,0.55c0.6,0.41,1.2,1.14,1.3,1.81c0.05,0.36-0.89,1.17-1.47,1.27c-3.18,0.55-6.38,1.22-9.58,1.32
	c-4.72,0.15-9.47-0.06-14.19-0.34C126.1,86.24,125.23,85.15,123.86,84.22z"/>
<path class="st0" d="M89.15,90.65c0,0.14,0.01,0.52,0,0.9c-0.12,4.88,2.42,7.62,7.38,7.85c1.97,0.09,3.95,0.02,5.91,0.21
	c-7.8,0.75-15.51,0.33-22.77-2.92c-4.79-2.15-4.78-3.04-1.13-6.73c1.14-1.16,2.05-1.49,3.76-0.76
	C84.29,90.06,86.61,90.16,89.15,90.65z"/>
<path class="st0" d="M102.07,82.51c0.04,2.38,1.34,2.56,2.7,2.85c1.86,0.39,3.69,0.96,5.5,1.54c0.41,0.13,0.89,0.6,0.99,1.01
	c0.07,0.27-0.41,0.8-0.76,1.02c-3.41,2.19-13.78,1.89-17.06-0.46c-0.04-0.03-0.04-0.12-0.16-0.46
	C96.02,86.3,98.8,84.56,102.07,82.51z"/>
<path class="st0" d="M137.51,99.52c-1.4,1.79-3.08,2.01-4.68,1.84c-3.01-0.31-5.98-0.94-8.99-1.31c-3.39-0.42-6.81-0.71-10.21-1.05
	c-0.49-0.05-0.99-0.11-1.6-0.18c4.04-3.98,3.34-11.35,1.12-14.37c1.66,0.19,3.11,0.35,4.82,0.54c-0.32,0.82-0.54,1.4-0.77,1.98
	c-2.25,5.71,0.01,10.35,6.01,11.48c3.92,0.74,7.98,0.75,11.97,1.06C135.83,99.56,136.48,99.52,137.51,99.52z"/>
<path class="st0" d="M83.55,79.41c3.23-3.2,15.26-3.93,20.02-1.02c-1.01,0.61-1.84,1.54-2.68,1.56c-5.37,0.12-10.75,0.06-16.12,0.02
	C84.37,79.96,83.98,79.61,83.55,79.41z"/>
<path d="M209.66,110.24c-0.79-0.06-1.55,0.04-2.19-0.2c-0.58-0.22-1.01-0.82-1.51-1.26c0.44-0.49,0.78-1.23,1.32-1.44
	c1.41-0.54,2.91-0.88,4.39-1.25c0.29-0.07,0.79-0.06,0.93,0.12c1.15,1.48,2.76,0.86,4.2,1.02c7.08,0.75,14.16,1.55,21.25,2.25
	c2.29,0.22,4.61,0.17,6.92,0.24c2.32,0.07,3.12,0.8,3.15,3.09c0.05,4.08,0.17,8.16,0.01,12.22c-0.08,2.08-0.71,4.15-1.08,6.22
	c-0.36,2.01-1.11,2.33-3.14,2.21c-5.9-0.35-11.67-1.85-17.7-1.34c-4.63,0.39-9.36-0.23-14.04-0.52c-2.24-0.14-3.26-1.33-3.18-3.71
	c0.17-5.46,0.46-10.92,0.7-16.39C209.73,111.14,209.68,110.76,209.66,110.24z M211.68,121.19c0.12,0.01,0.24,0.02,0.36,0.02
	c0,1.85,0.07,3.7-0.02,5.54c-0.08,1.45,0.46,2,1.92,2.01c5.21,0.06,10.43,0.05,15.63,0.36c4.26,0.25,8.51,0.85,12.75,1.4
	c1.42,0.18,1.88-0.19,2.19-1.65c1-4.75,1.28-9.48,0.65-14.31c-0.19-1.43-0.51-1.84-1.96-1.92c-3.81-0.23-7.61-0.73-11.41-1.07
	c-5.78-0.51-11.57-0.96-17.35-1.46c-1.26-0.11-1.81,0.42-1.91,1.64C212.25,114.9,211.96,118.04,211.68,121.19z"/>
<path d="M164.62,103.2c4.61,0.28,9.21,0.56,13.82,0.84c0.2,0.01,0.39,0.03,0.59,0.05c4.56,0.52,5.77,2.49,3.8,6.66
	c-0.33,0.71-1.84,1.29-2.75,1.21c-3.87-0.33-7.72-0.91-11.58-1.45c-2.15-0.3-4.29-0.73-6.44-1.09c-2.07-0.35-4.2-3.18-3.76-5.24
	c0.11-0.51,0.89-1.22,1.39-1.25c1.63-0.07,3.28,0.13,4.92,0.23C164.62,103.18,164.62,103.19,164.62,103.2z M162.68,105.81
	c-0.03,0.26-0.06,0.52-0.1,0.78c5.26,0.74,10.52,1.51,15.8,2.17c0.59,0.07,1.25-0.46,1.88-0.71c-0.61-0.35-1.19-0.95-1.82-1.02
	c-4.08-0.4-8.16-0.69-12.25-1C165.02,105.94,163.85,105.88,162.68,105.81z"/>
<path d="M99.63,115.35c-3.14-0.18-5.91-0.31-8.66-0.52c-2.92-0.22-3.78-1.17-3.85-4.11c-0.11-4.34,0.01-4.55,4.2-3.56
	c4.95,1.17,9.92,1.22,14.93,0.89c2.35-0.16,3.03,0.42,3.24,2.63c0.25,2.6-0.59,3.96-2.74,4.17
	C104.26,115.11,101.76,115.21,99.63,115.35z M90.24,110.18c-0.34,1.01,0.04,1.76,1.34,1.79c4.28,0.09,8.57,0.13,12.86,0.14
	c0.64,0,1.28-0.28,1.92-0.42c-0.02-0.12-0.04-0.24-0.06-0.36C101.04,110.96,95.79,110.58,90.24,110.18z"/>
<path d="M127.49,121.91c-4.22,0.02-8.15-3.69-8.09-7.65c0.05-3.39,2.85-6.05,6.33-6.01c4.82,0.05,8.09,3.25,8.09,7.91
	C133.82,119.34,131.01,121.89,127.49,121.91z M125.78,111.09c-1.84,0.01-3.22,1.21-3.38,2.94c-0.18,1.96,1.8,4.33,4.01,4.79
	c1.95,0.41,3.79-0.45,4.25-2c0.06-0.19,0.09-0.39,0.1-0.58C130.89,113.79,128.26,111.07,125.78,111.09z"/>
<path d="M149.15,100.9c1.57-0.35,2.16,0.42,2.26,1.88c0.19,2.92-1.41,5.11-3.85,5.22c-1.87,0.09-3.49-1.21-3.62-2.89
	C143.76,102.9,145.97,101.12,149.15,100.9z"/>
<path d="M189.12,171.26c0.75,0.17,1.43,0.13,1.81,0.45c5.37,4.49,9.7,9.8,11.54,16.66c1.7,6.35-1.47,12.28-7.92,15.63
	c-4.94,2.57-10.15,4.12-15.77,3.9c-4.6-0.18-9.24-0.21-13.79-0.81c-4.02-0.53-7.43-2.77-10.21-5.71c-3.67-3.88-7.7-7.56-10.7-11.93
	c-5.52-8.03-6.47-21.04,3.68-28.09c8.83-6.13,20.25-6.28,29.22-0.03c0.37,0.26,0.76,0.57,1.19,0.68c0.68,0.18,1.62-0.05,2.06,0.33
	c2.4,2.06,4.72,4.23,6.99,6.44C188,169.54,188.56,170.52,189.12,171.26z"/>
<path class="st0" d="M211.68,121.19c0.28-3.15,0.57-6.29,0.83-9.44c0.1-1.22,0.65-1.75,1.91-1.64c5.78,0.51,11.57,0.95,17.35,1.46
	c3.81,0.34,7.6,0.84,11.41,1.07c1.45,0.09,1.78,0.5,1.96,1.92c0.63,4.83,0.35,9.56-0.65,14.31c-0.31,1.46-0.76,1.83-2.19,1.65
	c-4.24-0.55-8.49-1.16-12.75-1.4c-5.2-0.3-10.42-0.3-15.63-0.36c-1.46-0.02-1.99-0.56-1.92-2.01c0.1-1.84,0.02-3.69,0.02-5.54
	C211.92,121.2,211.8,121.2,211.68,121.19z"/>
<path class="st0" d="M162.68,105.81c1.17,0.07,2.34,0.13,3.51,0.22c4.08,0.32,8.17,0.6,12.25,1c0.63,0.06,1.21,0.66,1.82,1.02
	c-0.63,0.25-1.29,0.79-1.88,0.71c-5.27-0.66-10.53-1.43-15.8-2.17C162.62,106.33,162.65,106.07,162.68,105.81z"/>
<path class="st0" d="M90.24,110.18c5.55,0.4,10.8,0.78,16.05,1.16c0.02,0.12,0.04,0.24,0.06,0.36c-0.64,0.15-1.28,0.43-1.92,0.42
	c-4.29-0.01-8.57-0.05-12.86-0.14C90.28,111.95,89.91,111.19,90.24,110.18z"/>
<path class="st0" d="M125.78,111.09c2.48-0.01,5.11,2.71,4.97,5.15c-0.01,0.2-0.04,0.4-0.1,0.58c-0.46,1.55-2.3,2.41-4.25,2
	c-2.21-0.46-4.19-2.83-4.01-4.79C122.55,112.3,123.93,111.1,125.78,111.09z"/>
</svg>
