<?xml version="1.0" encoding="utf-8"?>
<!-- Generator: Adobe Illustrator 26.2.1, SVG Export Plug-In . SVG Version: 6.00 Build 0)  -->
<svg version="1.1" id="Layer_1" xmlns="http://www.w3.org/2000/svg" xmlns:xlink="http://www.w3.org/1999/xlink" x="0px" y="0px"
	 viewBox="0 0 130 160" style="enable-background:new 0 0 130 160;" xml:space="preserve">
<style type="text/css">
	.st0{fill:#FFFFFF;}
</style>
<circle class="st0" cx="65" cy="80" r="58.65"/>
<path d="M53.19,105.71c-0.63,0.16-1.05,0.4-1.44,0.34c-1.36-0.18-2.69-0.55-4.05-0.7c-3.28-0.37-6.54-0.73-9.88-0.58
	c-4.36,0.19-8.74,0.06-12.95-1.45c-1.93-0.7-2.55-1.39-2.7-3.4c-0.21-2.88-0.51-5.76-0.69-8.64c-0.11-1.69-0.02-3.4-0.1-5.1
	c-0.11-2.46-0.34-4.91-0.45-7.36c-0.13-2.87-0.25-5.73-0.25-8.6c0-1.18,0.09-2.35,0.09-3.54c-0.01-1.43,0.51-2.86,0.57-4.31
	c0.06-1.4-0.15-2.8-0.25-4.21c-0.05-0.67-0.14-1.35-0.12-2.02c0.01-0.31,0.21-0.67,0.44-0.89c0.88-0.84,1.82-1.61,2.7-2.44
	c0.14-0.13,0.13-0.47,0.09-0.7c-0.27-1.79,0.47-3.29,2.16-3.99c2.33-0.98,4.77-1.13,7.26-0.69c0.63,0.11,1.27,0.23,1.9,0.36
	c1.06,0.23,1.61,1.01,1.94,1.94c0.21,0.59,0.58,0.81,1.17,0.86c1.26,0.12,2.5,0.34,3.76,0.41c0.48,0.03,1.04-0.17,1.47-0.42
	c1.56-0.9,3.25-1.39,5.03-1.38c2.1,0.01,4.19,0.18,6.29,0.28c0.09,0,0.19,0.06,0.26,0.03c1.17-0.52,1.86,0.18,2.56,1.14
	c0.27-0.38,0.52-0.65,0.68-0.97c0.26-0.51,0.64-0.63,1.17-0.49c0.6,0.15,1.25,0.46,1.8,0.35c1.25-0.26,2.27,0.31,3.4,0.54
	c6.34,1.28,12.76,1.88,19.2,2.44c3.39,0.29,6.74,0.95,10.13,1.25c4.26,0.38,8.55,0.56,12.82,0.84c0.44,0.03,0.89,0.06,1.31,0.18
	c0.36,0.1,0.86,0.22,0.99,0.49c0.56,1.12,1.51,2.06,1.5,3.44c-0.01,4.16,0,8.33,0.01,12.49c0,0.23-0.01,0.56,0.12,0.66
	c0.81,0.6,0.63,1.43,0.63,2.25c0,3.98,0.03,7.97,0.05,11.95c0.01,1.91-0.01,3.81,0.01,5.72c0.05,4.08,0.13,8.15,0.16,12.23
	c0.01,1.38-0.08,2.78-0.97,3.94c-0.46,0.6-0.98,1.16-1.54,1.67c-0.52,0.47-1.18,0.78-1.69,1.27c-1.99,1.92-4.36,2.1-6.95,1.79
	c-4.16-0.5-8.34-0.8-12.51-1.25c-3.06-0.33-6.11-0.76-9.17-1.14c-1.2-0.15-2.34-0.03-3.53,0.34c-1.53,0.47-3.14,0.71-4.74,0.87
	c-2.66,0.27-5.32,0.3-7.99-0.1c-3.33-0.5-6.09-2.02-8.44-4.38C53.96,106.56,53.51,106.05,53.19,105.71z M109.66,60.55
	c-0.33,0.23-0.46,0.29-0.55,0.38c-1.24,1.26-2.78,1.91-4.5,1.91c-1.84,0-3.69-0.11-5.51-0.37c-6.07-0.85-12.12-1.89-18.2-2.67
	c-5.88-0.75-11.78-1.32-17.68-1.87c-2.88-0.27-5.79-0.32-8.68-0.44c-0.88-0.04-1.54,0.34-2.08,1.08c-1.05,1.44-2.39,2.46-4.3,2.27
	c-1.31-0.13-2.62-0.31-3.91-0.58c-2.52-0.54-5.05-0.58-7.61-0.34c-1.86,0.18-3.75,0.36-5.6,0.22c-3.01-0.23-6.04-0.6-8.51-2.65
	c-0.03-0.02-0.11,0.01-0.18,0.02c-0.02,0.08-0.07,0.17-0.06,0.24c0.47,2.62,0.57,5.24,0.1,7.87c-0.06,0.32,0.23,0.86,0.52,1.05
	c1.23,0.8,2.61,1.24,4.08,1.39c2.33,0.24,4.65,0.59,6.98,0.77c2.63,0.19,5.28,0.16,7.91,0.37c3.77,0.31,7.53,0.74,11.29,1.15
	c1.43,0.15,2.81,0.31,4.05-0.7c0.43-0.35,1.07-0.46,1.62-0.66c2.83-1.02,5.76-0.91,8.7-0.86c2.28,0.04,4.4,0.5,6.36,1.74
	c2.75,1.73,5.55,3.38,8.05,4.9c0.69-0.17,1.16-0.43,1.59-0.37c2.44,0.31,4.87,0.69,7.31,1.04c3.15,0.45,6.31,0.71,9.5,0.72
	c2.9,0.01,5.54-0.48,7.69-2.59c0.25-0.24,0.55-0.45,0.86-0.62c0.58-0.32,0.77-0.79,0.76-1.45c-0.03-2.41-0.01-4.81-0.01-7.22
	C109.66,63.1,109.66,61.93,109.66,60.55z M67.86,110.29c0.47,0,0.95,0.05,1.41-0.01c2-0.28,4.11-0.26,5.95-0.96
	c3.95-1.51,6.32-4.79,7.38-8.68c1.39-5.1,0.92-10.1-2.83-14.29c-1.4-1.57-2.8-3.17-4.39-4.55c-1.61-1.39-3.44-2.52-5.18-3.76
	c-1.78-1.27-4.03-0.87-5.95-1.64c-0.08-0.03-0.17-0.03-0.26-0.04c-3.03-0.37-5.99-0.25-8.75,1.21c-3.84,2.04-6.75,4.9-7.71,9.29
	c-0.54,2.49-0.29,5.05,0.21,7.52c0.27,1.35,0.76,2.75,1.52,3.89c1.44,2.17,3.09,4.21,4.74,6.23c0.85,1.04,1.82,2,2.84,2.87
	C60.03,110.05,63.89,110.45,67.86,110.29z M51.18,78.32c0.04,0.03,0.08,0.07,0.13,0.1c0.21-0.14,0.42-0.28,0.62-0.42
	c2.97-2.17,6.25-3.32,9.96-3.04c0.76,0.06,1.52,0.16,2.28,0.18c2.5,0.06,4.84,0.72,7.03,1.91c3,1.63,5.54,3.86,7.84,6.33
	c1.94,2.08,3.88,4.25,4.7,7.04c1.08,3.67,1.13,7.39,0.07,11.1c-0.05,0.17-0.07,0.36-0.1,0.54c0.95-1.04,1.77-2.15,2.54-3.28
	c1.37-1.99,1.98-4.16,1.53-6.59c-0.14-0.75-0.21-1.51-0.25-2.27c-0.2-3.26-0.84-6.39-2.6-9.21c-1.2-1.92-2.3-3.93-4.29-5.16
	c-2.76-1.72-5.54-3.43-8.38-5.02c-0.92-0.52-2.03-0.84-3.08-0.93c-2.01-0.17-4.06-0.27-6.07-0.11c-4.06,0.32-7.59,1.74-9.8,5.47
	c-0.54,0.91-1.17,1.76-1.75,2.64C51.43,77.83,51.31,78.08,51.18,78.32z M51.06,57.59c0.98-0.5,1.78-1.03,2.65-1.3
	c0.8-0.24,1.69-0.3,2.53-0.24c3.1,0.23,6.19,0.53,9.29,0.83c4.61,0.45,9.23,0.86,13.84,1.39c3.67,0.42,7.33,0.97,10.99,1.5
	c3.74,0.54,7.48,1.14,11.23,1.69c1.7,0.25,3.44,0.34,5.02-0.44c2.16-1.07,2.71-1.96,2.35-3.78c-0.15-0.78-0.48-1.22-1.29-1.27
	c-1.55-0.1-3.1-0.21-4.65-0.31c-3.28-0.22-6.57-0.35-9.83-0.67c-5.31-0.51-10.62-1.14-15.92-1.75c-0.67-0.08-1.06,0.08-1.47,0.62
	c-1.14,1.5-2.49,2.48-4.59,1.99c-1.33-0.31-2.74-0.28-4.12-0.35c-2.32-0.11-4.63-0.16-6.95-0.28c-0.36-0.02-0.87-0.23-1-0.51
	c-0.14-0.28-0.01-0.82,0.2-1.12c0.4-0.57,0.93-1.05,1.41-1.57c0.3-0.33,0.6-0.67,0.91-1c-0.03-0.08-0.05-0.17-0.08-0.25
	c-0.65-0.04-1.44-0.33-1.9-0.06c-0.6,0.35-0.93,1.14-1.38,1.74c-0.24,0.32-0.42,0.75-0.74,0.94c-1.42,0.81-2.88,1.54-4.31,2.33
	c-0.63,0.35-1.25,0.75-1.83,1.18C51.22,57.04,51.17,57.35,51.06,57.59z M74.74,53.15c-0.15-0.11-0.19-0.16-0.24-0.17
	c-3.58-0.59-7.16-1.18-10.74-1.76c-0.18-0.03-0.45,0-0.57,0.12c-0.74,0.77-1.44,1.58-2.26,2.49c0.4,0.04,0.65,0.07,0.9,0.09
	c3.3,0.24,6.61,0.37,9.89,0.75C73.18,54.84,73.92,54.15,74.74,53.15z M44.33,51.88c0.61,0.41,0.99,0.9,1.41,0.92
	c2.1,0.13,4.2,0.22,6.3,0.15c1.42-0.04,2.84-0.34,4.26-0.59c0.26-0.04,0.68-0.41,0.65-0.57c-0.05-0.3-0.31-0.62-0.58-0.8
	c-0.25-0.17-0.61-0.2-0.92-0.25c-0.7-0.1-1.4-0.16-2.09-0.26c-2.63-0.38-5.21-0.23-7.71,0.7C45.24,51.34,44.88,51.59,44.33,51.88z
	 M28.92,54.74c-1.13-0.22-2.16-0.26-3.04-0.64c-0.76-0.32-1.16-0.18-1.67,0.34c-1.62,1.64-1.62,2.04,0.5,2.99
	c3.22,1.44,6.65,1.63,10.11,1.3c-0.87-0.09-1.75-0.05-2.62-0.09c-2.2-0.1-3.33-1.32-3.28-3.49C28.93,54.97,28.92,54.8,28.92,54.74z
	 M34.66,51.12c-1.45,0.91-2.69,1.68-3.9,2.44c0.05,0.15,0.05,0.19,0.07,0.2c1.45,1.04,6.06,1.18,7.57,0.21
	c0.16-0.1,0.37-0.34,0.34-0.45c-0.05-0.18-0.26-0.39-0.44-0.45c-0.8-0.26-1.62-0.51-2.44-0.68C35.25,52.26,34.68,52.18,34.66,51.12z
	 M50.39,58.68c-0.46,0-0.75,0.02-1.04,0c-1.77-0.14-3.58-0.15-5.32-0.47c-2.66-0.5-3.67-2.56-2.67-5.1c0.1-0.26,0.2-0.52,0.34-0.88
	c-0.76-0.09-1.4-0.16-2.14-0.24c0.99,1.34,1.3,4.61-0.5,6.38c0.27,0.03,0.49,0.06,0.71,0.08c1.51,0.15,3.03,0.28,4.53,0.47
	c1.33,0.17,2.65,0.45,3.99,0.58C49.03,59.57,49.77,59.47,50.39,58.68z M26.43,49.75c0.19,0.09,0.37,0.24,0.54,0.24
	c2.39,0.02,4.77,0.05,7.16-0.01c0.38-0.01,0.74-0.42,1.19-0.69C33.21,48,27.87,48.33,26.43,49.75z"/>
<path d="M82.43,63.44c-0.35-0.03-0.69,0.02-0.97-0.09c-0.26-0.1-0.45-0.37-0.67-0.56c0.19-0.22,0.35-0.54,0.59-0.64
	c0.63-0.24,1.29-0.39,1.95-0.56c0.13-0.03,0.35-0.03,0.41,0.05c0.51,0.66,1.23,0.38,1.87,0.45c3.15,0.33,6.29,0.69,9.44,1
	c1.02,0.1,2.05,0.08,3.07,0.11c1.03,0.03,1.38,0.36,1.4,1.37c0.02,1.81,0.08,3.62,0.01,5.43c-0.04,0.93-0.31,1.84-0.48,2.76
	c-0.16,0.89-0.49,1.04-1.39,0.98c-2.62-0.15-5.18-0.82-7.86-0.6c-2.06,0.17-4.15-0.1-6.23-0.23c-1-0.06-1.45-0.59-1.41-1.65
	c0.07-2.43,0.21-4.85,0.31-7.28C82.46,63.84,82.44,63.67,82.43,63.44z M83.32,68.3c0.05,0,0.11,0.01,0.16,0.01
	c0,0.82,0.03,1.64-0.01,2.46c-0.03,0.64,0.2,0.89,0.85,0.89c2.31,0.02,4.63,0.02,6.94,0.16c1.89,0.11,3.78,0.38,5.66,0.62
	c0.63,0.08,0.83-0.09,0.97-0.73c0.44-2.11,0.57-4.21,0.29-6.36c-0.08-0.63-0.23-0.82-0.87-0.85c-1.69-0.1-3.38-0.32-5.07-0.47
	c-2.57-0.23-5.14-0.43-7.7-0.65c-0.56-0.05-0.81,0.19-0.85,0.73C83.58,65.5,83.45,66.9,83.32,68.3z"/>
<path d="M62.43,60.31c2.05,0.12,4.09,0.25,6.14,0.37c0.09,0.01,0.18,0.01,0.26,0.02c2.02,0.23,2.56,1.11,1.69,2.96
	c-0.15,0.31-0.82,0.57-1.22,0.54c-1.72-0.15-3.43-0.4-5.14-0.64c-0.96-0.14-1.91-0.32-2.86-0.49c-0.92-0.16-1.86-1.41-1.67-2.33
	c0.05-0.23,0.4-0.54,0.62-0.55c0.73-0.03,1.46,0.06,2.19,0.1C62.43,60.3,62.43,60.31,62.43,60.31z M61.57,61.47
	c-0.01,0.12-0.03,0.23-0.04,0.35c2.34,0.33,4.67,0.67,7.01,0.96c0.26,0.03,0.56-0.2,0.83-0.32c-0.27-0.16-0.53-0.42-0.81-0.45
	c-1.81-0.18-3.62-0.31-5.44-0.45C62.61,61.53,62.09,61.5,61.57,61.47z"/>
<path d="M33.57,65.71c-1.39-0.08-2.62-0.14-3.85-0.23c-1.3-0.1-1.68-0.52-1.71-1.83c-0.05-1.93,0-2.02,1.87-1.58
	c2.2,0.52,4.4,0.54,6.63,0.39c1.04-0.07,1.35,0.19,1.44,1.17c0.11,1.15-0.26,1.76-1.22,1.85C35.63,65.6,34.52,65.64,33.57,65.71z
	 M29.41,63.41c-0.15,0.45,0.02,0.78,0.59,0.8c1.9,0.04,3.81,0.06,5.71,0.06c0.28,0,0.57-0.12,0.85-0.19
	c-0.01-0.05-0.02-0.11-0.03-0.16C34.2,63.76,31.87,63.59,29.41,63.41z"/>
<path d="M45.94,68.62c-1.87,0.01-3.62-1.64-3.59-3.39c0.02-1.51,1.26-2.69,2.81-2.67c2.14,0.02,3.59,1.44,3.59,3.51
	C48.75,67.48,47.51,68.61,45.94,68.62z M45.18,63.81c-0.82,0-1.43,0.54-1.5,1.3c-0.08,0.87,0.8,1.92,1.78,2.13
	c0.87,0.18,1.68-0.2,1.89-0.89c0.02-0.08,0.04-0.17,0.04-0.26C47.45,65.01,46.28,63.81,45.18,63.81z"/>
<path d="M55.56,59.29c0.7-0.15,0.96,0.19,1,0.84c0.08,1.29-0.63,2.27-1.71,2.32c-0.83,0.04-1.55-0.54-1.61-1.28
	C53.17,60.18,54.15,59.39,55.56,59.29z"/>
<path d="M73.3,90.53c0.33,0.08,0.64,0.06,0.8,0.2c2.38,1.99,4.31,4.35,5.12,7.4c0.76,2.82-0.65,5.45-3.51,6.94
	c-2.19,1.14-4.51,1.83-7,1.73c-2.04-0.08-4.1-0.09-6.12-0.36c-1.79-0.24-3.3-1.23-4.53-2.54c-1.63-1.72-3.42-3.36-4.75-5.3
	c-2.45-3.57-2.87-9.34,1.63-12.47c3.92-2.72,8.99-2.79,12.97-0.01c0.17,0.12,0.34,0.25,0.53,0.3c0.3,0.08,0.72-0.02,0.92,0.15
	c1.07,0.92,2.1,1.88,3.1,2.86C72.81,89.76,73.06,90.2,73.3,90.53z"/>
</svg>
