<?xml version="1.0" encoding="utf-8"?>
<!-- Generator: Adobe Illustrator 26.2.1, SVG Export Plug-In . SVG Version: 6.00 Build 0)  -->
<svg version="1.1" id="Layer_1" xmlns="http://www.w3.org/2000/svg" xmlns:xlink="http://www.w3.org/1999/xlink" x="0px" y="0px"
	 viewBox="0 0 130 160" style="enable-background:new 0 0 130 160;" xml:space="preserve">
<style type="text/css">
	.st0{opacity:0.3;fill:#1F00FC;}
</style>
<path class="st0" d="M107.97,32.75l2.04-6.95c0,0,0.72-2.52-0.91-3.26L44.72,7.7c0,0-2.67-0.3-2.97,1.48
	c-0.3,1.78-27.9,121.4-27.9,121.4l63.51,15.13c0,0,4.24,0.67,5.38-2.19l4.58-19.51c0,0,18.32,4.78,25.48-10.35l13.74-58.28
	C126.54,55.38,129.55,39.3,107.97,32.75z M115.65,54.69l-12.77,55.16c-5.29,6.78-13.04,3.92-13.04,3.92l16.3-69.95
	C118.76,46.81,115.65,54.69,115.65,54.69z"/>
</svg>
