<?xml version="1.0" encoding="utf-8"?>
<!-- Generator: Adobe Illustrator 26.2.1, SVG Export Plug-In . SVG Version: 6.00 Build 0)  -->
<svg version="1.0" id="Layer_1" xmlns="http://www.w3.org/2000/svg" xmlns:xlink="http://www.w3.org/1999/xlink" x="0px" y="0px"
	 viewBox="0 0 130 160" style="enable-background:new 0 0 130 160;" xml:space="preserve">
<style type="text/css">
	.st0{fill:#FFFFFF;}
</style>
<path d="M113.7,64.91c1.5,0.8,2.96,1.7,4.52,2.38c1.42,0.61,2.68,1.4,3.8,2.43c1.54,1.42,3.08,2.84,4.61,4.27
	c0.96,0.9,1.64,1.99,2.1,3.23c0.18,0.49,0.13,0.94-0.38,1.17c-0.53,0.24-0.8-0.15-1.04-0.54c-0.12-0.2-0.23-0.42-0.26-0.49
	c-0.62-0.12-1.14-0.18-1.63-0.32c-1.4-0.41-2.72-0.02-4.04,0.38c-0.45,0.14-0.88,0.38-1.33,0.52c-0.46,0.14-0.95,0.25-1.35-0.16
	c-0.37-0.38-0.26-0.83-0.07-1.23c0.78-1.59,1.57-3.17,2.41-4.73c0.22-0.41,0.24-0.67-0.14-0.96c-0.46-0.35-0.89-0.73-1.39-1.13
	c-0.15,0.2-0.24,0.4-0.39,0.5c-0.23,0.15-0.5,0.27-0.76,0.34c-0.35,0.09-0.76,0.03-1.05,0.2c-1.55,0.89-3.06,1.84-4.6,2.75
	c-0.28,0.17-0.61,0.36-0.92,0.35c-0.6-0.02-0.84-0.65-0.58-1.35c0.49-1.31,1.02-2.62,0.84-4.05c-0.12-0.94-0.37-1.87-0.61-2.79
	c-0.09-0.34-0.36-0.49-0.75-0.38c-1.3,0.37-2.62,0.68-3.91,1.07c-1.42,0.42-2.81,0.92-4.22,1.34c-2.99,0.89-5.97,1.78-8.97,2.62
	c-1.15,0.32-2.36,0.44-3.49,0.79c-3.13,0.97-6.24,2.02-9.36,3.02c-1.15,0.37-2.33,0.68-3.65,1.06c1.43,1.45,2.77,2.81,4.11,4.16
	c-0.02,0.07-0.04,0.15-0.06,0.22c-0.32,0.01-0.67,0.1-0.97,0.02c-3.96-1.05-7.93-2.09-11.74-3.63c-1.99-0.8-4.07-1.38-6.06-2.2
	c-1.55-0.65-3.03-1.5-4.51-2.29c-0.3-0.16-0.51-0.49-0.78-0.73c-0.25-0.23-0.52-0.43-0.84-0.7c0.03-0.15,0.12-0.42,0.14-0.69
	c0.03-0.24,0.08-0.64-0.03-0.7c-0.25-0.14-0.63-0.22-0.9-0.14c-0.6,0.19-1.15,0.51-1.74,0.75c-0.27,0.11-0.56,0.18-0.85,0.22
	c-2.27,0.3-4.54,0.57-6.81,0.88c-3.31,0.45-6.63,0.53-9.95,0.07c-1.46-0.2-2.93-0.3-4.39-0.52c-2.37-0.36-4.75-0.73-7.1-1.2
	c-1.1-0.22-2.14-0.69-3.2-1.09c-0.2-0.08-0.43-0.35-0.46-0.56c-0.21-1.38-0.37-2.76-0.53-4.14c-0.05-0.47,0.05-0.89,0.43-1.24
	c0.24-0.22,0.33-0.58,0.52-0.86c0.58-0.84,1.48-1.17,2.41-1.44c0.99-0.29,1.97-0.62,2.98-0.87c0.61-0.15,1.25-0.19,1.89-0.23
	c0.45-0.03,0.72-0.13,0.86-0.63c0.28-0.99,1.18-1.23,2.03-1.44c0.98-0.24,1.99-0.39,2.98-0.58c0.14-0.03,0.27-0.11,0.43-0.17
	c-0.3-0.54-0.63-0.99-0.8-1.5c-0.1-0.3,0.01-0.69,0.08-1.03c0.04-0.22,0.23-0.42,0.23-0.63c0.03-4.97,0.04-9.94,0.06-14.91
	c0-0.83,0-0.85-0.8-0.8c-0.65,0.04-1.3,0.11-1.95,0.19c-0.49,0.06-0.96-0.32-1.07-0.91c-0.4-2.23-0.54-4.47-0.45-6.73
	c0.01-0.22,0.08-0.43,0.1-0.65c0.02-0.19,0.03-0.38,0.05-0.57c-0.06-0.04-0.12-0.09-0.18-0.13c-0.22,0.21-0.53,0.37-0.65,0.63
	c-0.39,0.81-0.71,1.64-1.05,2.47c-0.06,0.14-0.04,0.31-0.02,0.47c0.08,0.75,0.18,1.49,0.26,2.24c0.07,0.71,0.11,1.43,0.16,2.14
	c0.01,0.12,0.05,0.25,0.01,0.36c-0.13,0.33-0.21,0.77-0.46,0.94c-0.38,0.25-0.8,0.04-1.11-0.31c-0.19-0.21-0.38-0.42-0.57-0.64
	c-0.54,0.91-1.03,1.74-1.51,2.58c-0.06,0.11-0.09,0.27-0.07,0.39c0.25,1.09,0.5,2.17,0.77,3.25c0.13,0.5,0.17,1.05-0.3,1.29
	c-0.35,0.17-0.87,0.11-1.28,0.02c-0.51-0.12-0.98-0.42-1.5-0.56c-0.17-0.05-0.51,0.11-0.62,0.27c-0.54,0.88-1.03,1.79-1.55,2.69
	c-0.19,0.33-0.15,0.59,0.04,0.94c0.29,0.51,0.52,1.08,0.65,1.65c0.16,0.7-0.2,1.2-0.84,1.15c-0.79-0.06-1.25,0.34-1.72,0.85
	c-1.14,1.21-1.05,0.76-0.41,2.32c0.25,0.61,0.56,1.19,0.79,1.8c0.29,0.76-0.1,1.36-0.91,1.41c-0.44,0.03-0.88-0.06-1.31-0.03
	c-0.53,0.04-1.05,0.16-1.57,0.24c-0.12,0.02-0.24,0.09-0.35,0.08c-0.56-0.09-0.9,0.26-1.3,0.58c-0.69,0.53-1.23,1.05-1.08,2.06
	c0.07,0.44-0.15,0.98-0.7,1.13c-0.55,0.16-1.05,0.02-1.36-0.49c-0.35-0.57-0.75-0.65-1.38-0.46c-2.38,0.72-4.77,1.38-7.16,2.05
	c-0.21,0.06-0.43,0.13-0.64,0.11c-0.17-0.02-0.41-0.14-0.45-0.26c-0.04-0.14,0.07-0.4,0.2-0.5c1.52-1.1,3.1-2.1,5.01-2.38
	c0.48-0.07,0.98,0,1.47-0.01c0.17,0,0.43,0,0.49-0.09c0.42-0.72,1.22-0.79,1.87-0.94c1.27-0.29,2.25-0.98,3.14-1.86
	c1.57-1.54,2.62-3.45,3.67-5.35c1.38-2.51,2.64-5.09,4.07-7.57c0.97-1.69,2.17-3.24,3.21-4.89c0.52-0.82,0.91-1.72,1.33-2.59
	c0.09-0.2,0.04-0.46,0.07-0.68c0.03-0.23,0.02-0.56,0.15-0.66c0.59-0.43,0.65-1.12,0.89-1.71c0.4-1,0.78-2,1.15-3.01
	c0.12-0.33,0.15-0.69,0.26-1.03c0.1-0.29,0.19-0.65,0.41-0.82c0.51-0.41,1.07-0.75,1.64-1.07c0.66-0.36,1.39-0.61,2.01-1.02
	c2.62-1.74,5.48-3,8.32-4.29c2.57-1.16,5.14-2.33,7.73-3.44c2.56-1.09,5.18-2.03,7.7-3.19c2.69-1.23,5.3-2.64,7.93-4
	c0.21-0.11,0.42-0.43,0.45-0.67c0.09-0.69,0.43-0.94,1.09-0.74c0.18,0.05,0.42,0.06,0.58-0.01c0.07-0.03,0-0.33,0.03-0.5
	c0.05-0.24,0.06-0.55,0.22-0.68c0.16-0.14,0.54-0.21,0.7-0.11c0.34,0.21,0.65,0.51,0.89,0.84c0.38,0.51,0.66,1.09,1.05,1.59
	c0.14,0.19,0.44,0.26,0.68,0.36c0.61,0.24,1.25,0.4,1.83,0.69c5.01,2.51,10.05,4.97,15.01,7.6c2.69,1.42,5.2,3.16,7.82,4.72
	c2.45,1.45,4.94,2.82,7.39,4.27c4.77,2.83,9.52,5.7,14.29,8.54c0.49,0.29,1.01,0.52,1.51,0.79c0.53,0.29,0.84,0.76,0.84,1.36
	c-0.02,3.45-0.1,6.9-0.1,10.35c0,1.83,0.09,3.67,0.17,5.5c0.08,2.07,0.19,4.14,0.26,6.21c0.01,0.32-0.17,0.64-0.21,0.97
	c-0.05,0.37-0.11,0.76-0.04,1.11c0.18,0.87-0.5,1.32-0.85,1.94c-0.02,0.04-0.1,0.07-0.16,0.08c-0.66,0.05-1.33,0.09-1.99,0.16
	c-0.51,0.05-1.01,0.15-1.51,0.22C113.71,64.69,113.71,64.8,113.7,64.91z M72.77,13.4c-0.08,0.83-0.02,1.51,0.3,2.15
	c0.53,1.07,1.06,2.14,1.58,3.21c1.42,2.95,2.62,6.03,4.29,8.84c2.32,3.92,5.03,7.6,7.48,11.44c0.72,1.13,1.58,1.53,2.86,1.43
	c3.02-0.22,6.04-0.35,9.06-0.53c1.43-0.08,2.86-0.17,4.29-0.3c3.05-0.27,6.11-0.54,9.15-0.87c1.43-0.16,2.85-0.45,4.28-0.69
	c0.01-0.07,0.02-0.14,0.03-0.21c-0.62-0.41-1.22-0.86-1.86-1.24c-4.37-2.57-8.75-5.13-13.13-7.69c-2.58-1.5-5.18-2.97-7.74-4.49
	c-2.22-1.32-4.35-2.82-6.62-4.04c-3.45-1.85-6.99-3.53-10.49-5.28C75.12,14.58,74.01,14.02,72.77,13.4z M46.42,51.39
	c0-0.08,0-0.15,0-0.23c3.25,0,6.5,0,9.75,0.01c0.38,0,0.53-0.15,0.55-0.52c0.05-1.15,0.14-2.29,0.2-3.44
	c0.09-1.74-0.67-3.29-1.08-4.92c-0.51-2.04-1.14-4.06-1.68-6.09c-0.11-0.41-0.3-0.64-0.69-0.79c-2.62-1-5.24-1.98-7.83-3.05
	c-2.72-1.13-5.45-2.22-8.34-2.86c-0.4-0.09-0.67-0.05-0.72,0.43c-0.16,1.44-0.44,2.88-0.45,4.33c-0.06,5.41-0.03,10.82-0.03,16.23
	c0,0.16-0.05,0.34,0.02,0.47c0.08,0.16,0.24,0.38,0.38,0.39c0.81,0.05,1.63,0.06,2.45,0.06C41.43,51.4,43.92,51.39,46.42,51.39z
	 M88.83,42.14c0.17,0.24,0.26,0.39,0.37,0.52c3.59,4.43,7.44,8.63,11.4,12.73c0.21,0.21,0.53,0.38,0.82,0.43
	c0.68,0.13,1.38,0.19,2.07,0.28c1.52,0.19,3.04,0.39,4.56,0.58c1.78,0.22,3.55,0.43,5.33,0.66c0.73,0.09,1.44,0.28,2.17,0.34
	c0.37,0.03,0.78-0.07,1.12-0.23c0.11-0.05,0.09-0.47,0.08-0.72c-0.05-1.05-0.15-2.11-0.17-3.16c-0.03-2.09-0.02-4.19-0.01-6.28
	c0.01-2.47,0.04-4.95,0.09-7.42c0.01-0.51-0.25-0.44-0.57-0.37c-0.99,0.21-1.98,0.48-2.98,0.6c-2.55,0.29-5.11,0.52-7.66,0.77
	c-1.17,0.11-2.34,0.2-3.51,0.31c-2.26,0.2-4.52,0.44-6.78,0.6c-1.95,0.13-3.9,0.17-5.85,0.25C89.19,42.05,89.06,42.09,88.83,42.14z
	 M72.9,60.2c0.06,0,0.11,0,0.17,0c-0.09,1.71-0.18,3.42-0.28,5.13c-0.05,0.82,0.03,0.93,0.77,0.82c0.77-0.11,1.53-0.27,2.29-0.38
	c2.36-0.36,4.72-0.71,7.08-1.05c0.61-0.09,1.24-0.06,1.84-0.16c1.53-0.26,3.05-0.58,4.58-0.83c1.49-0.25,3-0.41,4.49-0.68
	c1.02-0.18,2.01-0.46,3.01-0.72c1.39-0.36,2.76-0.75,4.15-1.11c0.36-0.09,0.44-0.29,0.37-0.61c-0.06-0.25-0.11-0.5-0.17-0.76
	c-0.12-0.5-0.32-0.99-0.35-1.5c-0.03-0.56-0.33-0.92-0.75-1.03c-1.15-0.29-2.3-0.55-3.51-0.14c-0.76,0.26-1.59,0.3-2.4,0.37
	c-0.48,0.04-0.87-0.21-0.93-0.74c-0.05-0.46-0.32-0.59-0.71-0.65c-2.11-0.32-4.22-0.6-6.31-0.98c-4.15-0.75-8.29-1.56-12.44-2.35
	c-0.84-0.16-0.89-0.14-0.89,0.71C72.89,55.77,72.9,57.98,72.9,60.2z M53.55,33.71c-0.04-0.28-0.05-0.41-0.07-0.54
	c-0.17-1.02-0.42-2.04-0.5-3.06c-0.13-1.72,0.44-3.31,1.21-4.81c2.25-4.38,4.43-8.81,8.06-12.28c0.13-0.13,0.24-0.28,0.36-0.43
	c-0.24-0.03-0.39,0.03-0.54,0.1c-2.68,1.25-5.36,2.52-8.05,3.75c-2.98,1.36-5.98,2.68-8.97,4c-2.49,1.1-5,2.15-7.46,3.31
	c-1.51,0.71-2.94,1.57-4.4,2.38c-0.21,0.12-0.38,0.33-0.67,0.58c0.58,0.16,0.97,0.3,1.37,0.37c0.78,0.13,1.55,0.55,2.37,0.05
	c0.13-0.08,0.53,0.06,0.61,0.21c0.3,0.53,0.8,0.59,1.3,0.72c1.04,0.27,2.11,0.46,3.11,0.84c2.58,0.98,5.12,2.06,7.69,3.07
	C50.45,32.56,51.94,33.1,53.55,33.71z M53.75,29.72c0.3,0.3,0.59,0.46,0.69,0.7c0.8,1.83,2.17,3.24,3.48,4.68
	c0.24,0.27,0.59,0.48,0.93,0.62c1.08,0.45,2.21,0.8,3.26,1.29c1.78,0.83,3.53,1.74,5.29,2.62c0.34,0.17,0.58,0.29,1-0.02
	c0.78-0.58,1.09,0.44,1.62,0.71c0.19,0.09,0.2,0.58,0.24,0.89c0.01,0.1-0.18,0.2-0.24,0.32c-0.14,0.26-0.31,0.51-0.37,0.79
	c-0.07,0.33-0.04,0.68-0.05,1.01c-0.05,2-0.1,3.99-0.12,5.99c0,0.28,0.13,0.65,0.34,0.81c0.27,0.2,0.67,0.23,1.01,0.32
	c0.38,0.1,0.54-0.03,0.54-0.44c0.04-2.31,0.11-4.63,0.13-6.94c0-0.28-0.15-0.61-0.32-0.84c-0.31-0.4-0.3-0.72-0.01-1.13
	c0.18-0.25,0.33-0.6,0.33-0.9c-0.01-2.67-0.06-5.35-0.1-8.02c-0.01-0.92-0.03-0.94-0.96-0.85c-1.78,0.17-3.53,0.06-5.26-0.49
	c-0.44-0.14-0.97-0.12-1.44-0.07c-0.61,0.06-1.13-0.26-1.16-0.9c-0.03-0.64-0.02-1.28,0.04-1.91c0.2-2.1,0.44-4.2,0.64-6.3
	c0.07-0.75,0.09-1.51,0.08-2.27c0-0.33-0.08-0.69-0.22-1c-0.21-0.47-0.26-0.85,0.16-1.24c0.16-0.14,0.3-0.39,0.31-0.6
	c0.06-1.11,0.07-2.23,0.09-3.34c0-0.12-0.05-0.24-0.1-0.48c-0.62,0.67-1.17,1.24-1.68,1.85c-0.88,1.05-1.74,2.12-2.59,3.2
	c-0.13,0.16-0.21,0.39-0.23,0.59c-0.06,0.79-0.09,1.59-0.14,2.38c-0.1,1.47-0.32,2.93,0.23,4.38c0.27,0.71-0.08,1.2-0.82,1.12
	c-1-0.1-1.99-0.36-2.98-0.52c-0.18-0.03-0.49,0.05-0.56,0.18C54.18,27.11,53.79,28.42,53.75,29.72z M79.96,42.16
	c0-0.04-0.01-0.08-0.01-0.13c-2.09,0.1-4.18,0.2-6.27,0.29c-0.39,0.02-0.64,0.14-0.64,0.59c-0.02,2.53-0.04,5.07-0.08,7.6
	c-0.01,0.4,0.17,0.57,0.55,0.63c0.61,0.1,1.21,0.24,1.81,0.37c1.76,0.36,3.51,0.74,5.27,1.07c1.96,0.36,3.92,0.68,5.89,1.01
	c2.22,0.37,4.44,0.72,6.66,1.07c0.18,0.03,0.42,0.02,0.56-0.07c0.62-0.44,0.89-1.88,0.57-2.57c-0.21-0.44-0.33-0.93-0.51-1.38
	c-0.08-0.2-0.18-0.4-0.32-0.56c-0.85-0.98-1.73-1.93-2.58-2.91c-0.28-0.32-0.5-0.35-0.92-0.21c-1.6,0.53-3.22,1.01-4.85,1.46
	c-0.51,0.14-1.05,0.13-1.42-0.36c-0.33-0.44-0.21-0.9-0.03-1.36c0.16-0.41,0.35-0.81,0.47-1.23c0.24-0.84,0.51-1.68,0.65-2.54
	c0.15-0.95-0.14-1.14-1.05-1.04C82.47,42.01,81.21,42.07,79.96,42.16z M56.49,52.72c-6.62,0.08-13.13,0.16-19.64,0.25
	c-0.01,0.07-0.03,0.14-0.04,0.21c0.16,0.13,0.32,0.27,0.49,0.38c0.62,0.4,1.26,0.76,1.86,1.18c0.77,0.54,0.69,1.4-0.16,1.79
	c-0.34,0.16-0.71,0.27-1.08,0.32c-1.71,0.24-3.43,0.44-5.14,0.7c-0.52,0.08-1.01,0.31-1.52,0.46c0,0.09,0.01,0.19,0.01,0.28
	c0.66,0.25,1.32,0.51,1.99,0.74c1.92,0.65,3.93,0.88,5.94,0.91c2.45,0.04,4.9,0.03,7.35-0.06c2.47-0.09,4.93-0.28,7.39-0.44
	c0.82-0.05,1.64-0.15,2.55-0.23C56,57.06,55.89,54.93,56.49,52.72z M62.01,38.61c-0.02,0.04-0.04,0.07-0.06,0.11
	c0.3,0.37,0.61,0.73,0.89,1.11c0.23,0.32,0.23,0.76-0.19,0.82c-0.63,0.1-1.31,0.11-1.92-0.03c-0.95-0.2-1.85-0.59-2.79-0.84
	c-0.69-0.19-1.41-0.28-2.1-0.41c-0.08,1.27,0.88,1.88,1.36,2.75c0.32-0.32,0.61-0.26,0.83,0.1c0.2,0.32,0.39,0.65,0.55,0.99
	c0.27,0.62,0.39,1.34,0.79,1.86c1.08,1.39,1.61,3.01,2.15,4.64c0.37,1.15,0.39,1.1,1.55,1.15c1.43,0.05,2.81-0.21,4.19-0.53
	c0.57-0.13,0.73-0.42,0.74-1c0.04-2.39,0.13-4.78,0.23-7.18c0.02-0.4-0.17-0.57-0.48-0.72c-1.14-0.57-2.26-1.16-3.4-1.72
	C63.58,39.33,62.79,38.98,62.01,38.61z M73.16,19.34c-0.07,0-0.13,0.01-0.2,0.01c-0.02,0.24-0.06,0.49-0.06,0.73
	c0.04,4.03,0.1,8.06,0.13,12.09c0.02,2.61,0.02,5.23,0,7.84c0,0.52,0.16,0.71,0.69,0.68c0.83-0.06,1.67-0.05,2.51-0.08
	c2.41-0.08,4.82-0.16,7.23-0.23c0.44-0.01,0.56-0.15,0.41-0.6c-0.09-0.26-0.11-0.62,0.01-0.85c0.19-0.35,0.11-0.59-0.09-0.87
	c-0.73-1.05-1.45-2.1-2.16-3.15c-0.24-0.35-0.42-0.3-0.62,0.02c-0.31,0.51-0.64,1.01-0.94,1.52c-0.68,1.14-1.34,2.3-2.04,3.44
	c-0.22,0.36-0.54,0.72-1.02,0.54c-0.43-0.17-0.66-0.55-0.64-1.05c0.01-0.2-0.01-0.4,0-0.6c0.06-1.95,0.11-3.9,0.19-5.86
	c0.02-0.58,0.11-1.15,0.16-1.73c0.02-0.24,0.04-0.48,0.01-0.71c-0.12-0.91-0.21-1.82-0.4-2.72c-0.21-1.02-0.13-2.09-0.72-3.04
	c-0.47-0.76-0.79-1.6-1.16-2.42C74.01,21.34,73.59,20.34,73.16,19.34z M62.56,52.4c0.49,1.15,0.96,2.18,1.37,3.23
	c1.29,3.26,2.48,6.55,4.77,9.31c0.53,0.64,1.04,1.25,1.77,1.65c0.21,0.12,0.47,0.15,0.7,0.22c0.07-0.24,0.19-0.48,0.19-0.72
	c0-4.47-0.02-8.94-0.04-13.41c0-0.17-0.04-0.47-0.12-0.49c-0.81-0.22-1.68-0.64-2.45-0.52c-1.36,0.22-2.69,0.64-4.1,0.64
	C63.99,52.29,63.34,52.36,62.56,52.4z M54.88,64.44c0.02-0.06,0.04-0.11,0.05-0.17c-0.12-0.09-0.22-0.25-0.35-0.27
	c-0.63-0.09-1.26-0.22-1.89-0.19c-1.29,0.07-2.57,0.31-3.86,0.36c-1.97,0.07-3.94,0.08-5.91,0.05c-1.53-0.02-3.06-0.21-4.59-0.21
	c-2.86,0-5.53-0.79-8.14-1.86c-0.83-0.34-1.3-0.88-1.28-1.8c0.01-0.53-0.24-0.66-0.72-0.52c-1.09,0.3-2.19,0.57-3.28,0.88
	c-0.61,0.17-1.23,0.35-1.79,0.64c-0.72,0.38-0.81,1-0.17,1.47c0.77,0.58,1.59,1.22,2.49,1.46c1.49,0.4,3.04,0.57,4.58,0.72
	c2.71,0.26,5.43,0.48,8.15,0.62c1.25,0.06,2.5-0.07,3.75-0.16c1.9-0.14,3.8-0.32,5.71-0.47c2.2-0.17,4.4-0.33,6.61-0.49
	C54.46,64.48,54.67,64.46,54.88,64.44z M66.47,28.09c0.27-0.18,0.7-0.31,0.88-0.6c0.86-1.38,0.96-3.91-1.1-4.8
	c-0.89-0.39-1.37,0.06-1.51,0.86c-0.2,1.13-0.29,2.29-0.39,3.44c-0.02,0.19,0.12,0.51,0.27,0.56
	C65.17,27.76,65.76,27.89,66.47,28.09z M34.91,28.97c-0.81-0.2-1.71-0.42-2.62-0.62c-0.07-0.02-0.16,0.08-0.24,0.12
	c0.06,0.11,0.1,0.23,0.18,0.32c0.28,0.31,0.61,0.57,0.84,0.91c0.83,1.23,0.31,2.34-0.81,2.6c-0.15,0.03-0.35,0.3-0.35,0.45
	c0,0.17,0.16,0.43,0.32,0.49c0.47,0.18,0.62,0.54,0.69,0.96c0.12,0.81,0.11,0.79,0.94,0.79c0.54,0,0.62-0.24,0.59-0.7
	c-0.05-0.63-0.09-1.27-0.03-1.89C34.53,31.28,34.73,30.17,34.91,28.97z M89.54,45.65c-1-1.26-1.87-2.37-2.75-3.46
	c-0.08-0.09-0.25-0.11-0.24-0.1c-0.39,1.6-0.76,3.14-1.16,4.83C86.78,46.49,88.08,46.09,89.54,45.65z M117.66,68.89
	c-1.48-0.79-2.81-1.51-4.13-2.22c0,1.5,0,2.94,0,4.39C114.87,70.36,116.21,69.66,117.66,68.89z M58.23,19.88
	c-0.05-0.02-0.11-0.04-0.16-0.06c-0.94,1.66-1.87,3.33-2.87,5.11c1.17,0.24,2.18,0.45,3.37,0.7C57.78,23.61,58.14,21.74,58.23,19.88
	z M120.47,75.86c1.81-0.21,3.47-0.4,5.19-0.6c-1-0.9-1.99-1.81-3.01-2.69c-0.07-0.06-0.38,0-0.43,0.09
	C121.63,73.69,121.07,74.75,120.47,75.86z M110.91,58.71c0-0.04,0-0.08,0-0.11c-2.57-0.32-5.14-0.65-7.81-0.98
	c0.11,0.21,0.13,0.36,0.23,0.44c0.64,0.54,1.28,1.08,1.95,1.57c0.16,0.12,0.46,0.13,0.68,0.09
	C107.61,59.39,109.26,59.04,110.91,58.71z M77.97,36.6c0.06,0.02,0.12,0.03,0.18,0.05c0.09-0.1,0.2-0.18,0.27-0.29
	c0.63-0.96,1.27-1.92,1.86-2.9c0.09-0.15,0.03-0.46-0.07-0.63c-0.47-0.76-0.97-1.5-1.47-2.24c-0.09-0.13-0.23-0.21-0.45-0.41
	C78.18,32.43,78.07,34.52,77.97,36.6z M65.39,14.66c-0.08,0.93-0.11,1.72-0.23,2.5c-0.08,0.54,0.05,0.87,0.57,1.07
	c0.65,0.25,1.35,0.2,1.68-0.15c0.6-0.66,0.4-2.34-0.38-2.78C66.56,15.02,66.01,14.9,65.39,14.66z M58.98,37.55
	c0.74,1.18,1.96,2.12,2.65,2.05C60.76,38.82,60.1,37.89,58.98,37.55z M24.13,41.81c0.08-0.08,0.16-0.15,0.24-0.23
	c-0.13-0.28-0.26-0.55-0.39-0.83c-0.15,0.19-0.31,0.37-0.46,0.56C23.72,41.48,23.93,41.65,24.13,41.81z"/>
<path d="M32.56,95.33c-0.58-0.34-0.62-0.65-0.14-1.01c0.46-0.35,0.97-0.63,1.44-0.96c0.29-0.2,0.71-0.3,0.7-0.79
	c0-0.1,0.2-0.25,0.34-0.3c2.58-0.83,4.41-2.81,6.57-4.28c1.18-0.81,2.34-1.67,3.52-2.48c1.01-0.69,2.07-1.32,3.06-2.03
	c0.43-0.31,0.76-0.76,1.1-1.16c0.31-0.37,0.5-0.86,1.08-0.96c0.16-0.03,0.3-0.25,0.41-0.42c1.33-2.03,2.72-4.03,3.95-6.12
	c0.55-0.94,0.79-2.07,1.1-2.92c0.28,0.73,0.57,1.62,0.96,2.47c0.34,0.74,0.73,1.47,1.19,2.14c1.08,1.54,1.47,3.34,2.01,5.08
	c0.89,2.85,1.71,5.72,2.57,8.58c0.19,0.63,0.42,1.24,0.67,1.85c1.06,2.58,1.81,5.26,2.42,7.98c0.09,0.42-0.03,0.9-0.06,1.34
	c-0.02,0.22-0.07,0.43-0.08,0.65c-0.02,0.87-0.69,1.37-1.49,1c-0.97-0.45-1.89-1.02-2.83-1.53c-1.65-0.91-3.4-1.53-5.23-1.95
	c-1.8-0.42-3.56-1.01-5.38-1.31c-2.53-0.41-5.09-0.62-7.64-0.89c-1.42-0.15-2.85-0.26-4.28-0.39c-0.1-0.01-0.24,0-0.29-0.06
	c-0.48-0.69-1.15-0.42-1.72-0.27c-0.91,0.24-1.79,0-2.68-0.03c-0.04,0-0.09,0-0.12-0.02c-0.75-0.74-1.26-0.1-1.83,0.29
	c-3.03,2.06-6.17,3.96-9.48,5.55c-0.17,0.08-0.42-0.03-0.64-0.05c0.08-0.22,0.11-0.5,0.27-0.63c0.25-0.21,0.58-0.34,0.89-0.49
	c3.19-1.57,6.2-3.45,9.12-5.46C32.2,95.63,32.35,95.5,32.56,95.33z"/>
<path class="st0" d="M72.77,13.4c1.23,0.62,2.35,1.18,3.47,1.74c3.5,1.75,7.04,3.43,10.49,5.28c2.27,1.22,4.4,2.72,6.62,4.04
	c2.56,1.53,5.16,2.99,7.74,4.49c4.38,2.56,8.76,5.12,13.13,7.69c0.64,0.38,1.24,0.82,1.86,1.24c-0.01,0.07-0.02,0.14-0.03,0.21
	c-1.43,0.23-2.84,0.53-4.28,0.69c-3.05,0.33-6.1,0.6-9.15,0.87c-1.43,0.13-2.86,0.21-4.29,0.3c-3.02,0.18-6.04,0.31-9.06,0.53
	c-1.29,0.09-2.14-0.31-2.86-1.43c-2.46-3.84-5.16-7.53-7.48-11.44c-1.67-2.81-2.87-5.89-4.29-8.84c-0.52-1.08-1.05-2.14-1.58-3.21
	C72.75,14.91,72.69,14.23,72.77,13.4z"/>
<path class="st0" d="M46.42,51.39c-2.49,0-4.98,0-7.48,0c-0.82,0-1.64-0.01-2.45-0.06c-0.14-0.01-0.3-0.23-0.38-0.39
	c-0.06-0.13-0.02-0.31-0.02-0.47c0-5.41-0.03-10.82,0.03-16.23c0.01-1.44,0.3-2.89,0.45-4.33c0.05-0.47,0.33-0.51,0.72-0.43
	c2.89,0.64,5.62,1.73,8.34,2.86c2.59,1.07,5.21,2.05,7.83,3.05c0.39,0.15,0.58,0.38,0.69,0.79c0.54,2.04,1.16,4.05,1.68,6.09
	c0.41,1.63,1.17,3.18,1.08,4.92c-0.06,1.15-0.14,2.29-0.2,3.44c-0.02,0.37-0.16,0.53-0.55,0.52c-3.25-0.01-6.5-0.01-9.75-0.01
	C46.42,51.24,46.42,51.32,46.42,51.39z"/>
<path class="st0" d="M88.83,42.14c0.23-0.05,0.36-0.1,0.49-0.1c1.95-0.08,3.9-0.12,5.85-0.25c2.26-0.16,4.52-0.4,6.78-0.6
	c1.17-0.1,2.34-0.19,3.51-0.31c2.55-0.25,5.11-0.47,7.66-0.77c1-0.12,1.99-0.39,2.98-0.6c0.32-0.07,0.58-0.13,0.57,0.37
	c-0.04,2.47-0.07,4.95-0.09,7.42c-0.01,2.09-0.02,4.19,0.01,6.28c0.01,1.05,0.12,2.11,0.17,3.16c0.01,0.25,0.04,0.66-0.08,0.72
	c-0.34,0.16-0.75,0.26-1.12,0.23c-0.73-0.06-1.44-0.24-2.17-0.34c-1.77-0.23-3.55-0.44-5.33-0.66c-1.52-0.19-3.04-0.39-4.56-0.58
	c-0.69-0.09-1.39-0.14-2.07-0.28c-0.29-0.06-0.62-0.22-0.82-0.43c-3.96-4.1-7.81-8.3-11.4-12.73C89.09,42.53,89,42.38,88.83,42.14z"
	/>
<path class="st0" d="M72.9,60.2c0-2.21,0-4.43,0-6.64c0-0.86,0.05-0.87,0.89-0.71c4.14,0.79,8.29,1.6,12.44,2.35
	c2.09,0.38,4.21,0.66,6.31,0.98c0.39,0.06,0.66,0.19,0.71,0.65c0.06,0.52,0.45,0.78,0.93,0.74c0.81-0.07,1.65-0.11,2.4-0.37
	c1.22-0.41,2.36-0.15,3.51,0.14c0.43,0.11,0.73,0.47,0.75,1.03c0.02,0.5,0.23,1,0.35,1.5c0.06,0.25,0.11,0.5,0.17,0.76
	c0.08,0.33-0.01,0.52-0.37,0.61c-1.39,0.36-2.76,0.75-4.15,1.11c-1,0.26-2,0.54-3.01,0.72c-1.49,0.27-3,0.43-4.49,0.68
	c-1.53,0.25-3.05,0.57-4.58,0.83c-0.61,0.1-1.23,0.07-1.84,0.16c-2.36,0.34-4.72,0.69-7.08,1.05c-0.77,0.12-1.53,0.27-2.29,0.38
	c-0.74,0.11-0.82,0-0.77-0.82c0.1-1.71,0.19-3.42,0.28-5.13C73.01,60.2,72.95,60.2,72.9,60.2z"/>
<path class="st0" d="M53.55,33.71c-1.61-0.61-3.1-1.15-4.58-1.73c-2.57-1.02-5.11-2.09-7.69-3.07c-1-0.38-2.07-0.57-3.11-0.84
	c-0.5-0.13-1-0.19-1.3-0.72c-0.08-0.15-0.49-0.28-0.61-0.21c-0.82,0.49-1.59,0.08-2.37-0.05c-0.4-0.07-0.8-0.21-1.37-0.37
	c0.29-0.25,0.45-0.46,0.67-0.58c1.46-0.81,2.89-1.67,4.4-2.38c2.46-1.16,4.97-2.21,7.46-3.31c2.99-1.33,5.99-2.65,8.97-4
	c2.69-1.23,5.37-2.5,8.05-3.75c0.15-0.07,0.31-0.14,0.54-0.1c-0.12,0.14-0.23,0.3-0.36,0.43c-3.63,3.48-5.81,7.9-8.06,12.28
	c-0.77,1.5-1.34,3.09-1.21,4.81c0.08,1.03,0.33,2.04,0.5,3.06C53.5,33.3,53.51,33.43,53.55,33.71z"/>
<path class="st0" d="M53.75,29.72c0.04-1.31,0.43-2.61,1.08-3.84c0.07-0.13,0.38-0.21,0.56-0.18c1,0.16,1.98,0.42,2.98,0.52
	c0.74,0.08,1.09-0.41,0.82-1.12c-0.55-1.44-0.33-2.91-0.23-4.38c0.05-0.79,0.07-1.59,0.14-2.38c0.02-0.2,0.1-0.43,0.23-0.59
	c0.85-1.08,1.71-2.15,2.59-3.2c0.51-0.61,1.07-1.17,1.68-1.85c0.05,0.24,0.1,0.36,0.1,0.48c-0.02,1.12-0.04,2.23-0.09,3.34
	c-0.01,0.21-0.15,0.46-0.31,0.6c-0.43,0.38-0.37,0.77-0.16,1.24c0.14,0.31,0.22,0.66,0.22,1c0.01,0.76-0.01,1.52-0.08,2.27
	c-0.2,2.1-0.44,4.2-0.64,6.3c-0.06,0.63-0.07,1.28-0.04,1.91c0.03,0.64,0.55,0.96,1.16,0.9c0.48-0.05,1-0.07,1.44,0.07
	c1.72,0.55,3.47,0.66,5.26,0.49c0.93-0.09,0.95-0.06,0.96,0.85c0.04,2.67,0.08,5.35,0.1,8.02c0,0.3-0.15,0.65-0.33,0.9
	c-0.29,0.41-0.3,0.73,0.01,1.13c0.18,0.23,0.33,0.55,0.32,0.84c-0.02,2.32-0.09,4.63-0.13,6.94c-0.01,0.41-0.16,0.55-0.54,0.44
	c-0.34-0.09-0.74-0.12-1.01-0.32c-0.2-0.15-0.34-0.53-0.34-0.81c0.02-2,0.07-3.99,0.12-5.99c0.01-0.34-0.02-0.69,0.05-1.01
	c0.06-0.28,0.23-0.54,0.37-0.79c0.07-0.12,0.25-0.23,0.24-0.32c-0.04-0.31-0.05-0.8-0.24-0.89c-0.53-0.27-0.84-1.28-1.62-0.71
	c-0.42,0.31-0.66,0.19-1,0.02c-1.76-0.88-3.5-1.79-5.29-2.62c-1.06-0.49-2.18-0.84-3.26-1.29c-0.34-0.14-0.69-0.35-0.93-0.62
	c-1.31-1.44-2.68-2.84-3.48-4.68C54.34,30.18,54.06,30.02,53.75,29.72z"/>
<path class="st0" d="M79.96,42.16c1.25-0.09,2.51-0.15,3.75-0.27c0.92-0.09,1.2,0.1,1.05,1.04c-0.13,0.86-0.4,1.7-0.65,2.54
	c-0.12,0.42-0.3,0.82-0.47,1.23c-0.18,0.46-0.31,0.92,0.03,1.36c0.37,0.49,0.91,0.5,1.42,0.36c1.62-0.46,3.25-0.93,4.85-1.46
	c0.42-0.14,0.65-0.11,0.92,0.21c0.85,0.98,1.72,1.94,2.58,2.91c0.14,0.16,0.24,0.36,0.32,0.56c0.18,0.46,0.3,0.94,0.51,1.38
	c0.33,0.69,0.05,2.13-0.57,2.57c-0.14,0.1-0.38,0.1-0.56,0.07c-2.22-0.35-4.44-0.7-6.66-1.07c-1.96-0.33-3.93-0.65-5.89-1.01
	c-1.76-0.33-3.51-0.71-5.27-1.07c-0.6-0.12-1.21-0.27-1.81-0.37c-0.38-0.06-0.55-0.23-0.55-0.63c0.03-2.53,0.06-5.07,0.08-7.6
	c0-0.45,0.25-0.58,0.64-0.59c2.09-0.09,4.18-0.19,6.27-0.29C79.96,42.08,79.96,42.12,79.96,42.16z"/>
<path class="st0" d="M56.49,52.72c-0.6,2.21-0.49,4.34,0,6.48c-0.91,0.08-1.73,0.18-2.55,0.23c-2.46,0.16-4.93,0.35-7.39,0.44
	c-2.45,0.08-4.9,0.1-7.35,0.06c-2.01-0.04-4.01-0.26-5.94-0.91c-0.67-0.23-1.32-0.49-1.99-0.74c0-0.09-0.01-0.19-0.01-0.28
	c0.51-0.16,1-0.39,1.52-0.46c1.71-0.26,3.43-0.45,5.14-0.7c0.37-0.05,0.74-0.17,1.08-0.32c0.85-0.39,0.93-1.25,0.16-1.79
	c-0.6-0.42-1.24-0.78-1.86-1.18c-0.17-0.11-0.33-0.25-0.49-0.38c0.01-0.07,0.03-0.14,0.04-0.21C43.36,52.89,49.87,52.8,56.49,52.72z
	"/>
<path class="st0" d="M62.01,38.61c0.78,0.37,1.57,0.72,2.34,1.1c1.14,0.56,2.27,1.15,3.4,1.72c0.31,0.15,0.49,0.32,0.48,0.72
	c-0.1,2.39-0.19,4.78-0.23,7.18c-0.01,0.58-0.17,0.87-0.74,1c-1.38,0.32-2.76,0.58-4.19,0.53c-1.16-0.04-1.17,0-1.55-1.15
	c-0.53-1.63-1.06-3.25-2.15-4.64c-0.4-0.51-0.52-1.24-0.79-1.86c-0.15-0.34-0.35-0.67-0.55-0.99c-0.23-0.36-0.51-0.42-0.83-0.1
	c-0.48-0.87-1.44-1.48-1.36-2.75c0.69,0.13,1.41,0.22,2.1,0.41c0.94,0.25,1.84,0.64,2.79,0.84c0.62,0.13,1.3,0.12,1.92,0.03
	c0.42-0.06,0.41-0.5,0.19-0.82c-0.27-0.39-0.59-0.74-0.89-1.11C61.97,38.68,61.99,38.65,62.01,38.61z"/>
<path class="st0" d="M73.16,19.34c0.43,1,0.85,2,1.3,2.98c0.37,0.82,0.69,1.66,1.16,2.42c0.59,0.95,0.51,2.02,0.72,3.04
	c0.18,0.9,0.28,1.81,0.4,2.72c0.03,0.23,0.01,0.48-0.01,0.71c-0.05,0.58-0.14,1.15-0.16,1.73c-0.08,1.95-0.13,3.9-0.19,5.86
	c-0.01,0.2,0.01,0.4,0,0.6c-0.02,0.49,0.21,0.88,0.64,1.05c0.48,0.18,0.8-0.18,1.02-0.54c0.69-1.14,1.35-2.29,2.04-3.44
	c0.3-0.51,0.63-1.01,0.94-1.52c0.2-0.33,0.38-0.37,0.62-0.02c0.71,1.06,1.44,2.1,2.16,3.15c0.19,0.28,0.28,0.52,0.09,0.87
	c-0.12,0.22-0.1,0.59-0.01,0.85c0.15,0.44,0.03,0.58-0.41,0.6c-2.41,0.07-4.82,0.15-7.23,0.23c-0.84,0.03-1.67,0.02-2.51,0.08
	c-0.53,0.03-0.69-0.16-0.69-0.68c0.02-2.61,0.02-5.23,0-7.84c-0.03-4.03-0.09-8.06-0.13-12.09c0-0.24,0.04-0.49,0.06-0.73
	C73.03,19.35,73.09,19.35,73.16,19.34z"/>
<path class="st0" d="M62.56,52.4c0.78-0.04,1.43-0.11,2.09-0.1c1.41,0.01,2.74-0.42,4.1-0.64c0.77-0.12,1.64,0.3,2.45,0.52
	c0.08,0.02,0.12,0.32,0.12,0.49c0.02,4.47,0.04,8.94,0.04,13.41c0,0.24-0.13,0.48-0.19,0.72c-0.24-0.07-0.49-0.1-0.7-0.22
	c-0.73-0.4-1.24-1.01-1.77-1.65c-2.28-2.76-3.48-6.05-4.77-9.31C63.52,54.57,63.05,53.55,62.56,52.4z"/>
<path class="st0" d="M54.88,64.44c-0.21,0.02-0.42,0.04-0.63,0.05c-2.2,0.16-4.4,0.32-6.61,0.49c-1.9,0.15-3.8,0.33-5.71,0.47
	c-1.25,0.09-2.51,0.23-3.75,0.16c-2.72-0.14-5.44-0.36-8.15-0.62c-1.54-0.15-3.1-0.32-4.58-0.72c-0.9-0.24-1.72-0.88-2.49-1.46
	c-0.64-0.48-0.55-1.09,0.17-1.47c0.55-0.29,1.18-0.46,1.79-0.64c1.09-0.31,2.19-0.58,3.28-0.88c0.48-0.13,0.74-0.01,0.72,0.52
	c-0.03,0.92,0.45,1.46,1.28,1.8c2.61,1.07,5.28,1.86,8.14,1.86c1.53,0,3.06,0.19,4.59,0.21c1.97,0.03,3.94,0.02,5.91-0.05
	c1.29-0.05,2.57-0.28,3.86-0.36c0.62-0.04,1.26,0.1,1.89,0.19c0.13,0.02,0.23,0.17,0.35,0.27C54.92,64.33,54.9,64.38,54.88,64.44z"
	/>
<path class="st0" d="M66.47,28.09c-0.71-0.2-1.3-0.33-1.85-0.54c-0.14-0.06-0.28-0.38-0.27-0.56c0.1-1.15,0.19-2.31,0.39-3.44
	c0.14-0.8,0.62-1.25,1.51-0.86c2.05,0.89,1.96,3.42,1.1,4.8C67.17,27.78,66.74,27.91,66.47,28.09z"/>
<path class="st0" d="M34.91,28.97c-0.18,1.2-0.38,2.3-0.49,3.42c-0.07,0.62-0.02,1.26,0.03,1.89c0.04,0.46-0.05,0.71-0.59,0.7
	c-0.83,0-0.82,0.02-0.94-0.79c-0.06-0.43-0.22-0.79-0.69-0.96c-0.15-0.06-0.32-0.32-0.32-0.49c0-0.16,0.2-0.42,0.35-0.45
	c1.12-0.26,1.64-1.37,0.81-2.6c-0.23-0.34-0.56-0.6-0.84-0.91c-0.08-0.09-0.12-0.21-0.18-0.32c0.08-0.04,0.17-0.14,0.24-0.12
	C33.2,28.55,34.1,28.77,34.91,28.97z"/>
<path class="st0" d="M89.54,45.65c-1.46,0.44-2.76,0.84-4.16,1.26c0.41-1.69,0.78-3.23,1.16-4.83c-0.01,0,0.17,0.01,0.24,0.1
	C87.67,43.28,88.54,44.39,89.54,45.65z"/>
<path class="st0" d="M117.66,68.89c-1.45,0.76-2.79,1.47-4.13,2.17c0-1.45,0-2.89,0-4.39C114.85,67.39,116.19,68.1,117.66,68.89z"/>
<path class="st0" d="M58.23,19.88c-0.09,1.86-0.45,3.73,0.34,5.74c-1.19-0.25-2.2-0.46-3.37-0.7c1-1.78,1.94-3.44,2.87-5.11
	C58.12,19.84,58.17,19.86,58.23,19.88z"/>
<path class="st0" d="M120.47,75.86c0.6-1.11,1.17-2.16,1.76-3.21c0.05-0.09,0.36-0.15,0.43-0.09c1.01,0.88,2.01,1.79,3.01,2.69
	C123.93,75.46,122.27,75.65,120.47,75.86z"/>
<path class="st0" d="M110.91,58.71c-1.65,0.34-3.3,0.69-4.95,1.01c-0.22,0.04-0.52,0.03-0.68-0.09c-0.67-0.49-1.31-1.04-1.95-1.57
	c-0.09-0.08-0.12-0.23-0.23-0.44c2.67,0.34,5.24,0.66,7.81,0.98C110.91,58.63,110.91,58.67,110.91,58.71z"/>
<path class="st0" d="M77.97,36.6c0.11-2.09,0.21-4.18,0.33-6.42c0.22,0.2,0.37,0.28,0.45,0.41c0.5,0.74,1,1.48,1.47,2.24
	c0.1,0.17,0.16,0.48,0.07,0.63c-0.59,0.98-1.23,1.94-1.86,2.9c-0.07,0.11-0.18,0.19-0.27,0.29C78.09,36.63,78.03,36.62,77.97,36.6z"
	/>
<path class="st0" d="M65.39,14.66c0.62,0.23,1.17,0.36,1.64,0.63c0.78,0.45,0.98,2.13,0.38,2.78c-0.33,0.36-1.04,0.41-1.68,0.15
	c-0.52-0.2-0.65-0.53-0.57-1.07C65.28,16.38,65.31,15.59,65.39,14.66z"/>
<path class="st0" d="M58.98,37.55c1.13,0.33,1.78,1.27,2.65,2.05C60.94,39.67,59.72,38.73,58.98,37.55z"/>
<path class="st0" d="M24.13,41.81c-0.2-0.17-0.41-0.33-0.61-0.5c0.15-0.19,0.31-0.37,0.46-0.56c0.13,0.28,0.26,0.55,0.39,0.83
	C24.29,41.66,24.21,41.74,24.13,41.81z"/>
</svg>
