<?xml version="1.0" encoding="utf-8"?>
<!-- Generator: Adobe Illustrator 26.5.0, SVG Export Plug-In . SVG Version: 6.00 Build 0)  -->
<svg version="1.1" id="Layer_1" xmlns="http://www.w3.org/2000/svg" xmlns:xlink="http://www.w3.org/1999/xlink" x="0px" y="0px"
	 viewBox="0 0 264.2 264.4" style="enable-background:new 0 0 264.2 264.4;" xml:space="preserve">
<style type="text/css">
	.st0{fill:#FFFFFF;}
</style>
<circle class="st0" cx="132.1" cy="132.3" r="132.1"/>
<g>
	<path d="M221.9,151.4c2.9,1.6,5.8,3.3,8.9,4.7c2.8,1.2,5.3,2.7,7.5,4.8c3,2.8,6,5.6,9,8.4c1.9,1.8,3.2,3.9,4.1,6.3
		c0.4,1,0.3,1.8-0.7,2.3c-1,0.5-1.6-0.3-2-1.1c-0.2-0.4-0.5-0.8-0.5-1c-1.2-0.2-2.2-0.4-3.2-0.6c-2.7-0.8-5.3,0-7.9,0.7
		c-0.9,0.3-1.7,0.7-2.6,1c-0.9,0.3-1.9,0.5-2.6-0.3c-0.7-0.7-0.5-1.6-0.1-2.4c1.5-3.1,3.1-6.2,4.7-9.3c0.4-0.8,0.5-1.3-0.3-1.9
		c-0.9-0.7-1.7-1.4-2.7-2.2c-0.3,0.4-0.5,0.8-0.8,1c-0.5,0.3-1,0.5-1.5,0.7c-0.7,0.2-1.5,0.1-2.1,0.4c-3,1.7-6,3.6-9,5.4
		c-0.5,0.3-1.2,0.7-1.8,0.7c-1.2,0-1.6-1.3-1.1-2.6c1-2.6,2-5.1,1.6-7.9c-0.2-1.8-0.7-3.7-1.2-5.5c-0.2-0.7-0.7-1-1.5-0.7
		c-2.5,0.7-5.1,1.3-7.7,2.1c-2.8,0.8-5.5,1.8-8.3,2.6c-5.9,1.7-11.7,3.5-17.6,5.1c-2.3,0.6-4.6,0.9-6.8,1.5
		c-6.1,1.9-12.2,4-18.4,5.9c-2.3,0.7-4.6,1.3-7.2,2.1c2.8,2.8,5.4,5.5,8.1,8.2c0,0.1-0.1,0.3-0.1,0.4c-0.6,0-1.3,0.2-1.9,0
		c-7.8-2.1-15.5-4.1-23-7.1c-3.9-1.6-8-2.7-11.9-4.3c-3-1.3-5.9-2.9-8.8-4.5c-0.6-0.3-1-1-1.5-1.4c-0.5-0.5-1-0.8-1.6-1.4
		c0.1-0.3,0.2-0.8,0.3-1.4c0.1-0.5,0.2-1.3-0.1-1.4c-0.5-0.3-1.2-0.4-1.8-0.3c-1.2,0.4-2.3,1-3.4,1.5c-0.5,0.2-1.1,0.4-1.7,0.4
		c-4.5,0.6-8.9,1.1-13.4,1.7c-6.5,0.9-13,1-19.5,0.1c-2.9-0.4-5.7-0.6-8.6-1c-4.6-0.7-9.3-1.4-13.9-2.4c-2.2-0.4-4.2-1.4-6.3-2.1
		c-0.4-0.2-0.8-0.7-0.9-1.1c-0.4-2.7-0.7-5.4-1-8.1c-0.1-0.9,0.1-1.7,0.8-2.4c0.5-0.4,0.6-1.1,1-1.7c1.1-1.6,2.9-2.3,4.7-2.8
		c1.9-0.6,3.9-1.2,5.8-1.7c1.2-0.3,2.5-0.4,3.7-0.5c0.9-0.1,1.4-0.3,1.7-1.2c0.5-1.9,2.3-2.4,4-2.8c1.9-0.5,3.9-0.8,5.8-1.1
		c0.3-0.1,0.5-0.2,0.8-0.3c-0.6-1.1-1.2-1.9-1.6-2.9c-0.2-0.6,0-1.4,0.2-2c0.1-0.4,0.5-0.8,0.5-1.2c0.1-9.7,0.1-19.5,0.1-29.2
		c0-1.6,0-1.7-1.6-1.6c-1.3,0.1-2.5,0.2-3.8,0.4c-1,0.1-1.9-0.6-2.1-1.8c-0.8-4.4-1.1-8.8-0.9-13.2c0-0.4,0.2-0.8,0.2-1.3
		c0-0.4,0.1-0.7,0.1-1.1c-0.1-0.1-0.2-0.2-0.4-0.3c-0.4,0.4-1,0.7-1.3,1.2c-0.8,1.6-1.4,3.2-2.1,4.8c-0.1,0.3-0.1,0.6,0,0.9
		c0.2,1.5,0.4,2.9,0.5,4.4c0.1,1.4,0.2,2.8,0.3,4.2c0,0.2,0.1,0.5,0,0.7c-0.3,0.6-0.4,1.5-0.9,1.8c-0.7,0.5-1.6,0.1-2.2-0.6
		c-0.4-0.4-0.7-0.8-1.1-1.3c-1.1,1.8-2,3.4-3,5.1c-0.1,0.2-0.2,0.5-0.1,0.8c0.5,2.1,1,4.3,1.5,6.4c0.3,1,0.3,2.1-0.6,2.5
		c-0.7,0.3-1.7,0.2-2.5,0c-1-0.2-1.9-0.8-2.9-1.1c-0.3-0.1-1,0.2-1.2,0.5c-1.1,1.7-2,3.5-3,5.3c-0.4,0.6-0.3,1.2,0.1,1.8
		c0.6,1,1,2.1,1.3,3.2c0.3,1.4-0.4,2.4-1.6,2.3c-1.5-0.1-2.5,0.7-3.4,1.7c-2.2,2.4-2.1,1.5-0.8,4.5c0.5,1.2,1.1,2.3,1.5,3.5
		c0.6,1.5-0.2,2.7-1.8,2.8c-0.9,0.1-1.7-0.1-2.6-0.1c-1,0.1-2.1,0.3-3.1,0.5c-0.2,0-0.5,0.2-0.7,0.2c-1.1-0.2-1.8,0.5-2.5,1.1
		c-1.4,1-2.4,2.1-2.1,4c0.1,0.9-0.3,1.9-1.4,2.2c-1.1,0.3-2.1,0-2.7-1c-0.7-1.1-1.5-1.3-2.7-0.9c-4.7,1.4-9.4,2.7-14,4
		c-0.4,0.1-0.8,0.3-1.3,0.2c-0.3,0-0.8-0.3-0.9-0.5c-0.1-0.3,0.1-0.8,0.4-1c3-2.2,6.1-4.1,9.8-4.7c0.9-0.1,1.9,0,2.9,0
		c0.3,0,0.8,0,1-0.2c0.8-1.4,2.4-1.5,3.7-1.8c2.5-0.6,4.4-1.9,6.2-3.6c3.1-3,5.1-6.8,7.2-10.5c2.7-4.9,5.2-10,8-14.8
		c1.9-3.3,4.3-6.4,6.3-9.6c1-1.6,1.8-3.4,2.6-5.1c0.2-0.4,0.1-0.9,0.1-1.3c0.1-0.5,0-1.1,0.3-1.3c1.2-0.8,1.3-2.2,1.7-3.4
		c0.8-2,1.5-3.9,2.3-5.9c0.2-0.6,0.3-1.4,0.5-2c0.2-0.6,0.4-1.3,0.8-1.6c1-0.8,2.1-1.5,3.2-2.1c1.3-0.7,2.7-1.2,3.9-2
		c5.1-3.4,10.7-5.9,16.3-8.4c5-2.3,10.1-4.6,15.2-6.7c5-2.1,10.2-4,15.1-6.3c5.3-2.4,10.4-5.2,15.5-7.8c0.4-0.2,0.8-0.8,0.9-1.3
		c0.2-1.4,0.8-1.8,2.1-1.5c0.4,0.1,0.8,0.1,1.1,0c0.1-0.1,0-0.6,0.1-1c0.1-0.5,0.1-1.1,0.4-1.3c0.3-0.3,1.1-0.4,1.4-0.2
		c0.7,0.4,1.3,1,1.7,1.6c0.7,1,1.3,2.1,2.1,3.1c0.3,0.4,0.9,0.5,1.3,0.7c1.2,0.5,2.5,0.8,3.6,1.4c9.8,4.9,19.7,9.7,29.4,14.9
		c5.3,2.8,10.2,6.2,15.3,9.3c4.8,2.8,9.7,5.5,14.5,8.4c9.4,5.5,18.7,11.2,28,16.7c1,0.6,2,1,3,1.5c1,0.6,1.6,1.5,1.6,2.7
		c0,6.8-0.2,13.5-0.2,20.3c0,3.6,0.2,7.2,0.3,10.8c0.2,4.1,0.4,8.1,0.5,12.2c0,0.6-0.3,1.3-0.4,1.9c-0.1,0.7-0.2,1.5-0.1,2.2
		c0.4,1.7-1,2.6-1.7,3.8c0,0.1-0.2,0.1-0.3,0.2c-1.3,0.1-2.6,0.2-3.9,0.3c-1,0.1-2,0.3-3,0.4C221.9,150.9,221.9,151.2,221.9,151.4z
		 M141.6,50.4c-0.2,1.6,0,3,0.6,4.2c1,2.1,2.1,4.2,3.1,6.3c2.8,5.8,5.1,11.8,8.4,17.3c4.5,7.7,9.9,14.9,14.7,22.4
		c1.4,2.2,3.1,3,5.6,2.8c5.9-0.4,11.8-0.7,17.8-1c2.8-0.2,5.6-0.3,8.4-0.6c6-0.5,12-1.1,17.9-1.7c2.8-0.3,5.6-0.9,8.4-1.4
		c0-0.1,0-0.3,0.1-0.4c-1.2-0.8-2.4-1.7-3.6-2.4c-8.6-5-17.2-10.1-25.7-15.1C192.1,77.9,187,75,182,72c-4.4-2.6-8.5-5.5-13-7.9
		c-6.8-3.6-13.7-6.9-20.6-10.4C146.2,52.7,144.1,51.6,141.6,50.4z M90,124.9c0-0.2,0-0.3,0-0.5c6.4,0,12.7,0,19.1,0
		c0.7,0,1-0.3,1.1-1c0.1-2.3,0.3-4.5,0.4-6.7c0.2-3.4-1.3-6.5-2.1-9.6c-1-4-2.2-8-3.3-11.9c-0.2-0.8-0.6-1.3-1.4-1.5
		c-5.1-2-10.3-3.9-15.4-6c-5.3-2.2-10.7-4.4-16.4-5.6c-0.8-0.2-1.3-0.1-1.4,0.8c-0.3,2.8-0.9,5.6-0.9,8.5
		c-0.1,10.6-0.1,21.2-0.1,31.8c0,0.3-0.1,0.7,0,0.9c0.2,0.3,0.5,0.7,0.7,0.8c1.6,0.1,3.2,0.1,4.8,0.1
		C80.2,124.9,85.1,124.9,90,124.9z M173.1,106.7c0.3,0.5,0.5,0.8,0.7,1c7,8.7,14.6,16.9,22.4,25c0.4,0.4,1,0.7,1.6,0.8
		c1.3,0.3,2.7,0.4,4.1,0.5c3,0.4,6,0.8,8.9,1.1c3.5,0.4,7,0.8,10.5,1.3c1.4,0.2,2.8,0.5,4.3,0.7c0.7,0.1,1.5-0.1,2.2-0.5
		c0.2-0.1,0.2-0.9,0.2-1.4c-0.1-2.1-0.3-4.1-0.3-6.2c-0.1-4.1,0-8.2,0-12.3c0-4.8,0.1-9.7,0.2-14.5c0-1-0.5-0.9-1.1-0.7
		c-1.9,0.4-3.9,0.9-5.8,1.2c-5,0.6-10,1-15,1.5c-2.3,0.2-4.6,0.4-6.9,0.6c-4.4,0.4-8.9,0.9-13.3,1.2c-3.8,0.3-7.6,0.3-11.5,0.5
		C173.8,106.5,173.6,106.6,173.1,106.7z M141.9,142.1c0.1,0,0.2,0,0.3,0c-0.2,3.4-0.4,6.7-0.5,10.1c-0.1,1.6,0.1,1.8,1.5,1.6
		c1.5-0.2,3-0.5,4.5-0.7c4.6-0.7,9.3-1.4,13.9-2.1c1.2-0.2,2.4-0.1,3.6-0.3c3-0.5,6-1.1,9-1.6c2.9-0.5,5.9-0.8,8.8-1.3
		c2-0.4,3.9-0.9,5.9-1.4c2.7-0.7,5.4-1.5,8.1-2.2c0.7-0.2,0.9-0.6,0.7-1.2c-0.1-0.5-0.2-1-0.3-1.5c-0.2-1-0.6-1.9-0.7-2.9
		c-0.1-1.1-0.6-1.8-1.5-2c-2.3-0.6-4.5-1.1-6.9-0.3c-1.5,0.5-3.1,0.6-4.7,0.7c-0.9,0.1-1.7-0.4-1.8-1.5c-0.1-0.9-0.6-1.2-1.4-1.3
		c-4.1-0.6-8.3-1.2-12.4-1.9c-8.1-1.5-16.3-3.1-24.4-4.6c-1.6-0.3-1.7-0.3-1.7,1.4C141.9,133.4,141.9,137.8,141.9,142.1z
		 M103.9,90.2c-0.1-0.5-0.1-0.8-0.1-1.1c-0.3-2-0.8-4-1-6c-0.3-3.4,0.9-6.5,2.4-9.4c4.4-8.6,8.7-17.3,15.8-24.1
		c0.3-0.3,0.5-0.5,0.7-0.8c-0.5-0.1-0.8,0.1-1.1,0.2c-5.3,2.5-10.5,4.9-15.8,7.4C99,59,93.1,61.6,87.3,64.2
		c-4.9,2.2-9.8,4.2-14.6,6.5c-3,1.4-5.8,3.1-8.6,4.7c-0.4,0.2-0.7,0.6-1.3,1.1c1.1,0.3,1.9,0.6,2.7,0.7c1.5,0.3,3,1.1,4.6,0.1
		c0.3-0.2,1,0.1,1.2,0.4c0.6,1,1.6,1.2,2.5,1.4c2,0.5,4.1,0.9,6.1,1.6c5.1,1.9,10,4,15.1,6C97.9,87.9,100.8,89,103.9,90.2z
		 M104.3,82.4c0.6,0.6,1.2,0.9,1.4,1.4c1.6,3.6,4.3,6.4,6.8,9.2c0.5,0.5,1.2,0.9,1.8,1.2c2.1,0.9,4.3,1.6,6.4,2.5
		c3.5,1.6,6.9,3.4,10.4,5.1c0.7,0.3,1.1,0.6,2,0c1.5-1.1,2.1,0.9,3.2,1.4c0.4,0.2,0.4,1.1,0.5,1.7c0,0.2-0.4,0.4-0.5,0.6
		c-0.3,0.5-0.6,1-0.7,1.5c-0.1,0.6-0.1,1.3-0.1,2c-0.1,3.9-0.2,7.8-0.2,11.7c0,0.5,0.3,1.3,0.7,1.6c0.5,0.4,1.3,0.5,2,0.6
		c0.7,0.2,1.1-0.1,1.1-0.9c0.1-4.5,0.2-9.1,0.3-13.6c0-0.5-0.3-1.2-0.6-1.6c-0.6-0.8-0.6-1.4,0-2.2c0.4-0.5,0.6-1.2,0.6-1.8
		c0-5.2-0.1-10.5-0.2-15.7c0-1.8-0.1-1.8-1.9-1.7c-3.5,0.3-6.9,0.1-10.3-1c-0.9-0.3-1.9-0.2-2.8-0.1c-1.2,0.1-2.2-0.5-2.3-1.8
		c-0.1-1.3,0-2.5,0.1-3.7c0.4-4.1,0.9-8.2,1.3-12.4c0.1-1.5,0.2-3,0.2-4.5c0-0.6-0.2-1.4-0.4-2c-0.4-0.9-0.5-1.7,0.3-2.4
		c0.3-0.3,0.6-0.8,0.6-1.2c0.1-2.2,0.1-4.4,0.2-6.5c0-0.2-0.1-0.5-0.2-0.9c-1.2,1.3-2.3,2.4-3.3,3.6c-1.7,2.1-3.4,4.2-5.1,6.3
		c-0.3,0.3-0.4,0.8-0.5,1.2c-0.1,1.5-0.2,3.1-0.3,4.7c-0.2,2.9-0.6,5.7,0.5,8.6c0.5,1.4-0.2,2.4-1.6,2.2c-2-0.2-3.9-0.7-5.8-1
		c-0.4-0.1-1,0.1-1.1,0.4C105.2,77.2,104.4,79.8,104.3,82.4z M155.7,106.8c0-0.1,0-0.2,0-0.3c-4.1,0.2-8.2,0.4-12.3,0.6
		c-0.8,0-1.3,0.3-1.3,1.2c0,5-0.1,9.9-0.2,14.9c0,0.8,0.3,1.1,1.1,1.2c1.2,0.2,2.4,0.5,3.5,0.7c3.5,0.7,6.9,1.5,10.3,2.1
		c3.8,0.7,7.7,1.3,11.5,2c4.4,0.7,8.7,1.4,13.1,2.1c0.4,0.1,0.8,0,1.1-0.1c1.2-0.9,1.7-3.7,1.1-5c-0.4-0.9-0.6-1.8-1-2.7
		c-0.2-0.4-0.4-0.8-0.6-1.1c-1.7-1.9-3.4-3.8-5.1-5.7c-0.5-0.6-1-0.7-1.8-0.4c-3.1,1-6.3,2-9.5,2.9c-1,0.3-2.1,0.3-2.8-0.7
		c-0.6-0.9-0.4-1.8-0.1-2.7c0.3-0.8,0.7-1.6,0.9-2.4c0.5-1.6,1-3.3,1.3-5c0.3-1.9-0.3-2.2-2.1-2
		C160.7,106.5,158.2,106.6,155.7,106.8z M109.7,127.5c-13,0.2-25.7,0.3-38.5,0.5c0,0.1-0.1,0.3-0.1,0.4c0.3,0.3,0.6,0.5,1,0.7
		c1.2,0.8,2.5,1.5,3.6,2.3c1.5,1.1,1.4,2.7-0.3,3.5c-0.7,0.3-1.4,0.5-2.1,0.6c-3.4,0.5-6.7,0.9-10.1,1.4c-1,0.2-2,0.6-3,0.9
		c0,0.2,0,0.4,0,0.5c1.3,0.5,2.6,1,3.9,1.5c3.8,1.3,7.7,1.7,11.6,1.8c4.8,0.1,9.6,0.1,14.4-0.1c4.8-0.2,9.7-0.5,14.5-0.9
		c1.6-0.1,3.2-0.3,5-0.5C108.8,136,108.5,131.8,109.7,127.5z M120.5,99.8c0,0.1-0.1,0.1-0.1,0.2c0.6,0.7,1.2,1.4,1.7,2.2
		c0.5,0.6,0.5,1.5-0.4,1.6c-1.2,0.2-2.6,0.2-3.8-0.1c-1.9-0.4-3.6-1.2-5.5-1.6c-1.4-0.4-2.8-0.5-4.1-0.8c-0.2,2.5,1.7,3.7,2.7,5.4
		c0.6-0.6,1.2-0.5,1.6,0.2c0.4,0.6,0.8,1.3,1.1,1.9c0.5,1.2,0.8,2.6,1.5,3.6c2.1,2.7,3.2,5.9,4.2,9.1c0.7,2.3,0.8,2.2,3,2.3
		c2.8,0.1,5.5-0.4,8.2-1c1.1-0.3,1.4-0.8,1.5-2c0.1-4.7,0.3-9.4,0.5-14.1c0-0.8-0.3-1.1-0.9-1.4c-2.2-1.1-4.4-2.3-6.7-3.4
		C123.6,101.2,122.1,100.5,120.5,99.8z M142.4,62c-0.1,0-0.3,0-0.4,0c0,0.5-0.1,1-0.1,1.4c0.1,7.9,0.2,15.8,0.3,23.7
		c0,5.1,0,10.3,0,15.4c0,1,0.3,1.4,1.4,1.3c1.6-0.1,3.3-0.1,4.9-0.2c4.7-0.2,9.5-0.3,14.2-0.5c0.9,0,1.1-0.3,0.8-1.2
		c-0.2-0.5-0.2-1.2,0-1.7c0.4-0.7,0.2-1.2-0.2-1.7c-1.4-2.1-2.8-4.1-4.2-6.2c-0.5-0.7-0.8-0.6-1.2,0c-0.6,1-1.3,2-1.8,3
		c-1.3,2.2-2.6,4.5-4,6.7c-0.4,0.7-1.1,1.4-2,1.1c-0.8-0.3-1.3-1.1-1.3-2.1c0-0.4,0-0.8,0-1.2c0.1-3.8,0.2-7.6,0.4-11.5
		c0-1.1,0.2-2.3,0.3-3.4c0-0.5,0.1-0.9,0-1.4c-0.2-1.8-0.4-3.6-0.8-5.3c-0.4-2-0.3-4.1-1.4-6c-0.9-1.5-1.5-3.1-2.3-4.7
		C144.1,65.9,143.2,64,142.4,62z M121.6,126.8c1,2.3,1.9,4.3,2.7,6.3c2.5,6.4,4.9,12.8,9.4,18.3c1,1.3,2,2.5,3.5,3.2
		c0.4,0.2,0.9,0.3,1.4,0.4c0.1-0.5,0.4-0.9,0.4-1.4c0-8.8,0-17.5-0.1-26.3c0-0.3-0.1-0.9-0.2-1c-1.6-0.4-3.3-1.3-4.8-1
		c-2.7,0.4-5.3,1.3-8,1.3C124.4,126.6,123.1,126.8,121.6,126.8z M106.6,150.4c0-0.1,0.1-0.2,0.1-0.3c-0.2-0.2-0.4-0.5-0.7-0.5
		c-1.2-0.2-2.5-0.4-3.7-0.4c-2.5,0.1-5,0.6-7.6,0.7c-3.9,0.1-7.7,0.2-11.6,0.1c-3,0-6-0.4-9-0.4c-5.6,0-10.8-1.5-16-3.6
		c-1.6-0.7-2.5-1.7-2.5-3.5c0-1-0.5-1.3-1.4-1c-2.1,0.6-4.3,1.1-6.4,1.7c-1.2,0.3-2.4,0.7-3.5,1.3c-1.4,0.7-1.6,2-0.3,2.9
		c1.5,1.1,3.1,2.4,4.9,2.9c2.9,0.8,6,1.1,9,1.4c5.3,0.5,10.6,0.9,16,1.2c2.5,0.1,4.9-0.1,7.4-0.3c3.7-0.3,7.5-0.6,11.2-0.9
		c4.3-0.3,8.6-0.6,13-1C105.7,150.5,106.1,150.5,106.6,150.4z M129.3,79.2c0.5-0.4,1.4-0.6,1.7-1.2c1.7-2.7,1.9-7.7-2.2-9.4
		c-1.7-0.8-2.7,0.1-3,1.7c-0.4,2.2-0.6,4.5-0.8,6.7c0,0.4,0.2,1,0.5,1.1C126.7,78.5,127.9,78.8,129.3,79.2z M67.4,80.9
		c-1.6-0.4-3.4-0.8-5.1-1.2c-0.1,0-0.3,0.2-0.5,0.2c0.1,0.2,0.2,0.5,0.4,0.6c0.5,0.6,1.2,1.1,1.6,1.8c1.6,2.4,0.6,4.6-1.6,5.1
		c-0.3,0.1-0.7,0.6-0.7,0.9c0,0.3,0.3,0.8,0.6,1c0.9,0.4,1.2,1.1,1.4,1.9c0.2,1.6,0.2,1.5,1.8,1.5c1.1,0,1.2-0.5,1.2-1.4
		c-0.1-1.2-0.2-2.5-0.1-3.7C66.7,85.4,67,83.2,67.4,80.9z M174.5,113.6c-2-2.5-3.7-4.6-5.4-6.8c-0.2-0.2-0.5-0.2-0.5-0.2
		c-0.8,3.1-1.5,6.2-2.3,9.5C169.1,115.2,171.7,114.5,174.5,113.6z M229.7,159.2c-2.9-1.5-5.5-3-8.1-4.4c0,2.9,0,5.8,0,8.6
		C224.2,162.1,226.8,160.7,229.7,159.2z M113.1,63.1c-0.1,0-0.2-0.1-0.3-0.1c-1.8,3.3-3.7,6.5-5.6,10c2.3,0.5,4.3,0.9,6.6,1.4
		C112.2,70.4,112.9,66.7,113.1,63.1z M235.2,172.8c3.5-0.4,6.8-0.8,10.2-1.2c-2-1.8-3.9-3.5-5.9-5.3c-0.1-0.1-0.7,0-0.8,0.2
		C237.4,168.6,236.3,170.7,235.2,172.8z M216.4,139.2c0-0.1,0-0.2,0-0.2c-5-0.6-10.1-1.3-15.3-1.9c0.2,0.4,0.3,0.7,0.5,0.9
		c1.3,1.1,2.5,2.1,3.8,3.1c0.3,0.2,0.9,0.3,1.3,0.2C210,140.5,213.2,139.9,216.4,139.2z M151.8,95.9c0.1,0,0.2,0.1,0.4,0.1
		c0.2-0.2,0.4-0.4,0.5-0.6c1.2-1.9,2.5-3.8,3.6-5.7c0.2-0.3,0.1-0.9-0.1-1.2c-0.9-1.5-1.9-2.9-2.9-4.4c-0.2-0.3-0.5-0.4-0.9-0.8
		C152.2,87.7,152,91.8,151.8,95.9z M127.2,52.8c-0.2,1.8-0.2,3.4-0.5,4.9c-0.2,1.1,0.1,1.7,1.1,2.1c1.3,0.5,2.6,0.4,3.3-0.3
		c1.2-1.3,0.8-4.6-0.7-5.5C129.5,53.5,128.4,53.3,127.2,52.8z M114.6,97.7c1.5,2.3,3.8,4.2,5.2,4C118.1,100.2,116.8,98.4,114.6,97.7
		z M46.3,106.1c0.2-0.2,0.3-0.3,0.5-0.5c-0.3-0.5-0.5-1.1-0.8-1.6c-0.3,0.4-0.6,0.7-0.9,1.1C45.5,105.4,45.9,105.8,46.3,106.1z"/>
	<path d="M62.8,211c-1.1-0.7-1.2-1.3-0.3-2c0.9-0.7,1.9-1.2,2.8-1.9c0.6-0.4,1.4-0.6,1.4-1.5c0-0.2,0.4-0.5,0.7-0.6
		c5.1-1.6,8.6-5.5,12.9-8.4c2.3-1.6,4.6-3.3,6.9-4.9c2-1.4,4.1-2.6,6-4c0.8-0.6,1.5-1.5,2.2-2.3c0.6-0.7,1-1.7,2.1-1.9
		c0.3-0.1,0.6-0.5,0.8-0.8c2.6-4,5.3-7.9,7.7-12c1.1-1.8,1.5-4.1,2.2-5.7c0.5,1.4,1.1,3.2,1.9,4.8c0.7,1.5,1.4,2.9,2.3,4.2
		c2.1,3,2.9,6.5,3.9,10c1.7,5.6,3.4,11.2,5,16.8c0.4,1.2,0.8,2.4,1.3,3.6c2.1,5.1,3.5,10.3,4.7,15.6c0.2,0.8-0.1,1.8-0.1,2.6
		c0,0.4-0.1,0.8-0.2,1.3c0,1.7-1.4,2.7-2.9,2c-1.9-0.9-3.7-2-5.5-3c-3.2-1.8-6.7-3-10.3-3.8c-3.5-0.8-7-2-10.5-2.6
		c-5-0.8-10-1.2-15-1.7c-2.8-0.3-5.6-0.5-8.4-0.8c-0.2,0-0.5,0-0.6-0.1c-0.9-1.4-2.3-0.8-3.4-0.5c-1.8,0.5-3.5,0-5.3-0.1
		c-0.1,0-0.2,0-0.2,0c-1.5-1.5-2.5-0.2-3.6,0.6c-5.9,4-12.1,7.8-18.6,10.9c-0.3,0.2-0.8-0.1-1.3-0.1c0.2-0.4,0.2-1,0.5-1.2
		c0.5-0.4,1.1-0.7,1.7-1c6.3-3.1,12.2-6.8,17.9-10.7C62.1,211.6,62.4,211.3,62.8,211z"/>
	<path class="st0" d="M141.6,50.4c2.4,1.2,4.6,2.3,6.8,3.4c6.9,3.4,13.8,6.7,20.6,10.4c4.5,2.4,8.6,5.3,13,7.9
		c5,3,10.1,5.9,15.2,8.8c8.6,5,17.2,10,25.7,15.1c1.3,0.7,2.4,1.6,3.6,2.4c0,0.1,0,0.3-0.1,0.4c-2.8,0.5-5.6,1-8.4,1.4
		c-6,0.6-12,1.2-17.9,1.7c-2.8,0.3-5.6,0.4-8.4,0.6c-5.9,0.4-11.8,0.6-17.8,1c-2.5,0.2-4.2-0.6-5.6-2.8
		c-4.8-7.5-10.1-14.8-14.7-22.4c-3.3-5.5-5.6-11.5-8.4-17.3c-1-2.1-2.1-4.2-3.1-6.3C141.6,53.3,141.5,52,141.6,50.4z"/>
	<path class="st0" d="M90,124.9c-4.9,0-9.8,0-14.7,0c-1.6,0-3.2,0-4.8-0.1c-0.3,0-0.6-0.5-0.7-0.8c-0.1-0.3,0-0.6,0-0.9
		c0-10.6-0.1-21.2,0.1-31.8c0-2.8,0.6-5.7,0.9-8.5c0.1-0.9,0.6-1,1.4-0.8c5.7,1.3,11,3.4,16.4,5.6c5.1,2.1,10.2,4,15.4,6
		c0.8,0.3,1.1,0.7,1.4,1.5c1.1,4,2.3,7.9,3.3,11.9c0.8,3.2,2.3,6.2,2.1,9.6c-0.1,2.3-0.3,4.5-0.4,6.7c0,0.7-0.3,1-1.1,1
		c-6.4,0-12.7,0-19.1,0C90,124.6,90,124.7,90,124.9z"/>
	<path class="st0" d="M173.1,106.7c0.5-0.1,0.7-0.2,1-0.2c3.8-0.2,7.6-0.2,11.5-0.5c4.4-0.3,8.9-0.8,13.3-1.2
		c2.3-0.2,4.6-0.4,6.9-0.6c5-0.5,10-0.9,15-1.5c2-0.2,3.9-0.8,5.8-1.2c0.6-0.1,1.1-0.3,1.1,0.7c-0.1,4.8-0.1,9.7-0.2,14.5
		c0,4.1,0,8.2,0,12.3c0,2.1,0.2,4.1,0.3,6.2c0,0.5,0.1,1.3-0.2,1.4c-0.7,0.3-1.5,0.5-2.2,0.5c-1.4-0.1-2.8-0.5-4.3-0.7
		c-3.5-0.5-7-0.9-10.5-1.3c-3-0.4-6-0.8-8.9-1.1c-1.4-0.2-2.7-0.3-4.1-0.5c-0.6-0.1-1.2-0.4-1.6-0.8c-7.8-8-15.3-16.3-22.4-25
		C173.6,107.5,173.5,107.2,173.1,106.7z"/>
	<path class="st0" d="M141.9,142.1c0-4.3,0-8.7,0-13c0-1.7,0.1-1.7,1.7-1.4c8.1,1.5,16.3,3.1,24.4,4.6c4.1,0.7,8.3,1.3,12.4,1.9
		c0.8,0.1,1.3,0.4,1.4,1.3c0.1,1,0.9,1.5,1.8,1.5c1.6-0.1,3.2-0.2,4.7-0.7c2.4-0.8,4.6-0.3,6.9,0.3c0.8,0.2,1.4,0.9,1.5,2
		c0,1,0.5,2,0.7,2.9c0.1,0.5,0.2,1,0.3,1.5c0.2,0.6,0,1-0.7,1.2c-2.7,0.7-5.4,1.5-8.1,2.2c-2,0.5-3.9,1.1-5.9,1.4
		c-2.9,0.5-5.9,0.8-8.8,1.3c-3,0.5-6,1.1-9,1.6c-1.2,0.2-2.4,0.1-3.6,0.3c-4.6,0.7-9.3,1.4-13.9,2.1c-1.5,0.2-3,0.5-4.5,0.7
		c-1.5,0.2-1.6,0-1.5-1.6c0.2-3.4,0.4-6.7,0.5-10.1C142.1,142.1,142,142.1,141.9,142.1z"/>
	<path class="st0" d="M103.9,90.2c-3.2-1.2-6.1-2.3-9-3.4c-5-2-10-4.1-15.1-6c-2-0.7-4.1-1.1-6.1-1.6c-1-0.3-2-0.4-2.5-1.4
		c-0.2-0.3-1-0.5-1.2-0.4c-1.6,1-3.1,0.2-4.6-0.1c-0.8-0.1-1.6-0.4-2.7-0.7c0.6-0.5,0.9-0.9,1.3-1.1c2.9-1.6,5.7-3.3,8.6-4.7
		c4.8-2.3,9.7-4.3,14.6-6.5c5.9-2.6,11.7-5.2,17.6-7.8c5.3-2.4,10.5-4.9,15.8-7.4c0.3-0.1,0.6-0.3,1.1-0.2c-0.2,0.3-0.5,0.6-0.7,0.8
		c-7.1,6.8-11.4,15.5-15.8,24.1c-1.5,2.9-2.6,6.1-2.4,9.4c0.2,2,0.6,4,1,6C103.8,89.4,103.9,89.6,103.9,90.2z"/>
	<path class="st0" d="M104.3,82.4c0.1-2.6,0.8-5.1,2.1-7.5c0.1-0.3,0.7-0.4,1.1-0.4c2,0.3,3.9,0.8,5.8,1c1.5,0.2,2.1-0.8,1.6-2.2
		c-1.1-2.8-0.6-5.7-0.5-8.6c0.1-1.5,0.1-3.1,0.3-4.7c0-0.4,0.2-0.8,0.5-1.2c1.7-2.1,3.4-4.2,5.1-6.3c1-1.2,2.1-2.3,3.3-3.6
		c0.1,0.5,0.2,0.7,0.2,0.9c0,2.2-0.1,4.4-0.2,6.5c0,0.4-0.3,0.9-0.6,1.2c-0.8,0.7-0.7,1.5-0.3,2.4c0.3,0.6,0.4,1.3,0.4,2
		c0,1.5,0,3-0.2,4.5c-0.4,4.1-0.9,8.2-1.3,12.4c-0.1,1.2-0.1,2.5-0.1,3.7c0.1,1.3,1.1,1.9,2.3,1.8c0.9-0.1,2-0.1,2.8,0.1
		c3.4,1.1,6.8,1.3,10.3,1c1.8-0.2,1.9-0.1,1.9,1.7c0.1,5.2,0.2,10.5,0.2,15.7c0,0.6-0.3,1.3-0.6,1.8c-0.6,0.8-0.6,1.4,0,2.2
		c0.4,0.5,0.6,1.1,0.6,1.6c0,4.5-0.2,9.1-0.3,13.6c0,0.8-0.3,1.1-1.1,0.9c-0.7-0.2-1.5-0.2-2-0.6c-0.4-0.3-0.7-1-0.7-1.6
		c0-3.9,0.1-7.8,0.2-11.7c0-0.7,0-1.4,0.1-2c0.1-0.5,0.5-1.1,0.7-1.5c0.1-0.2,0.5-0.5,0.5-0.6c-0.1-0.6-0.1-1.6-0.5-1.7
		c-1-0.5-1.6-2.5-3.2-1.4c-0.8,0.6-1.3,0.4-2,0c-3.5-1.7-6.9-3.5-10.4-5.1c-2.1-1-4.3-1.6-6.4-2.5c-0.7-0.3-1.4-0.7-1.8-1.2
		c-2.6-2.8-5.3-5.6-6.8-9.2C105.5,83.3,104.9,83,104.3,82.4z"/>
	<path class="st0" d="M155.7,106.8c2.5-0.2,4.9-0.3,7.4-0.5c1.8-0.2,2.4,0.2,2.1,2c-0.3,1.7-0.8,3.3-1.3,5c-0.2,0.8-0.6,1.6-0.9,2.4
		c-0.4,0.9-0.6,1.8,0.1,2.7c0.7,1,1.8,1,2.8,0.7c3.2-0.9,6.4-1.8,9.5-2.9c0.8-0.3,1.3-0.2,1.8,0.4c1.7,1.9,3.4,3.8,5.1,5.7
		c0.3,0.3,0.5,0.7,0.6,1.1c0.4,0.9,0.6,1.8,1,2.7c0.6,1.4,0.1,4.2-1.1,5c-0.3,0.2-0.7,0.2-1.1,0.1c-4.4-0.7-8.7-1.4-13.1-2.1
		c-3.8-0.6-7.7-1.3-11.5-2c-3.5-0.6-6.9-1.4-10.3-2.1c-1.2-0.2-2.4-0.5-3.5-0.7c-0.7-0.1-1.1-0.5-1.1-1.2c0.1-5,0.1-9.9,0.2-14.9
		c0-0.9,0.5-1.1,1.3-1.2c4.1-0.2,8.2-0.4,12.3-0.6C155.7,106.6,155.7,106.7,155.7,106.8z"/>
	<path class="st0" d="M109.7,127.5c-1.2,4.3-1,8.5,0,12.7c-1.8,0.2-3.4,0.4-5,0.5c-4.8,0.3-9.7,0.7-14.5,0.9
		c-4.8,0.2-9.6,0.2-14.4,0.1c-3.9-0.1-7.9-0.5-11.6-1.8c-1.3-0.5-2.6-1-3.9-1.5c0-0.2,0-0.4,0-0.5c1-0.3,2-0.8,3-0.9
		c3.4-0.5,6.7-0.9,10.1-1.4c0.7-0.1,1.5-0.3,2.1-0.6c1.7-0.8,1.8-2.5,0.3-3.5c-1.2-0.8-2.4-1.5-3.6-2.3c-0.3-0.2-0.6-0.5-1-0.7
		c0-0.1,0.1-0.3,0.1-0.4C84,127.8,96.7,127.6,109.7,127.5z"/>
	<path class="st0" d="M120.5,99.8c1.5,0.7,3.1,1.4,4.6,2.2c2.2,1.1,4.5,2.3,6.7,3.4c0.6,0.3,1,0.6,0.9,1.4
		c-0.2,4.7-0.4,9.4-0.5,14.1c0,1.1-0.3,1.7-1.5,2c-2.7,0.6-5.4,1.1-8.2,1c-2.3-0.1-2.3,0-3-2.3c-1-3.2-2.1-6.4-4.2-9.1
		c-0.8-1-1-2.4-1.5-3.6c-0.3-0.7-0.7-1.3-1.1-1.9c-0.5-0.7-1-0.8-1.6-0.2c-0.9-1.7-2.8-2.9-2.7-5.4c1.4,0.3,2.8,0.4,4.1,0.8
		c1.8,0.5,3.6,1.3,5.5,1.6c1.2,0.3,2.5,0.2,3.8,0.1c0.8-0.1,0.8-1,0.4-1.6c-0.5-0.8-1.2-1.5-1.7-2.2
		C120.5,99.9,120.5,99.9,120.5,99.8z"/>
	<path class="st0" d="M142.4,62c0.8,2,1.7,3.9,2.5,5.8c0.7,1.6,1.4,3.3,2.3,4.7c1.2,1.9,1,4,1.4,6c0.4,1.8,0.5,3.5,0.8,5.3
		c0.1,0.5,0,0.9,0,1.4c-0.1,1.1-0.3,2.3-0.3,3.4c-0.2,3.8-0.3,7.6-0.4,11.5c0,0.4,0,0.8,0,1.2c0,1,0.4,1.7,1.3,2.1
		c0.9,0.4,1.6-0.4,2-1.1c1.4-2.2,2.6-4.5,4-6.7c0.6-1,1.2-2,1.8-3c0.4-0.6,0.7-0.7,1.2,0c1.4,2.1,2.8,4.1,4.2,6.2
		c0.4,0.5,0.5,1,0.2,1.7c-0.2,0.4-0.2,1.2,0,1.7c0.3,0.9,0.1,1.1-0.8,1.2c-4.7,0.1-9.5,0.3-14.2,0.5c-1.6,0.1-3.3,0-4.9,0.2
		c-1,0.1-1.4-0.3-1.4-1.3c0-5.1,0-10.3,0-15.4c-0.1-7.9-0.2-15.8-0.3-23.7c0-0.5,0.1-1,0.1-1.4C142.1,62,142.3,62,142.4,62z"/>
	<path class="st0" d="M121.6,126.8c1.5-0.1,2.8-0.2,4.1-0.2c2.8,0,5.4-0.8,8-1.3c1.5-0.2,3.2,0.6,4.8,1c0.2,0,0.2,0.6,0.2,1
		c0,8.8,0.1,17.5,0.1,26.3c0,0.5-0.3,0.9-0.4,1.4c-0.5-0.1-1-0.2-1.4-0.4c-1.4-0.8-2.4-2-3.5-3.2c-4.5-5.4-6.8-11.9-9.4-18.3
		C123.5,131.1,122.6,129.1,121.6,126.8z"/>
	<path class="st0" d="M106.6,150.4c-0.4,0-0.8,0.1-1.2,0.1c-4.3,0.3-8.6,0.6-13,1c-3.7,0.3-7.5,0.6-11.2,0.9
		c-2.5,0.2-4.9,0.5-7.4,0.3c-5.3-0.3-10.7-0.7-16-1.2c-3-0.3-6.1-0.6-9-1.4c-1.8-0.5-3.4-1.7-4.9-2.9c-1.3-0.9-1.1-2.1,0.3-2.9
		c1.1-0.6,2.3-0.9,3.5-1.3c2.1-0.6,4.3-1.1,6.4-1.7c0.9-0.3,1.5,0,1.4,1c-0.1,1.8,0.9,2.9,2.5,3.5c5.1,2.1,10.4,3.6,16,3.6
		c3,0,6,0.4,9,0.4c3.9,0.1,7.7,0,11.6-0.1c2.5-0.1,5-0.5,7.6-0.7c1.2-0.1,2.5,0.2,3.7,0.4c0.3,0,0.5,0.3,0.7,0.5
		C106.6,150.2,106.6,150.3,106.6,150.4z"/>
	<path class="st0" d="M129.3,79.2c-1.4-0.4-2.5-0.6-3.6-1.1c-0.3-0.1-0.5-0.7-0.5-1.1c0.2-2.3,0.4-4.5,0.8-6.7
		c0.3-1.6,1.2-2.5,3-1.7c4,1.7,3.8,6.7,2.2,9.4C130.7,78.6,129.8,78.8,129.3,79.2z"/>
	<path class="st0" d="M67.4,80.9c-0.4,2.4-0.7,4.5-1,6.7c-0.1,1.2,0,2.5,0.1,3.7c0.1,0.9-0.1,1.4-1.2,1.4c-1.6,0-1.6,0-1.8-1.5
		c-0.1-0.8-0.4-1.5-1.4-1.9c-0.3-0.1-0.6-0.6-0.6-1c0-0.3,0.4-0.8,0.7-0.9c2.2-0.5,3.2-2.7,1.6-5.1c-0.5-0.7-1.1-1.2-1.6-1.8
		c-0.2-0.2-0.2-0.4-0.4-0.6c0.2-0.1,0.3-0.3,0.5-0.2C64,80.1,65.8,80.5,67.4,80.9z"/>
	<path class="st0" d="M174.5,113.6c-2.9,0.9-5.4,1.6-8.2,2.5c0.8-3.3,1.5-6.3,2.3-9.5c0,0,0.3,0,0.5,0.2
		C170.9,109,172.6,111.1,174.5,113.6z"/>
	<path class="st0" d="M229.7,159.2c-2.8,1.5-5.5,2.9-8.1,4.3c0-2.8,0-5.7,0-8.6C224.2,156.2,226.8,157.6,229.7,159.2z"/>
	<path class="st0" d="M113.1,63.1c-0.2,3.6-0.9,7.3,0.7,11.3c-2.3-0.5-4.3-0.9-6.6-1.4c2-3.5,3.8-6.7,5.6-10
		C112.9,63,113,63,113.1,63.1z"/>
	<path class="st0" d="M235.2,172.8c1.2-2.2,2.3-4.2,3.5-6.3c0.1-0.2,0.7-0.3,0.8-0.2c2,1.7,3.9,3.5,5.9,5.3
		C242,172.1,238.7,172.4,235.2,172.8z"/>
	<path class="st0" d="M216.4,139.2c-3.2,0.7-6.5,1.4-9.7,2c-0.4,0.1-1,0.1-1.3-0.2c-1.3-1-2.6-2-3.8-3.1c-0.2-0.2-0.2-0.5-0.5-0.9
		c5.2,0.7,10.3,1.3,15.3,1.9C216.4,139.1,216.4,139.1,216.4,139.2z"/>
	<path class="st0" d="M151.8,95.9c0.2-4.1,0.4-8.2,0.6-12.6c0.4,0.4,0.7,0.5,0.9,0.8c1,1.5,2,2.9,2.9,4.4c0.2,0.3,0.3,0.9,0.1,1.2
		c-1.2,1.9-2.4,3.8-3.6,5.7c-0.1,0.2-0.4,0.4-0.5,0.6C152.1,95.9,152,95.9,151.8,95.9z"/>
	<path class="st0" d="M127.2,52.8c1.2,0.5,2.3,0.7,3.2,1.2c1.5,0.9,1.9,4.2,0.7,5.5c-0.6,0.7-2,0.8-3.3,0.3c-1-0.4-1.3-1-1.1-2.1
		C126.9,56.2,127,54.7,127.2,52.8z"/>
	<path class="st0" d="M114.6,97.7c2.2,0.6,3.5,2.5,5.2,4C118.4,101.9,116,100,114.6,97.7z"/>
	<path class="st0" d="M46.3,106.1c-0.4-0.3-0.8-0.6-1.2-1c0.3-0.4,0.6-0.7,0.9-1.1c0.3,0.5,0.5,1.1,0.8,1.6
		C46.6,105.8,46.4,105.9,46.3,106.1z"/>
</g>
</svg>
