<?xml version="1.0" encoding="UTF-8"?><svg id="Layer_1" xmlns="http://www.w3.org/2000/svg" viewBox="0 0 377 355.77"><defs><style>.cls-1{fill:#1d1d1b;}</style></defs><polygon class="cls-1" points="0 44.05 9.22 44.05 34.83 37.9 40.98 24.59 53.27 24.59 64.54 24.59 77.86 19.46 87.08 24.59 100.4 24.59 121.91 19.46 129.08 7.17 142.4 11.27 158.79 0 169.04 0 184.87 9.22 205.92 12.29 226.4 22.03 238.7 29.71 260.21 35.86 278.65 44.05 288.9 44.05 301.19 59.42 309.97 67.61 330.9 79.91 348.32 93.23 367.78 102.45 377 102.45 377 355.77 0 355.77 0 44.05"/></svg>