<?xml version="1.0" encoding="UTF-8"?><svg id="Layer_1" xmlns="http://www.w3.org/2000/svg" viewBox="0 0 264.2 264.2"><defs><style>.cls-1{fill:none;isolation:isolate;stroke:#1d1d1b;stroke-miterlimit:10;stroke-width:4px;}.cls-2{fill:#fff;}.cls-3{fill:#1d1d1b;}</style></defs><circle class="cls-2" cx="132.1" cy="132.1" r="132.1"/><path class="cls-1" d="M187.78,67.13l3.01-10.27s1.06-3.72-1.34-4.82L94.37,30.13s-3.94-.44-4.39,2.19c-.44,2.63-41.21,179.33-41.21,179.33l93.82,22.35s6.26,.99,7.95-3.24l6.77-28.82s27.06,7.06,37.64-15.29l20.3-86.09s4.43-23.74-27.45-33.43Zm11.34,32.42l-18.86,81.48c-7.81,10.02-19.26,5.79-19.26,5.79l24.08-103.33c18.64,4.4,14.05,16.06,14.05,16.06Z"/><path class="cls-3" d="M141.08,218.25l37.74-152.27s-.52-3.15-8.66-4.46c-8.12-1.31-65.91,1.94-68.38,0l-10.5-2.67L57.47,202.4l77.45,19.63s5.1,.31,6.16-3.78Z"/><path class="cls-2" d="M115.04,18.92c-.11,.03-.22,.05-.33,.07l.5-.07c-.5,.05-.99-.05-1.49-.09s-1.04,0-1.52,.15c-.74,.23-1.34,.64-1.78,1.28-.42,.6-.46,1.27-.55,1.96l.07-.5c-.1,.69-.28,1.35-.55,1.99l.19-.45c-.2,.47-.45,.92-.73,1.34-.06,.09-.14,.18-.2,.28,.3-.49,.09-.12-.01,0-.17,.2-.35,.39-.54,.57-.58,.55-.73,1.59-.29,2.27,.47,.73,1.27,1.04,2.12,.86,.43-.09,.86-.18,1.3-.27,.96-.2,1.61-1.39,1.31-2.31-.33-1.02-1.28-1.52-2.31-1.31-.43,.09-.86,.18-1.3,.27l1.82,3.13c.78-.75,1.46-1.66,1.94-2.64,.26-.54,.5-1.11,.66-1.69,.17-.61,.25-1.24,.33-1.87l-.07,.5c.03-.18,.06-.34,.13-.51l-.19,.45s.08-.14,.08-.14l-.2,.26c.1-.09,.07-.08-.07,.04-.28,.21,.06-.01,.15-.05l-.45,.19c.16-.06,.31-.1,.48-.13l-.5,.07c.41-.05,.81,0,1.22,.04,.61,.07,1.21,.06,1.81-.1,.95-.25,1.62-1.35,1.31-2.31s-1.29-1.58-2.31-1.31h0Z"/><path class="cls-3" d="M136.71,18.21c-.81,2.12,.85,4.33,2.85,4.97,1.22,.39,2.48,.18,3.72,.04s2.44,0,3.69,.3,2.39,.57,3.63,.7,2.51-.07,3.76-.32c1.96-.4,3.89-.29,5.1,1.53,1.33,2,4.58,.12,3.24-1.89-1.09-1.64-2.67-2.88-4.6-3.39-2.34-.61-4.4,.41-6.71,.37-2.19-.04-4.27-.98-6.46-1.11-1.12-.06-2.21,.21-3.32,.25-.43,.02-.81,.02-1.17-.2-.3-.18-.2,.05-.09-.24,.36-.95-.4-2.06-1.31-2.31-1.06-.29-1.94,.36-2.31,1.31h0Z"/><path class="cls-3" d="M173.52,30.9c-.07,.01-.15,.03-.22,.04l.5-.07c-.6,.07-1.19-.01-1.78-.04-.83-.04-1.64,.08-2.4,.44-.85,.41-1.41,1.16-1.73,2.01-.27,.71-.24,1.48-.11,2.22,.3,1.6,1.67,2.76,3.17,3.21,.67,.2,1.42,.28,2.12,.22,.82-.08,1.62-.24,2.34-.66,.82-.49,1.52-1.31,1.68-2.28,.09-.56,.11-1.12-.07-1.66-.24-.68-.64-1.16-1.23-1.58-.37-.27-1.02-.31-1.44-.19s-.91,.46-1.12,.86c-.23,.44-.35,.96-.19,1.44s.44,.82,.86,1.12l.05,.04-.38-.29c.06,.05,.12,.11,.17,.17l-.29-.38c.06,.08,.11,.16,.15,.26l-.19-.45c.04,.1,.06,.19,.07,.29l-.07-.5c.01,.12,.01,.25,0,.37l.07-.5c-.02,.13-.05,.24-.09,.36l.19-.45c-.05,.12-.11,.22-.18,.32l.29-.38c-.09,.11-.19,.21-.3,.31l.38-.29c-.17,.13-.36,.24-.56,.32l.45-.19c-.28,.11-.56,.18-.85,.22l.5-.07c-.42,.06-.84,.06-1.26,0l.5,.07c-.32-.05-.63-.13-.92-.25l.45,.19c-.22-.1-.43-.22-.63-.36l.38,.29c-.17-.13-.32-.28-.46-.44l.29,.38c-.12-.15-.21-.31-.29-.49l.19,.45c-.08-.2-.14-.4-.17-.61l.07,.5c-.03-.21-.03-.42,0-.62l-.07,.5c.03-.16,.07-.32,.13-.47l-.19,.45c.06-.15,.14-.29,.24-.42l-.29,.38c.08-.1,.16-.18,.26-.26l-.38,.29c.12-.09,.24-.16,.37-.22l-.45,.19c.2-.08,.41-.14,.62-.17l-.5,.07c.48-.06,.96,0,1.45,.02,.64,.04,1.25,.02,1.88-.1,.44-.08,.9-.49,1.12-.86,.24-.4,.33-.99,.19-1.44s-.43-.89-.86-1.12c-.47-.25-.93-.29-1.44-.19h0Z"/><path class="cls-3" d="M105.99,14.3c-1.19,1.06-1.49,2.71-1.52,4.22-.02,.93,.02,1.84,.42,2.7,.34,.73,1,1.34,1.73,1.66,.68,.3,1.35,.48,2.08,.6,.97,.16,1.98,.29,2.95,0s1.76-.87,2.25-1.71c.61-1.04,.53-2.26,0-3.32-.39-.78-1.04-1.46-1.65-2.07-.67-.68-1.4-1.28-2.16-1.85-.36-.27-1.03-.3-1.44-.19s-.91,.46-1.12,.86c-.23,.44-.35,.96-.19,1.44s.45,.81,.86,1.12c.31,.23-.25-.2-.07-.06,.07,.06,.14,.11,.21,.17,.14,.12,.28,.23,.42,.36,.29,.25,.57,.52,.84,.79s.51,.53,.74,.81c.04,.05,.14,.14,.16,.2-.04-.1-.26-.35-.08-.09,.11,.15,.2,.31,.27,.49l-.19-.45c.06,.16,.11,.31,.13,.47l-.07-.5c.01,.13,.01,.25,0,.38l.07-.5c-.02,.11-.05,.22-.1,.33l.19-.45c-.02,.05-.05,.1-.08,.15-.1,.16-.05,.1,.15-.17-.06,.05-.12,.13-.18,.19-.11,.09-.09,.08,.05-.04,.15-.11,.16-.12,.05-.04-.11,.05-.21,.12-.31,.16l.45-.19c-.22,.09-.44,.14-.67,.17l.5-.07c-.38,.04-.76,.01-1.14-.04l.5,.07c-.65-.09-1.32-.2-1.94-.45l.45,.19c-.1-.04-.21-.09-.3-.15-.05-.03-.1-.06-.14-.09-.15-.11-.09-.06,.18,.15-.04-.04-.08-.07-.12-.11-.12-.14-.08-.08,.14,.19-.05-.11-.13-.21-.18-.32l.19,.45c-.06-.16-.1-.32-.13-.49l.07,.5c-.09-.73-.06-1.52,.04-2.26l-.07,.5c.05-.35,.13-.69,.27-1.01l-.19,.45c.07-.16,.15-.3,.24-.45,.16-.26-.32,.34-.08,.11,.06-.06,.12-.12,.19-.18,.73-.66,.72-1.99,0-2.65-.78-.72-1.87-.7-2.65,0h0Z"/><path class="cls-3" d="M95.06,30.27c-.13,.34-.06,.11,.19,.06,.27-.05,.57-.22,.84-.3,.81-.26,1.64-.48,2.42-.85,2.03-.95,2.44-2.76,2.47-4.87,.04-2.41-.32-4.67,.8-6.92,.98-1.97,2.66-3.58,4.77-4.3s4.56-.65,6.65,.34c2.19,1.05,4.04,2.67,6.3,3.6,4.93,2.05,10.17,.46,15.09-.78,1.13-.28,2.26-.56,3.4-.76,.85-.15,2.34-.57,3.11-.03,.72,.5,1.1,1.66,1.73,2.31,.78,.8,1.76,1.36,2.79,1.76,2.17,.83,4.51,.73,6.77,.42,2.44-.34,4.93-1.01,7.37-.33,3.61,1.01,6.4,4.02,9.3,6.24,1.52,1.17,3.11,2.19,4.9,2.9,2.03,.8,4.12,.86,6.27,.73,2.46-.14,4.95-.17,5.89,2.56,.44,1.28,.39,2.67,.19,4-.21,1.39-.84,2.85-.73,4.27,.12,1.57,1.19,1.81,2.13,2.75,.78,.78,.41,2.18,.59,3.16,.09,.51,.4,1.03,.44,1.54,.02,.29-.09,.53-.16,.82-.18,.7-.26,1.73-.56,2.21-1.28,2.05,1.96,3.94,3.24,1.89,.45-.73,.63-1.61,.8-2.44s.51-1.64,.46-2.48c-.04-.64-.23-1.22-.42-1.83-.15-.51-.13-.94-.14-1.47-.03-1.21-.37-2.42-1.08-3.41-.4-.56-.87-.99-1.44-1.36-.06-.04-.49-.3-.5-.29l.37,.59c.03-.14,.06-.28,.1-.42,.27-.57,.33-1.43,.45-2.06,.14-.77,.26-1.56,.32-2.34,.19-2.52-.4-5.17-2.1-7.11-3.59-4.08-9.02-1.03-13.37-3.03-3.74-1.72-6.49-5.01-9.94-7.19-1.8-1.13-3.77-1.93-5.88-2.18-2.92-.34-5.72,.64-8.61,.78-2.02,.1-4.16-.22-5.32-2.04-.68-1.05-1.38-1.99-2.57-2.48s-2.39-.45-3.61-.3c-2.77,.34-5.44,1.11-8.15,1.78-2.5,.61-5.15,1.21-7.73,.75s-4.73-2.27-7.05-3.57-4.85-1.94-7.48-1.68c-5.9,.58-10.56,5.25-11.14,11.15-.16,1.57,.09,3.14,0,4.71-.02,.34-.42,1.27,0,.86-.22,.21-.58,.3-.86,.4-1.99,.68-4.07,1.09-4.91,3.26-.37,.95,.41,2.05,1.31,2.31,1.06,.3,1.94-.37,2.31-1.31h0Z"/></svg>